<?xml version="1.0" standalone="yes"?>

<svg version="1.1" viewBox="0.0 0.0 539.1837270341207 423.4409448818898" fill="none" stroke="none" stroke-linecap="square" stroke-miterlimit="10" xmlns="http://www.w3.org/2000/svg" xmlns:xlink="http://www.w3.org/1999/xlink"><clipPath id="p.0"><path d="m0 0l539.1837 0l0 423.44095l-539.1837 0l0 -423.44095z" clip-rule="nonzero"></path></clipPath><g clip-path="url(#p.0)"><path fill="#000000" fill-opacity="0.0" d="m0 0l539.1837 0l0 423.44095l-539.1837 0z" fill-rule="nonzero"></path><path fill="#000000" fill-opacity="0.0" d="m75.23097 220.28215l0 0c0 -8.7234955 7.071785 -15.795273 15.795273 -15.795273l204.56693 0c4.1891785 0 8.206757 1.6641388 11.168945 4.6263275c2.9621887 2.9621887 4.626343 6.979782 4.626343 11.168945l0 0l0 0c0 8.7234955 -7.0717773 15.795273 -15.795288 15.795273l-204.56693 0l0 0c-8.723488 0 -15.795273 -7.0717773 -15.795273 -15.795273z" fill-rule="nonzero"></path><path stroke="#000000" stroke-width="1.0" stroke-linejoin="round" stroke-linecap="butt" d="m75.23097 220.28215l0 0c0 -8.7234955 7.071785 -15.795273 15.795273 -15.795273l204.56693 0c4.1891785 0 8.206757 1.6641388 11.168945 4.6263275c2.9621887 2.9621887 4.626343 6.979782 4.626343 11.168945l0 0l0 0c0 8.7234955 -7.0717773 15.795273 -15.795288 15.795273l-204.56693 0l0 0c-8.723488 0 -15.795273 -7.0717773 -15.795273 -15.795273z" fill-rule="nonzero"></path><path fill="#000000" fill-opacity="0.0" d="m292.54724 208.10892l60.91339 176.1575" fill-rule="nonzero"></path><path stroke="#000000" stroke-width="1.0" stroke-linejoin="round" stroke-linecap="butt" d="m292.54724 208.10892l60.91339 176.1575" fill-rule="nonzero"></path><path fill="#000000" fill-opacity="0.0" d="m260.78494 211.67438l-233.5433 178.04724" fill-rule="nonzero"></path><path stroke="#000000" stroke-width="1.0" stroke-linejoin="round" stroke-linecap="butt" d="m260.78494 211.67438l-233.5433 178.04724" fill-rule="nonzero"></path><path fill="#000000" fill-opacity="0.0" d="m260.78494 211.67438l-200.37796 178.04724" fill-rule="nonzero"></path><path stroke="#000000" stroke-width="1.0" stroke-linejoin="round" stroke-linecap="butt" d="m260.78494 211.67438l-200.37796 178.04724" fill-rule="nonzero"></path><path fill="#000000" fill-opacity="0.0" d="m252.17717 208.10892l-66.80316 181.6063" fill-rule="nonzero"></path><path stroke="#000000" stroke-width="1.0" stroke-linejoin="round" stroke-linecap="butt" d="m252.17717 208.10892l-66.80316 181.6063" fill-rule="nonzero"></path><path fill="#000000" fill-opacity="0.0" d="m252.17717 208.10892l-24.37796 185.19687" fill-rule="nonzero"></path><path stroke="#000000" stroke-width="1.0" stroke-linejoin="round" stroke-linecap="butt" d="m252.17717 208.10892l-24.37796 185.19687" fill-rule="nonzero"></path><path fill="#000000" fill-opacity="0.0" d="m252.17717 208.10892l9.448807 185.19687" fill-rule="nonzero"></path><path stroke="#000000" stroke-width="1.0" stroke-linejoin="round" stroke-linecap="butt" d="m252.17717 208.10892l9.448807 185.19687" fill-rule="nonzero"></path><path fill="#000000" fill-opacity="0.0" d="m252.17717 208.10892l108.50392 181.6063" fill-rule="nonzero"></path><path stroke="#000000" stroke-width="1.0" stroke-linejoin="round" stroke-linecap="butt" d="m252.17717 208.10892l108.50392 181.6063" fill-rule="nonzero"></path><path fill="#000000" fill-opacity="0.0" d="m127.21654 208.10892l75.37007 181.6063" fill-rule="nonzero"></path><path stroke="#000000" stroke-width="1.0" stroke-linejoin="round" stroke-linecap="butt" d="m127.21654 208.10892l75.37007 181.6063" fill-rule="nonzero"></path><path fill="#000000" fill-opacity="0.0" d="m127.21654 208.10892l-91.338585 185.19687" fill-rule="nonzero"></path><path stroke="#000000" stroke-width="1.0" stroke-linejoin="round" stroke-linecap="butt" d="m127.21654 208.10892l-91.338585 185.19687" fill-rule="nonzero"></path><path fill="#000000" fill-opacity="0.0" d="m127.21654 208.10892l-58.204727 185.19687" fill-rule="nonzero"></path><path stroke="#000000" stroke-width="1.0" stroke-linejoin="round" stroke-linecap="butt" d="m127.21654 208.10892l-58.204727 185.19687" fill-rule="nonzero"></path><path fill="#000000" fill-opacity="0.0" d="m127.21654 208.10892l109.19685 181.6063" fill-rule="nonzero"></path><path stroke="#000000" stroke-width="1.0" stroke-linejoin="round" stroke-linecap="butt" d="m127.21654 208.10892l109.19685 181.6063" fill-rule="nonzero"></path><path fill="#000000" fill-opacity="0.0" d="m127.21654 208.10892l146.58269 173.00787" fill-rule="nonzero"></path><path stroke="#000000" stroke-width="1.0" stroke-linejoin="round" stroke-linecap="butt" d="m127.21654 208.10892l146.58269 173.00787" fill-rule="nonzero"></path><path fill="#000000" fill-opacity="0.0" d="m85.46441 211.67438l275.2126 178.04724" fill-rule="nonzero"></path><path stroke="#000000" stroke-width="1.0" stroke-linejoin="round" stroke-linecap="butt" d="m85.46441 211.67438l275.2126 178.04724" fill-rule="nonzero"></path><path fill="#000000" fill-opacity="0.0" d="m85.46441 211.67438l117.10236 178.04724" fill-rule="nonzero"></path><path stroke="#000000" stroke-width="1.0" stroke-linejoin="round" stroke-linecap="butt" d="m85.46441 211.67438l117.10236 178.04724" fill-rule="nonzero"></path><path fill="#000000" fill-opacity="0.0" d="m85.46441 211.67438l150.96063 178.04724" fill-rule="nonzero"></path><path stroke="#000000" stroke-width="1.0" stroke-linejoin="round" stroke-linecap="butt" d="m85.46441 211.67438l150.96063 178.04724" fill-rule="nonzero"></path><path fill="#000000" fill-opacity="0.0" d="m85.46441 211.67438l188.34644 169.44882" fill-rule="nonzero"></path><path stroke="#000000" stroke-width="1.0" stroke-linejoin="round" stroke-linecap="butt" d="m85.46441 211.67438l188.34644 169.44882" fill-rule="nonzero"></path><path fill="#000000" fill-opacity="0.0" d="m17.372704 381.12204l0 0c0 -8.72348 7.071785 -15.795258 15.795277 -15.795258l320.28348 0c4.1891785 0 8.206757 1.6641235 11.168945 4.6263123c2.9621887 2.9621887 4.6263123 6.9797974 4.6263123 11.168945l0 0l0 0c0 8.723511 -7.0717773 15.795288 -15.795258 15.795288l-320.28348 0c-8.723492 0 -15.795277 -7.0717773 -15.795277 -15.795288z" fill-rule="nonzero"></path><path stroke="#000000" stroke-width="1.0" stroke-linejoin="round" stroke-linecap="butt" d="m17.372704 381.12204l0 0c0 -8.72348 7.071785 -15.795258 15.795277 -15.795258l320.28348 0c4.1891785 0 8.206757 1.6641235 11.168945 4.6263123c2.9621887 2.9621887 4.6263123 6.9797974 4.6263123 11.168945l0 0l0 0c0 8.723511 -7.0717773 15.795288 -15.795258 15.795288l-320.28348 0c-8.723492 0 -15.795277 -7.0717773 -15.795277 -15.795288z" fill-rule="nonzero"></path><path fill="#000000" fill-opacity="0.0" d="m94.07218 208.10892l-25.07087 185.19687" fill-rule="nonzero"></path><path stroke="#000000" stroke-width="1.0" stroke-linejoin="round" stroke-linecap="butt" d="m94.07218 208.10892l-25.07087 185.19687" fill-rule="nonzero"></path><path fill="#000000" fill-opacity="0.0" d="m94.07218 208.10892l-58.204727 185.19687" fill-rule="nonzero"></path><path stroke="#000000" stroke-width="1.0" stroke-linejoin="round" stroke-linecap="butt" d="m94.07218 208.10892l-58.204727 185.19687" fill-rule="nonzero"></path><path fill="#000000" d="m339.90027 381.12204l0 0c0 -6.7230835 5.4501343 -12.173218 12.173218 -12.173218l0 0c3.2285461 0 6.3248596 1.2825317 8.607788 3.5654602c2.282898 2.2829285 3.5654297 5.3792114 3.5654297 8.607758l0 0c0 6.7230835 -5.4501343 12.173248 -12.173218 12.173248l0 0c-6.7230835 0 -12.173218 -5.450165 -12.173218 -12.173248z" fill-rule="nonzero"></path><path fill="#000000" fill-opacity="0.0" d="m97.20473 365.32678l68.566925 0l0 31.590546l-68.566925 0z" fill-rule="nonzero"></path><path fill="#000000" d="m123.67374 381.95734l0 -2.40625l2.390625 0l0 2.40625l-2.390625 0zm6.6679688 0l0 -2.40625l2.390625 0l0 2.40625l-2.390625 0zm6.6679688 0l0 -2.40625l2.390625 0l0 2.40625l-2.390625 0z" fill-rule="nonzero"></path><path fill="#000000" fill-opacity="0.0" d="m287.60104 365.32678l54.771667 0l0 31.590546l-54.771667 0z" fill-rule="nonzero"></path><path fill="#000000" d="m307.17242 381.95734l0 -2.40625l2.390625 0l0 2.40625l-2.390625 0zm6.6679688 0l0 -2.40625l2.390625 0l0 2.40625l-2.390625 0zm6.6679688 0l0 -2.40625l2.390625 0l0 2.40625l-2.390625 0z" fill-rule="nonzero"></path><path fill="#000000" fill-opacity="0.0" d="m138.9252 204.48688l68.566925 0l0 31.590546l-68.566925 0z" fill-rule="nonzero"></path><path fill="#000000" d="m165.39421 221.11743l0 -2.40625l2.390625 0l0 2.40625l-2.390625 0zm6.6679688 0l0 -2.40625l2.390625 0l0 2.40625l-2.390625 0zm6.6679688 0l0 -2.40625l2.390625 0l0 2.40625l-2.390625 0z" fill-rule="nonzero"></path><path fill="#000000" fill-opacity="0.0" d="m398.10498 360.82285l115.77954 0l0 36.094482l-115.77954 0z" fill-rule="nonzero"></path><path fill="#000000" d="m408.40186 387.74283l0 -13.59375l2.75 0l0 13.59375l-2.75 0zm14.214569 0l-2.609375 0l0 -5.03125q0 -1.59375 -0.171875 -2.0625q-0.15625 -0.46875 -0.53125 -0.71875q-0.375 -0.265625 -0.90625 -0.265625q-0.6875 0 -1.234375 0.375q-0.53125 0.359375 -0.734375 0.984375q-0.1875 0.609375 -0.1875 2.25l0 4.46875l-2.609375 0l0 -9.859375l2.421875 0l0 1.453125q1.296875 -1.671875 3.25 -1.671875q0.859375 0 1.578125 0.3125q0.71875 0.3125 1.078125 0.796875q0.359375 0.484375 0.5 1.09375q0.15625 0.609375 0.15625 1.75l0 6.125zm2.3647156 -9.859375l2.421875 0l0 1.453125q0.46875 -0.734375 1.28125 -1.203125q0.8125 -0.46875 1.796875 -0.46875q1.703125 0 2.90625 1.34375q1.203125 1.34375 1.203125 3.75q0 2.46875 -1.21875 3.84375q-1.203125 1.359375 -2.921875 1.359375q-0.8125 0 -1.484375 -0.3125q-0.65625 -0.328125 -1.390625 -1.125l0 4.96875l-2.59375 0l0 -13.609375zm2.578125 4.765625q0 1.65625 0.65625 2.453125q0.65625 0.796875 1.59375 0.796875q0.921875 0 1.515625 -0.71875q0.609375 -0.734375 0.609375 -2.40625q0 -1.546875 -0.625 -2.296875q-0.625 -0.75 -1.53125 -0.75q-0.96875 0 -1.59375 0.734375q-0.625 0.734375 -0.625 2.1875zm15.364746 5.09375l0 -1.46875q-0.53125 0.78125 -1.40625 1.234375q-0.875 0.453125 -1.859375 0.453125q-0.984375 0 -1.78125 -0.4375q-0.78125 -0.4375 -1.140625 -1.21875q-0.34375 -0.796875 -0.34375 -2.1875l0 -6.234375l2.609375 0l0 4.53125q0 2.078125 0.140625 2.546875q0.140625 0.46875 0.515625 0.75q0.390625 0.265625 0.96875 0.265625q0.671875 0 1.203125 -0.359375q0.53125 -0.375 0.71875 -0.90625q0.1875 -0.546875 0.1875 -2.671875l0 -4.15625l2.609375 0l0 9.859375l-2.421875 0zm9.427216 -9.859375l0 2.078125l-1.78125 0l0 3.984375q0 1.203125 0.046875 1.40625q0.0625 0.1875 0.234375 0.328125q0.1875 0.125 0.453125 0.125q0.359375 0 1.046875 -0.25l0.21875 2.015625q-0.90625 0.390625 -2.0625 0.390625q-0.703125 0 -1.265625 -0.234375q-0.5625 -0.234375 -0.828125 -0.609375q-0.265625 -0.375 -0.375 -1.015625q-0.078125 -0.453125 -0.078125 -1.84375l0 -4.296875l-1.203125 0l0 -2.078125l1.203125 0l0 -1.953125l2.609375 -1.515625l0 3.46875l1.78125 0zm6.880371 9.859375l0 -13.59375l2.609375 0l0 13.59375l-2.609375 0zm7.1364136 -6.84375l-2.359375 -0.4375q0.390625 -1.421875 1.359375 -2.109375q0.984375 -0.6875 2.90625 -0.6875q1.734375 0 2.59375 0.421875q0.859375 0.40625 1.203125 1.046875q0.34375 0.625 0.34375 2.328125l-0.03125 3.046875q0 1.296875 0.125 1.921875q0.125 0.609375 0.46875 1.3125l-2.578125 0q-0.09375 -0.265625 -0.25 -0.765625q-0.0625 -0.234375 -0.09375 -0.3125q-0.65625 0.65625 -1.421875 0.984375q-0.765625 0.3125 -1.625 0.3125q-1.515625 0 -2.40625 -0.8125q-0.875 -0.828125 -0.875 -2.09375q0 -0.84375 0.390625 -1.484375q0.40625 -0.65625 1.125 -1.0q0.71875 -0.359375 2.078125 -0.625q1.828125 -0.328125 2.53125 -0.625l0 -0.265625q0 -0.75 -0.375 -1.0625q-0.359375 -0.328125 -1.390625 -0.328125q-0.703125 0 -1.09375 0.28125q-0.390625 0.265625 -0.625 0.953125zm3.484375 2.109375q-0.5 0.171875 -1.59375 0.40625q-1.078125 0.234375 -1.40625 0.453125q-0.515625 0.359375 -0.515625 0.921875q0 0.546875 0.40625 0.953125q0.40625 0.390625 1.046875 0.390625q0.703125 0 1.34375 -0.46875q0.46875 -0.359375 0.625 -0.859375q0.09375 -0.34375 0.09375 -1.28125l0 -0.515625zm3.7038574 -5.125l2.78125 0l2.359375 7.0l2.296875 -7.0l2.703125 0l-3.484375 9.484375l-0.625 1.71875q-0.34375 0.859375 -0.65625 1.3125q-0.296875 0.46875 -0.703125 0.75q-0.40625 0.28125 -1.0 0.4375q-0.59375 0.15625 -1.328125 0.15625q-0.75 0 -1.46875 -0.15625l-0.234375 -2.046875q0.609375 0.125 1.09375 0.125q0.921875 0 1.34375 -0.53125q0.4375 -0.53125 0.671875 -1.359375l-3.75 -9.890625zm17.313202 6.71875l2.609375 0.4375q-0.5 1.4375 -1.59375 2.1875q-1.078125 0.734375 -2.703125 0.734375q-2.5625 0 -3.796875 -1.671875q-0.96875 -1.34375 -0.96875 -3.40625q0 -2.4375 1.265625 -3.828125q1.28125 -1.390625 3.25 -1.390625q2.1875 0 3.453125 1.453125q1.28125 1.453125 1.234375 4.453125l-6.53125 0q0.015625 1.15625 0.625 1.8125q0.609375 0.640625 1.5 0.640625q0.609375 0 1.03125 -0.328125q0.421875 -0.34375 0.625 -1.09375zm0.15625 -2.625q-0.03125 -1.140625 -0.59375 -1.71875q-0.546875 -0.59375 -1.34375 -0.59375q-0.859375 0 -1.40625 0.625q-0.5625 0.609375 -0.546875 1.6875l3.890625 0zm7.0163574 5.765625l-2.609375 0l0 -9.859375l2.421875 0l0 1.40625q0.625 -0.984375 1.109375 -1.296875q0.5 -0.328125 1.140625 -0.328125q0.890625 0 1.71875 0.5l-0.8125 2.265625q-0.65625 -0.421875 -1.21875 -0.421875q-0.546875 0 -0.9375 0.296875q-0.375 0.296875 -0.59375 1.09375q-0.21875 0.78125 -0.21875 3.296875l0 3.046875z" fill-rule="nonzero"></path><path fill="#000000" fill-opacity="0.0" d="m397.7139 199.6693l132.7244 0l0 36.094482l-132.7244 0z" fill-rule="nonzero"></path><path fill="#000000" d="m410.68265 212.99554l0 5.0q1.25 -1.484375 3.015625 -1.484375q0.890625 0 1.609375 0.34375q0.734375 0.328125 1.09375 0.84375q0.375 0.515625 0.5 1.15625q0.140625 0.625 0.140625 1.953125l0 5.78125l-2.609375 0l0 -5.203125q0 -1.546875 -0.15625 -1.96875q-0.140625 -0.421875 -0.515625 -0.65625q-0.375 -0.25 -0.9375 -0.25q-0.65625 0 -1.171875 0.3125q-0.5 0.3125 -0.734375 0.953125q-0.234375 0.640625 -0.234375 1.875l0 4.9375l-2.609375 0l0 -13.59375l2.609375 0zm8.786621 2.40625l0 -2.40625l2.609375 0l0 2.40625l-2.609375 0zm0 11.1875l0 -9.859375l2.609375 0l0 9.859375l-2.609375 0zm14.230164 0l-2.421875 0l0 -1.453125q-0.609375 0.84375 -1.4375 1.265625q-0.8125 0.40625 -1.640625 0.40625q-1.703125 0 -2.921875 -1.359375q-1.203125 -1.375 -1.203125 -3.828125q0 -2.5 1.171875 -3.796875q1.1875 -1.3125 2.984375 -1.3125q1.65625 0 2.859375 1.375l0 -4.890625l2.609375 0l0 13.59375zm-6.96875 -5.140625q0 1.578125 0.4375 2.28125q0.640625 1.015625 1.765625 1.015625q0.90625 0 1.53125 -0.765625q0.625 -0.765625 0.625 -2.28125q0 -1.703125 -0.609375 -2.4375q-0.609375 -0.75 -1.5625 -0.75q-0.9375 0 -1.5625 0.734375q-0.625 0.734375 -0.625 2.203125zm18.364746 5.140625l-2.421875 0l0 -1.453125q-0.609375 0.84375 -1.4375 1.265625q-0.8125 0.40625 -1.640625 0.40625q-1.703125 0 -2.921875 -1.359375q-1.203125 -1.375 -1.203125 -3.828125q0 -2.5 1.171875 -3.796875q1.1875 -1.3125 2.984375 -1.3125q1.65625 0 2.859375 1.375l0 -4.890625l2.609375 0l0 13.59375zm-6.96875 -5.140625q0 1.578125 0.4375 2.28125q0.640625 1.015625 1.765625 1.015625q0.90625 0 1.53125 -0.765625q0.625 -0.765625 0.625 -2.28125q0 -1.703125 -0.609375 -2.4375q-0.609375 -0.75 -1.5625 -0.75q-0.9375 0 -1.5625 0.734375q-0.625 0.734375 -0.625 2.203125zm15.020966 2.0l2.609375 0.4375q-0.5 1.4375 -1.59375 2.1875q-1.078125 0.734375 -2.703125 0.734375q-2.5625 0 -3.796875 -1.671875q-0.96875 -1.34375 -0.96875 -3.40625q0 -2.4375 1.265625 -3.828125q1.28125 -1.390625 3.25 -1.390625q2.1875 0 3.453125 1.453125q1.28125 1.453125 1.234375 4.453125l-6.53125 0q0.015625 1.15625 0.625 1.8125q0.609375 0.640625 1.5 0.640625q0.609375 0 1.03125 -0.328125q0.421875 -0.34375 0.625 -1.09375zm0.15625 -2.625q-0.03125 -1.140625 -0.59375 -1.71875q-0.546875 -0.59375 -1.34375 -0.59375q-0.859375 0 -1.40625 0.625q-0.5625 0.609375 -0.546875 1.6875l3.890625 0zm13.485107 5.765625l-2.609375 0l0 -5.03125q0 -1.59375 -0.171875 -2.0625q-0.15625 -0.46875 -0.53125 -0.71875q-0.375 -0.265625 -0.90625 -0.265625q-0.6875 0 -1.234375 0.375q-0.53125 0.359375 -0.734375 0.984375q-0.1875 0.609375 -0.1875 2.25l0 4.46875l-2.609375 0l0 -9.859375l2.421875 0l0 1.453125q1.296875 -1.671875 3.25 -1.671875q0.859375 0 1.578125 0.3125q0.71875 0.3125 1.078125 0.796875q0.359375 0.484375 0.5 1.09375q0.15625 0.609375 0.15625 1.75l0 6.125zm7.6105347 0l0 -13.59375l2.609375 0l0 13.59375l-2.609375 0zm7.1364136 -6.84375l-2.359375 -0.4375q0.390625 -1.421875 1.359375 -2.109375q0.984375 -0.6875 2.90625 -0.6875q1.734375 0 2.59375 0.421875q0.859375 0.40625 1.203125 1.046875q0.34375 0.625 0.34375 2.328125l-0.03125 3.046875q0 1.296875 0.125 1.921875q0.125 0.609375 0.46875 1.3125l-2.578125 0q-0.09375 -0.265625 -0.25 -0.765625q-0.0625 -0.234375 -0.09375 -0.3125q-0.65625 0.65625 -1.421875 0.984375q-0.765625 0.3125 -1.625 0.3125q-1.515625 0 -2.40625 -0.8125q-0.875 -0.828125 -0.875 -2.09375q0 -0.84375 0.390625 -1.484375q0.40625 -0.65625 1.125 -1.0q0.71875 -0.359375 2.078125 -0.625q1.828125 -0.328125 2.53125 -0.625l0 -0.265625q0 -0.75 -0.375 -1.0625q-0.359375 -0.328125 -1.390625 -0.328125q-0.703125 0 -1.09375 0.28125q-0.390625 0.265625 -0.625 0.953125zm3.484375 2.109375q-0.5 0.171875 -1.59375 0.40625q-1.078125 0.234375 -1.40625 0.453125q-0.515625 0.359375 -0.515625 0.921875q0 0.546875 0.40625 0.953125q0.40625 0.390625 1.046875 0.390625q0.703125 0 1.34375 -0.46875q0.46875 -0.359375 0.625 -0.859375q0.09375 -0.34375 0.09375 -1.28125l0 -0.515625zm3.7038574 -5.125l2.78125 0l2.359375 7.0l2.296875 -7.0l2.703125 0l-3.484375 9.484375l-0.625 1.71875q-0.34375 0.859375 -0.65625 1.3125q-0.296875 0.46875 -0.703125 0.75q-0.40625 0.28125 -1.0 0.4375q-0.59375 0.15625 -1.328125 0.15625q-0.75 0 -1.46875 -0.15625l-0.234375 -2.046875q0.609375 0.125 1.09375 0.125q0.921875 0 1.34375 -0.53125q0.4375 -0.53125 0.671875 -1.359375l-3.75 -9.890625zm17.313202 6.71875l2.609375 0.4375q-0.5 1.4375 -1.59375 2.1875q-1.078125 0.734375 -2.703125 0.734375q-2.5625 0 -3.796875 -1.671875q-0.96875 -1.34375 -0.96875 -3.40625q0 -2.4375 1.265625 -3.828125q1.28125 -1.390625 3.25 -1.390625q2.1875 0 3.453125 1.453125q1.28125 1.453125 1.234375 4.453125l-6.53125 0q0.015625 1.15625 0.625 1.8125q0.609375 0.640625 1.5 0.640625q0.609375 0 1.03125 -0.328125q0.421875 -0.34375 0.625 -1.09375zm0.15625 -2.625q-0.03125 -1.140625 -0.59375 -1.71875q-0.546875 -0.59375 -1.34375 -0.59375q-0.859375 0 -1.40625 0.625q-0.5625 0.609375 -0.546875 1.6875l3.890625 0zm7.016327 5.765625l-2.6093445 0l0 -9.859375l2.4218445 0l0 1.40625q0.625 -0.984375 1.109375 -1.296875q0.5 -0.328125 1.140625 -0.328125q0.890625 0 1.71875 0.5l-0.8125 2.265625q-0.65625 -0.421875 -1.21875 -0.421875q-0.546875 0 -0.9375 0.296875q-0.375 0.296875 -0.59375 1.09375q-0.21875 0.78125 -0.21875 3.296875l0 3.046875z" fill-rule="nonzero"></path><path fill="#000000" fill-opacity="0.0" d="m360.8924 329.23227l53.228333 0l0 36.094513l-53.228333 0z" fill-rule="nonzero"></path><path fill="#000000" d="m374.04865 350.6629q0.578125 0.609375 0.875 1.21875q0.203125 0.421875 0.6875 2.21875l1.03125 -1.546875q0.40625 -0.5625 0.984375 -1.0625q0.59375 -0.515625 1.046875 -0.703125q0.28125 -0.125 0.625 -0.125q0.5 0 0.796875 0.28125q0.296875 0.265625 0.296875 0.640625q0 0.453125 -0.171875 0.609375q-0.328125 0.296875 -0.75 0.296875q-0.25 0 -0.53125 -0.109375q-0.546875 -0.1875 -0.734375 -0.1875q-0.28125 0 -0.671875 0.328125q-0.71875 0.609375 -1.734375 2.359375l0.96875 4.03125q0.21875 0.921875 0.359375 1.109375q0.15625 0.1875 0.3125 0.1875q0.25 0 0.578125 -0.28125q0.640625 -0.53125 1.09375 -1.40625l0.421875 0.21875q-0.75 1.375 -1.875 2.296875q-0.65625 0.515625 -1.09375 0.515625q-0.65625 0 -1.046875 -0.734375q-0.25 -0.46875 -1.015625 -3.9375q-1.828125 3.171875 -2.9375 4.078125q-0.703125 0.59375 -1.375 0.59375q-0.46875 0 -0.859375 -0.34375q-0.28125 -0.25 -0.28125 -0.6875q0 -0.390625 0.265625 -0.640625q0.25 -0.265625 0.625 -0.265625q0.375 0 0.796875 0.375q0.3125 0.265625 0.46875 0.265625q0.140625 0 0.359375 -0.1875q0.5625 -0.4375 1.5 -1.90625q0.953125 -1.484375 1.25 -2.140625q-0.734375 -2.84375 -0.78125 -3.015625q-0.28125 -0.765625 -0.71875 -1.078125q-0.421875 -0.3125 -1.265625 -0.3125q-0.265625 0 -0.625 0.015625l0 -0.421875l3.125 -0.546875z" fill-rule="nonzero"></path><path fill="#000000" d="m384.076 363.19415l-1.03125 3.5625q1.453125 -2.1875 2.234375 -2.875q0.78125 -0.6875 1.5 -0.6875q0.390625 0 0.640625 0.265625q0.25 0.25 0.25 0.671875q0 0.46875 -0.21875 1.25l-0.953125 3.28125q-0.171875 0.578125 -0.171875 0.703125q0 0.109375 0.0625 0.1875q0.0625 0.0625 0.140625 0.0625q0.09375 0 0.21875 -0.09375q0.421875 -0.328125 0.90625 -1.0l0.25 0.140625q-0.734375 1.046875 -1.375 1.484375q-0.453125 0.3125 -0.8125 0.3125q-0.296875 0 -0.46875 -0.1875q-0.171875 -0.171875 -0.171875 -0.46875q0 -0.375 0.265625 -1.28125l0.90625 -3.140625q0.171875 -0.59375 0.171875 -0.921875q0 -0.15625 -0.109375 -0.25q-0.09375 -0.09375 -0.234375 -0.09375q-0.21875 0 -0.53125 0.1875q-0.578125 0.34375 -1.203125 1.15625q-0.625 0.8125 -1.3125 2.0625q-0.375 0.671875 -0.609375 1.453125l-0.390625 1.296875l-1.171875 0l1.421875 -4.890625q0.25 -0.890625 0.25 -1.0625q0 -0.171875 -0.140625 -0.296875q-0.140625 -0.140625 -0.34375 -0.140625q-0.09375 0 -0.328125 0.03125l-0.296875 0.046875l-0.046875 -0.28125l2.703125 -0.484375z" fill-rule="nonzero"></path><path fill="#000000" fill-opacity="0.0" d="m301.15503 211.67438l-273.88977 178.04724" fill-rule="nonzero"></path><path stroke="#000000" stroke-width="1.0" stroke-linejoin="round" stroke-linecap="butt" d="m301.15503 211.67438l-273.88977 178.04724" fill-rule="nonzero"></path><path fill="#000000" fill-opacity="0.0" d="m301.15503 211.67438l-240.75592 178.04724" fill-rule="nonzero"></path><path stroke="#000000" stroke-width="1.0" stroke-linejoin="round" stroke-linecap="butt" d="m301.15503 211.67438l-240.75592 178.04724" fill-rule="nonzero"></path><path fill="#000000" fill-opacity="0.0" d="m301.15503 211.67438l-81.952774 178.04724" fill-rule="nonzero"></path><path stroke="#000000" stroke-width="1.0" stroke-linejoin="round" stroke-linecap="butt" d="m301.15503 211.67438l-81.952774 178.04724" fill-rule="nonzero"></path><path fill="#000000" fill-opacity="0.0" d="m301.15503 211.67438l-115.77954 178.04724" fill-rule="nonzero"></path><path stroke="#000000" stroke-width="1.0" stroke-linejoin="round" stroke-linecap="butt" d="m301.15503 211.67438l-115.77954 178.04724" fill-rule="nonzero"></path><path fill="#000000" fill-opacity="0.0" d="m17.372704 42.316273l0 0c0 -8.723488 7.071785 -15.795275 15.795277 -15.795275l320.28348 0c4.1891785 0 8.206757 1.6641388 11.168945 4.6263294c2.9621887 2.9621887 4.6263123 6.9797783 4.6263123 11.168945l0 0l0 0c0 8.723492 -7.0717773 15.795277 -15.795258 15.795277l-320.28348 0c-8.723492 0 -15.795277 -7.071785 -15.795277 -15.795277z" fill-rule="nonzero"></path><path stroke="#000000" stroke-width="1.0" stroke-linejoin="round" stroke-linecap="butt" d="m17.372704 42.316273l0 0c0 -8.723488 7.071785 -15.795275 15.795277 -15.795275l320.28348 0c4.1891785 0 8.206757 1.6641388 11.168945 4.6263294c2.9621887 2.9621887 4.6263123 6.9797783 4.6263123 11.168945l0 0l0 0c0 8.723492 -7.0717773 15.795277 -15.795258 15.795277l-320.28348 0c-8.723492 0 -15.795277 -7.071785 -15.795277 -15.795277z" fill-rule="nonzero"></path><path fill="#000000" d="m202.97244 42.316273l0 0c0 -6.7230873 5.4501343 -12.173227 12.173233 -12.173227l0 0c3.228531 0 6.3248444 1.2825317 8.607773 3.5654545c2.2829132 2.2829247 3.565445 5.3792305 3.565445 8.607773l0 0c0 6.7230873 -5.4501343 12.173229 -12.173218 12.173229l0 0c-6.7230988 0 -12.173233 -5.450142 -12.173233 -12.173229z" fill-rule="nonzero"></path><path stroke="#000000" stroke-width="1.0" stroke-linejoin="round" stroke-linecap="butt" d="m202.97244 42.316273l0 0c0 -6.7230873 5.4501343 -12.173227 12.173233 -12.173227l0 0c3.228531 0 6.3248444 1.2825317 8.607773 3.5654545c2.2829132 2.2829247 3.565445 5.3792305 3.565445 8.607773l0 0c0 6.7230873 -5.4501343 12.173229 -12.173218 12.173229l0 0c-6.7230988 0 -12.173233 -5.450142 -12.173233 -12.173229z" fill-rule="nonzero"></path><path fill="#000000" fill-opacity="0.0" d="m35.862206 54.489502l58.204727 177.95276" fill-rule="nonzero"></path><path stroke="#000000" stroke-width="1.0" stroke-linejoin="round" stroke-linecap="butt" d="m35.862206 54.489502l58.204727 177.95276" fill-rule="nonzero"></path><path fill="#000000" fill-opacity="0.0" d="m27.254433 33.7085l99.968506 198.74016" fill-rule="nonzero"></path><path stroke="#000000" stroke-width="1.0" stroke-linejoin="round" stroke-linecap="butt" d="m27.254433 33.7085l99.968506 198.74016" fill-rule="nonzero"></path><path fill="#000000" fill-opacity="0.0" d="m27.254433 33.7085l180.75589 195.1811" fill-rule="nonzero"></path><path stroke="#000000" stroke-width="1.0" stroke-linejoin="round" stroke-linecap="butt" d="m27.254433 33.7085l180.75589 195.1811" fill-rule="nonzero"></path><path fill="#000000" fill-opacity="0.0" d="m27.254433 33.7085l233.5433 195.1811" fill-rule="nonzero"></path><path stroke="#000000" stroke-width="1.0" stroke-linejoin="round" stroke-linecap="butt" d="m27.254433 33.7085l233.5433 195.1811" fill-rule="nonzero"></path><path fill="#000000" fill-opacity="0.0" d="m27.254433 33.7085l273.88977 195.1811" fill-rule="nonzero"></path><path stroke="#000000" stroke-width="1.0" stroke-linejoin="round" stroke-linecap="butt" d="m27.254433 33.7085l273.88977 195.1811" fill-rule="nonzero"></path><path fill="#000000" fill-opacity="0.0" d="m139.38977 30.143045l-45.322838 202.29921" fill-rule="nonzero"></path><path stroke="#000000" stroke-width="1.0" stroke-linejoin="round" stroke-linecap="butt" d="m139.38977 30.143045l-45.322838 202.29921" fill-rule="nonzero"></path><path fill="#000000" fill-opacity="0.0" d="m139.38977 30.143045l-12.18898 202.29921" fill-rule="nonzero"></path><path stroke="#000000" stroke-width="1.0" stroke-linejoin="round" stroke-linecap="butt" d="m139.38977 30.143045l-12.18898 202.29921" fill-rule="nonzero"></path><path fill="#000000" fill-opacity="0.0" d="m139.38977 54.489502l60.0 177.95276" fill-rule="nonzero"></path><path stroke="#000000" stroke-width="1.0" stroke-linejoin="round" stroke-linecap="butt" d="m139.38977 54.489502l60.0 177.95276" fill-rule="nonzero"></path><path fill="#000000" fill-opacity="0.0" d="m130.782 33.7085l130.01573 195.1811" fill-rule="nonzero"></path><path stroke="#000000" stroke-width="1.0" stroke-linejoin="round" stroke-linecap="butt" d="m130.782 33.7085l130.01573 195.1811" fill-rule="nonzero"></path><path fill="#000000" fill-opacity="0.0" d="m130.782 33.7085l170.3622 195.1811" fill-rule="nonzero"></path><path stroke="#000000" stroke-width="1.0" stroke-linejoin="round" stroke-linecap="butt" d="m130.782 33.7085l170.3622 195.1811" fill-rule="nonzero"></path><path fill="#000000" fill-opacity="0.0" d="m208.0041 211.67438l-176.69292 173.10236" fill-rule="nonzero"></path><path stroke="#000000" stroke-width="1.0" stroke-linejoin="round" stroke-linecap="butt" d="m208.0041 211.67438l-176.69292 173.10236" fill-rule="nonzero"></path><path fill="#000000" fill-opacity="0.0" d="m208.0041 211.67438l-147.59056 178.04724" fill-rule="nonzero"></path><path stroke="#000000" stroke-width="1.0" stroke-linejoin="round" stroke-linecap="butt" d="m208.0041 211.67438l-147.59056 178.04724" fill-rule="nonzero"></path><path fill="#000000" fill-opacity="0.0" d="m199.39633 208.10892l-5.417328 185.19687" fill-rule="nonzero"></path><path stroke="#000000" stroke-width="1.0" stroke-linejoin="round" stroke-linecap="butt" d="m199.39633 208.10892l-5.417328 185.19687" fill-rule="nonzero"></path><path fill="#000000" fill-opacity="0.0" d="m199.39633 208.10892l28.40944 185.19687" fill-rule="nonzero"></path><path stroke="#000000" stroke-width="1.0" stroke-linejoin="round" stroke-linecap="butt" d="m199.39633 208.10892l28.40944 185.19687" fill-rule="nonzero"></path><path fill="#000000" fill-opacity="0.0" d="m199.39633 208.10892l70.834625 181.6063" fill-rule="nonzero"></path><path stroke="#000000" stroke-width="1.0" stroke-linejoin="round" stroke-linecap="butt" d="m199.39633 208.10892l70.834625 181.6063" fill-rule="nonzero"></path><path fill="#000000" d="m215.62993 381.12204l0 0c0 -6.7230835 5.4501343 -12.173218 12.173218 -12.173218l0 0c3.2285461 0 6.3248596 1.2825317 8.607773 3.5654602c2.2829285 2.2829285 3.5654602 5.3792114 3.5654602 8.607758l0 0c0 6.7230835 -5.4501343 12.173248 -12.173233 12.173248l0 0c-6.7230835 0 -12.173218 -5.450165 -12.173218 -12.173248z" fill-rule="nonzero"></path><path fill="#ffffff" d="m249.46457 381.12204l0 0c0 -6.7230835 5.4501343 -12.173218 12.173218 -12.173218l0 0c3.2285461 0 6.3248596 1.2825317 8.607788 3.5654602c2.2829285 2.2829285 3.5654602 5.3792114 3.5654602 8.607758l0 0c0 6.7230835 -5.450165 12.173248 -12.173248 12.173248l0 0c-6.7230835 0 -12.173218 -5.450165 -12.173218 -12.173248z" fill-rule="nonzero"></path><path stroke="#000000" stroke-width="1.0" stroke-linejoin="round" stroke-linecap="butt" d="m249.46457 381.12204l0 0c0 -6.7230835 5.4501343 -12.173218 12.173218 -12.173218l0 0c3.2285461 0 6.3248596 1.2825317 8.607788 3.5654602c2.2829285 2.2829285 3.5654602 5.3792114 3.5654602 8.607758l0 0c0 6.7230835 -5.450165 12.173248 -12.173248 12.173248l0 0c-6.7230835 0 -12.173218 -5.450165 -12.173218 -12.173248z" fill-rule="nonzero"></path><path fill="#000000" fill-opacity="0.0" d="m190.78856 211.67438l169.88976 178.04724" fill-rule="nonzero"></path><path stroke="#000000" stroke-width="1.0" stroke-linejoin="round" stroke-linecap="butt" d="m190.78856 211.67438l169.88976 178.04724" fill-rule="nonzero"></path><path fill="#ffffff" d="m181.79527 381.12204l0 0c0 -6.7230835 5.4501495 -12.173218 12.173233 -12.173218l0 0c3.2285461 0 6.3248444 1.2825317 8.607773 3.5654602c2.2829132 2.2829285 3.5654602 5.3792114 3.5654602 8.607758l0 0c0 6.7230835 -5.4501495 12.173248 -12.173233 12.173248l0 0c-6.7230835 0 -12.173233 -5.450165 -12.173233 -12.173248z" fill-rule="nonzero"></path><path stroke="#000000" stroke-width="1.0" stroke-linejoin="round" stroke-linecap="butt" d="m181.79527 381.12204l0 0c0 -6.7230835 5.4501495 -12.173218 12.173233 -12.173218l0 0c3.2285461 0 6.3248444 1.2825317 8.607773 3.5654602c2.2829132 2.2829285 3.5654602 5.3792114 3.5654602 8.607758l0 0c0 6.7230835 -5.4501495 12.173248 -12.173233 12.173248l0 0c-6.7230835 0 -12.173233 -5.450165 -12.173233 -12.173248z" fill-rule="nonzero"></path><path fill="#ffffff" d="m56.834644 381.12204l0 0c0 -6.7230835 5.450142 -12.173218 12.173229 -12.173218l0 0c3.2285385 0 6.324852 1.2825317 8.607773 3.5654602c2.2829208 2.2829285 3.5654526 5.3792114 3.5654526 8.607758l0 0c0 6.7230835 -5.4501343 12.173248 -12.173225 12.173248l0 0c-6.7230873 0 -12.173229 -5.450165 -12.173229 -12.173248z" fill-rule="nonzero"></path><path stroke="#000000" stroke-width="1.0" stroke-linejoin="round" stroke-linecap="butt" d="m56.834644 381.12204l0 0c0 -6.7230835 5.450142 -12.173218 12.173229 -12.173218l0 0c3.2285385 0 6.324852 1.2825317 8.607773 3.5654602c2.2829208 2.2829285 3.5654526 5.3792114 3.5654526 8.607758l0 0c0 6.7230835 -5.4501343 12.173248 -12.173225 12.173248l0 0c-6.7230873 0 -12.173229 -5.450165 -12.173229 -12.173248z" fill-rule="nonzero"></path><path fill="#000000" d="m23.690289 381.12204l0 0c0 -6.7230835 5.45014 -12.173218 12.173229 -12.173218l0 0c3.2285385 0 6.324848 1.2825317 8.607773 3.5654602c2.2829208 2.2829285 3.5654564 5.3792114 3.5654564 8.607758l0 0c0 6.7230835 -5.450142 12.173248 -12.173229 12.173248l0 0c-6.723089 0 -12.173229 -5.450165 -12.173229 -12.173248z" fill-rule="nonzero"></path><path fill="#000000" fill-opacity="0.0" d="m153.62425 26.52231l45.763794 0l0 31.590551l-45.763794 0z" fill-rule="nonzero"></path><path fill="#000000" d="m168.6917 43.15286l0 -2.40625l2.390625 0l0 2.40625l-2.390625 0zm6.6679688 0l0 -2.40625l2.390625 0l0 2.40625l-2.390625 0zm6.6679688 0l0 -2.40625l2.390625 0l0 2.40625l-2.390625 0z" fill-rule="nonzero"></path><path fill="#000000" fill-opacity="0.0" d="m67.561676 26.520998l68.56694 0l0 31.590551l-68.56694 0z" fill-rule="nonzero"></path><path fill="#000000" d="m94.03069 43.151546l0 -2.40625l2.390625 0l0 2.40625l-2.390625 0zm6.667961 0l0 -2.40625l2.390625 0l0 2.40625l-2.390625 0zm6.6679688 0l0 -2.40625l2.390625 0l0 2.40625l-2.390625 0z" fill-rule="nonzero"></path><path fill="#000000" fill-opacity="0.0" d="m282.52847 26.52231l45.763763 0l0 31.590551l-45.763763 0z" fill-rule="nonzero"></path><path fill="#000000" d="m297.5959 43.15286l0 -2.40625l2.390625 0l0 2.40625l-2.390625 0zm6.6679688 0l0 -2.40625l2.390625 0l0 2.40625l-2.390625 0zm6.6679688 0l0 -2.40625l2.390625 0l0 2.40625l-2.390625 0z" fill-rule="nonzero"></path><path fill="#ffffff" d="m127.21654 42.316273l0 0c0 -6.7230873 5.4501343 -12.173227 12.173233 -12.173227l0 0c3.228531 0 6.3248444 1.2825317 8.607773 3.5654545c2.2829132 2.2829247 3.565445 5.3792305 3.565445 8.607773l0 0c0 6.7230873 -5.4501343 12.173229 -12.173218 12.173229l0 0c-6.7230988 0 -12.173233 -5.450142 -12.173233 -12.173229z" fill-rule="nonzero"></path><path stroke="#000000" stroke-width="1.0" stroke-linejoin="round" stroke-linecap="butt" d="m127.21654 42.316273l0 0c0 -6.7230873 5.4501343 -12.173227 12.173233 -12.173227l0 0c3.228531 0 6.3248444 1.2825317 8.607773 3.5654545c2.2829132 2.2829247 3.565445 5.3792305 3.565445 8.607773l0 0c0 6.7230873 -5.4501343 12.173229 -12.173218 12.173229l0 0c-6.7230988 0 -12.173233 -5.450142 -12.173233 -12.173229z" fill-rule="nonzero"></path><path fill="#000000" d="m23.688976 42.316273l0 0c0 -6.7230873 5.45014 -12.173227 12.173229 -12.173227l0 0c3.2285385 0 6.324848 1.2825317 8.607773 3.5654545c2.2829208 2.2829247 3.5654564 5.3792305 3.5654564 8.607773l0 0c0 6.7230873 -5.450142 12.173229 -12.173229 12.173229l0 0c-6.723089 0 -12.173229 -5.450142 -12.173229 -12.173229z" fill-rule="nonzero"></path><path stroke="#000000" stroke-width="1.0" stroke-linejoin="round" stroke-linecap="butt" d="m23.688976 42.316273l0 0c0 -6.7230873 5.45014 -12.173227 12.173229 -12.173227l0 0c3.2285385 0 6.324848 1.2825317 8.607773 3.5654545c2.2829208 2.2829247 3.5654564 5.3792305 3.5654564 8.607773l0 0c0 6.7230873 -5.450142 12.173229 -12.173229 12.173229l0 0c-6.723089 0 -12.173229 -5.450142 -12.173229 -12.173229z" fill-rule="nonzero"></path><path fill="#000000" fill-opacity="0.0" d="m215.14568 30.143045l-129.6693 198.74016" fill-rule="nonzero"></path><path stroke="#000000" stroke-width="1.0" stroke-linejoin="round" stroke-linecap="butt" d="m215.14568 30.143045l-129.6693 198.74016" fill-rule="nonzero"></path><path fill="#000000" fill-opacity="0.0" d="m215.14568 30.143045l-96.53544 198.74016" fill-rule="nonzero"></path><path stroke="#000000" stroke-width="1.0" stroke-linejoin="round" stroke-linecap="butt" d="m215.14568 30.143045l-96.53544 198.74016" fill-rule="nonzero"></path><path fill="#000000" fill-opacity="0.0" d="m215.14568 30.143045l-15.748032 202.29921" fill-rule="nonzero"></path><path stroke="#000000" stroke-width="1.0" stroke-linejoin="round" stroke-linecap="butt" d="m215.14568 30.143045l-15.748032 202.29921" fill-rule="nonzero"></path><path fill="#000000" fill-opacity="0.0" d="m215.14568 30.143045l37.039368 202.29921" fill-rule="nonzero"></path><path stroke="#000000" stroke-width="1.0" stroke-linejoin="round" stroke-linecap="butt" d="m215.14568 30.143045l37.039368 202.29921" fill-rule="nonzero"></path><path fill="#000000" fill-opacity="0.0" d="m215.14568 30.143045l86.01573 198.74016" fill-rule="nonzero"></path><path stroke="#000000" stroke-width="1.0" stroke-linejoin="round" stroke-linecap="butt" d="m215.14568 30.143045l86.01573 198.74016" fill-rule="nonzero"></path><path fill="#000000" fill-opacity="0.0" d="m314.86615 191.8622l53.228333 0l0 36.094498l-53.228333 0z" fill-rule="nonzero"></path><path fill="#000000" d="m330.91302 207.23033l-3.296875 11.390625q2.140625 -3.21875 3.328125 -4.265625q1.203125 -1.0625 2.28125 -1.0625q0.5625 0 0.9375 0.390625q0.375 0.390625 0.375 1.03125q0 0.765625 -0.328125 1.875l-1.421875 4.90625q-0.265625 0.890625 -0.265625 0.984375q0 0.171875 0.09375 0.28125q0.09375 0.09375 0.234375 0.09375q0.140625 0 0.34375 -0.15625q0.671875 -0.515625 1.328125 -1.421875l0.359375 0.21875q-0.390625 0.625 -1.109375 1.375q-0.703125 0.734375 -1.21875 1.03125q-0.5 0.28125 -0.90625 0.28125q-0.4375 0 -0.71875 -0.28125q-0.265625 -0.265625 -0.265625 -0.703125q0 -0.515625 0.40625 -1.921875l1.359375 -4.6875q0.25 -0.875 0.25 -1.390625q0 -0.234375 -0.15625 -0.375q-0.140625 -0.140625 -0.375 -0.140625q-0.328125 0 -0.765625 0.265625q-0.796875 0.484375 -1.84375 1.828125q-0.28125 0.359375 -1.875 2.921875q-0.484375 0.828125 -0.8125 1.796875l-0.75 2.40625l-1.75 0l3.859375 -13.40625l0.40625 -1.453125q0 -0.3125 -0.25 -0.546875q-0.25 -0.234375 -0.625 -0.234375q-0.203125 0 -0.640625 0.078125l-0.25 0.03125l0 -0.453125l4.0625 -0.6875z" fill-rule="nonzero"></path><path fill="#000000" d="m339.3349 225.82408l-1.015625 3.53125q0.6875 -1.25 1.15625 -1.875q0.75 -0.96875 1.453125 -1.40625q0.40625 -0.25 0.859375 -0.25q0.390625 0 0.640625 0.25q0.265625 0.25 0.265625 0.640625q0 0.390625 -0.171875 1.0l-0.5625 1.984375q1.28125 -2.375 2.421875 -3.34375q0.625 -0.53125 1.25 -0.53125q0.359375 0 0.578125 0.25q0.234375 0.25 0.234375 0.765625q0 0.453125 -0.140625 0.953125l-0.859375 3.046875q-0.28125 0.984375 -0.28125 1.09375q0 0.109375 0.078125 0.1875q0.046875 0.0625 0.125 0.0625q0.078125 0 0.265625 -0.15625q0.453125 -0.34375 0.84375 -0.90625l0.25 0.171875q-0.1875 0.3125 -0.6875 0.859375q-0.5 0.546875 -0.859375 0.75q-0.34375 0.1875 -0.640625 0.1875q-0.265625 0 -0.453125 -0.1875q-0.1875 -0.1875 -0.1875 -0.46875q0 -0.375 0.328125 -1.5l0.703125 -2.515625q0.25 -0.859375 0.265625 -0.953125q0.015625 -0.15625 0.015625 -0.296875q0 -0.1875 -0.078125 -0.296875q-0.09375 -0.109375 -0.21875 -0.109375q-0.328125 0 -0.6875 0.328125q-1.078125 1.0 -2.015625 2.78125q-0.625 1.1875 -1.15625 3.03125l-1.1875 0l1.34375 -4.734375q0.21875 -0.765625 0.21875 -1.015625q0 -0.21875 -0.09375 -0.3125q-0.078125 -0.109375 -0.203125 -0.109375q-0.265625 0 -0.546875 0.1875q-0.46875 0.3125 -1.21875 1.3125q-0.734375 1.0 -1.140625 1.90625q-0.1875 0.4375 -0.921875 2.765625l-1.15625 0l1.4375 -5.0625l0.1875 -0.65625q0.0625 -0.15625 0.0625 -0.21875q0 -0.171875 -0.15625 -0.3125q-0.15625 -0.140625 -0.40625 -0.140625q-0.09375 0 -0.5625 0.09375l-0.0625 -0.28125l2.6875 -0.5z" fill-rule="nonzero"></path><path fill="#000000" fill-opacity="0.0" d="m250.79396 30.143045l-165.32283 198.74016" fill-rule="nonzero"></path><path stroke="#000000" stroke-width="1.0" stroke-linejoin="round" stroke-linecap="butt" d="m250.79396 30.143045l-165.32283 198.74016" fill-rule="nonzero"></path><path fill="#000000" fill-opacity="0.0" d="m250.79396 30.143045l-132.18896 198.74016" fill-rule="nonzero"></path><path stroke="#000000" stroke-width="1.0" stroke-linejoin="round" stroke-linecap="butt" d="m250.79396 30.143045l-132.18896 198.74016" fill-rule="nonzero"></path><path fill="#000000" fill-opacity="0.0" d="m250.79396 30.143045l-51.401566 202.29921" fill-rule="nonzero"></path><path stroke="#000000" stroke-width="1.0" stroke-linejoin="round" stroke-linecap="butt" d="m250.79396 30.143045l-51.401566 202.29921" fill-rule="nonzero"></path><path fill="#000000" fill-opacity="0.0" d="m250.79396 30.143045l1.3858337 202.29921" fill-rule="nonzero"></path><path stroke="#000000" stroke-width="1.0" stroke-linejoin="round" stroke-linecap="butt" d="m250.79396 30.143045l1.3858337 202.29921" fill-rule="nonzero"></path><path fill="#000000" fill-opacity="0.0" d="m250.79396 30.143045l50.362198 198.74016" fill-rule="nonzero"></path><path stroke="#000000" stroke-width="1.0" stroke-linejoin="round" stroke-linecap="butt" d="m250.79396 30.143045l50.362198 198.74016" fill-rule="nonzero"></path><path fill="#ffffff" d="m238.62073 42.316273l0 0c0 -6.7230873 5.4501495 -12.173227 12.173233 -12.173227l0 0c3.2285461 0 6.3248444 1.2825317 8.607773 3.5654545c2.2829285 2.2829247 3.5654602 5.3792305 3.5654602 8.607773l0 0c0 6.7230873 -5.4501343 12.173229 -12.173233 12.173229l0 0c-6.7230835 0 -12.173233 -5.450142 -12.173233 -12.173229z" fill-rule="nonzero"></path><path stroke="#000000" stroke-width="1.0" stroke-linejoin="round" stroke-linecap="butt" d="m238.62073 42.316273l0 0c0 -6.7230873 5.4501495 -12.173227 12.173233 -12.173227l0 0c3.2285461 0 6.3248444 1.2825317 8.607773 3.5654545c2.2829285 2.2829247 3.5654602 5.3792305 3.5654602 8.607773l0 0c0 6.7230873 -5.4501343 12.173229 -12.173233 12.173229l0 0c-6.7230835 0 -12.173233 -5.450142 -12.173233 -12.173229z" fill-rule="nonzero"></path><path fill="#000000" fill-opacity="0.0" d="m360.89255 33.7085l-275.43307 195.1811" fill-rule="nonzero"></path><path stroke="#000000" stroke-width="1.0" stroke-linejoin="round" stroke-linecap="butt" d="m360.89255 33.7085l-275.43307 195.1811" fill-rule="nonzero"></path><path fill="#000000" fill-opacity="0.0" d="m360.89255 33.7085l-242.29921 195.1811" fill-rule="nonzero"></path><path stroke="#000000" stroke-width="1.0" stroke-linejoin="round" stroke-linecap="butt" d="m360.89255 33.7085l-242.29921 195.1811" fill-rule="nonzero"></path><path fill="#000000" fill-opacity="0.0" d="m360.89255 33.7085l-170.11023 195.1811" fill-rule="nonzero"></path><path stroke="#000000" stroke-width="1.0" stroke-linejoin="round" stroke-linecap="butt" d="m360.89255 33.7085l-170.11023 195.1811" fill-rule="nonzero"></path><path fill="#000000" fill-opacity="0.0" d="m360.89255 33.7085l-108.72441 198.74016" fill-rule="nonzero"></path><path stroke="#000000" stroke-width="1.0" stroke-linejoin="round" stroke-linecap="butt" d="m360.89255 33.7085l-108.72441 198.74016" fill-rule="nonzero"></path><path fill="#000000" fill-opacity="0.0" d="m360.89255 33.7085l-68.346466 198.74016" fill-rule="nonzero"></path><path stroke="#000000" stroke-width="1.0" stroke-linejoin="round" stroke-linecap="butt" d="m360.89255 33.7085l-68.346466 198.74016" fill-rule="nonzero"></path><path fill="#ffffff" d="m240.00394 220.28215l0 0c0 -6.7230835 5.4501343 -12.173233 12.173233 -12.173233l0 0c3.228531 0 6.3248444 1.282547 8.607773 3.5654602c2.2829285 2.2829285 3.5654602 5.3792267 3.5654602 8.607773l0 0c0 6.7230835 -5.4501343 12.173233 -12.173233 12.173233l0 0c-6.7230988 0 -12.173233 -5.4501495 -12.173233 -12.173233z" fill-rule="nonzero"></path><path stroke="#000000" stroke-width="1.0" stroke-linejoin="round" stroke-linecap="butt" d="m240.00394 220.28215l0 0c0 -6.7230835 5.4501343 -12.173233 12.173233 -12.173233l0 0c3.228531 0 6.3248444 1.282547 8.607773 3.5654602c2.2829285 2.2829285 3.5654602 5.3792267 3.5654602 8.607773l0 0c0 6.7230835 -5.4501343 12.173233 -12.173233 12.173233l0 0c-6.7230988 0 -12.173233 -5.4501495 -12.173233 -12.173233z" fill-rule="nonzero"></path><path fill="#ffffff" d="m280.37402 220.28215l0 0c0 -6.7230835 5.4501343 -12.173233 12.173218 -12.173233l0 0c3.2285461 0 6.3248596 1.282547 8.607788 3.5654602c2.282898 2.2829285 3.5654297 5.3792267 3.5654297 8.607773l0 0c0 6.7230835 -5.4501343 12.173233 -12.173218 12.173233l0 0c-6.7230835 0 -12.173218 -5.4501495 -12.173218 -12.173233z" fill-rule="nonzero"></path><path stroke="#000000" stroke-width="1.0" stroke-linejoin="round" stroke-linecap="butt" d="m280.37402 220.28215l0 0c0 -6.7230835 5.4501343 -12.173233 12.173218 -12.173233l0 0c3.2285461 0 6.3248596 1.282547 8.607788 3.5654602c2.282898 2.2829285 3.5654297 5.3792267 3.5654297 8.607773l0 0c0 6.7230835 -5.4501343 12.173233 -12.173218 12.173233l0 0c-6.7230835 0 -12.173218 -5.4501495 -12.173218 -12.173233z" fill-rule="nonzero"></path><path fill="#000000" d="m187.2231 220.28215l0 0c0 -6.7230835 5.4501343 -12.173233 12.173233 -12.173233l0 0c3.228531 0 6.3248444 1.282547 8.607773 3.5654602c2.2829132 2.2829285 3.565445 5.3792267 3.565445 8.607773l0 0c0 6.7230835 -5.4501343 12.173233 -12.173218 12.173233l0 0c-6.7230988 0 -12.173233 -5.4501495 -12.173233 -12.173233z" fill-rule="nonzero"></path><path stroke="#000000" stroke-width="1.0" stroke-linejoin="round" stroke-linecap="butt" d="m187.2231 220.28215l0 0c0 -6.7230835 5.4501343 -12.173233 12.173233 -12.173233l0 0c3.228531 0 6.3248444 1.282547 8.607773 3.5654602c2.2829132 2.2829285 3.565445 5.3792267 3.565445 8.607773l0 0c0 6.7230835 -5.4501343 12.173233 -12.173218 12.173233l0 0c-6.7230988 0 -12.173233 -5.4501495 -12.173233 -12.173233z" fill-rule="nonzero"></path><path fill="#ffffff" d="m115.043304 220.28215l0 0c0 -6.7230835 5.450142 -12.173233 12.173233 -12.173233l0 0c3.2285461 0 6.3248444 1.282547 8.607773 3.5654602c2.2829132 2.2829285 3.5654602 5.3792267 3.5654602 8.607773l0 0c0 6.7230835 -5.4501495 12.173233 -12.173233 12.173233l0 0c-6.723091 0 -12.173233 -5.4501495 -12.173233 -12.173233z" fill-rule="nonzero"></path><path stroke="#000000" stroke-width="1.0" stroke-linejoin="round" stroke-linecap="butt" d="m115.043304 220.28215l0 0c0 -6.7230835 5.450142 -12.173233 12.173233 -12.173233l0 0c3.2285461 0 6.3248444 1.282547 8.607773 3.5654602c2.2829132 2.2829285 3.5654602 5.3792267 3.5654602 8.607773l0 0c0 6.7230835 -5.4501495 12.173233 -12.173233 12.173233l0 0c-6.723091 0 -12.173233 -5.4501495 -12.173233 -12.173233z" fill-rule="nonzero"></path><path fill="#ffffff" d="m81.89895 220.28215l0 0c0 -6.7230835 5.450142 -12.173233 12.173233 -12.173233l0 0c3.2285385 0 6.3248444 1.282547 8.607773 3.5654602c2.2829208 2.2829285 3.5654526 5.3792267 3.5654526 8.607773l0 0c0 6.7230835 -5.450142 12.173233 -12.173225 12.173233l0 0c-6.723091 0 -12.173233 -5.4501495 -12.173233 -12.173233z" fill-rule="nonzero"></path><path stroke="#000000" stroke-width="1.0" stroke-linejoin="round" stroke-linecap="butt" d="m81.89895 220.28215l0 0c0 -6.7230835 5.450142 -12.173233 12.173233 -12.173233l0 0c3.2285385 0 6.3248444 1.282547 8.607773 3.5654602c2.2829208 2.2829285 3.5654526 5.3792267 3.5654526 8.607773l0 0c0 6.7230835 -5.450142 12.173233 -12.173225 12.173233l0 0c-6.723091 0 -12.173233 -5.4501495 -12.173233 -12.173233z" fill-rule="nonzero"></path><path fill="#000000" d="m340.11154 42.316273l0 0c0 -6.7230873 5.4501343 -12.173227 12.173248 -12.173227l0 0c3.2285156 0 6.324829 1.2825317 8.607758 3.5654545c2.2829285 2.2829247 3.5654602 5.3792305 3.5654602 8.607773l0 0c0 6.7230873 -5.4501343 12.173229 -12.173218 12.173229l0 0c-6.723114 0 -12.173248 -5.450142 -12.173248 -12.173229z" fill-rule="nonzero"></path><path stroke="#000000" stroke-width="1.0" stroke-linejoin="round" stroke-linecap="butt" d="m340.11154 42.316273l0 0c0 -6.7230873 5.4501343 -12.173227 12.173248 -12.173227l0 0c3.2285156 0 6.324829 1.2825317 8.607758 3.5654545c2.2829285 2.2829247 3.5654602 5.3792305 3.5654602 8.607773l0 0c0 6.7230873 -5.4501343 12.173229 -12.173218 12.173229l0 0c-6.723114 0 -12.173248 -5.450142 -12.173248 -12.173229z" fill-rule="nonzero"></path><path fill="#000000" fill-opacity="0.0" d="m358.63254 36.26378l53.228363 0l0 36.09449l-53.228363 0z" fill-rule="nonzero"></path><path fill="#000000" d="m371.46066 57.694405q0.40625 0.6875 0.546875 1.28125q0.15625 0.578125 0.3125 2.3125l0.515625 5.765625q0.703125 -0.84375 2.046875 -2.671875q0.640625 -0.890625 1.59375 -2.421875q0.5625 -0.9375 0.703125 -1.3125q0.0625 -0.1875 0.0625 -0.390625q0 -0.125 -0.078125 -0.203125q-0.078125 -0.078125 -0.4375 -0.1875q-0.34375 -0.125 -0.578125 -0.421875q-0.21875 -0.296875 -0.21875 -0.6875q0 -0.46875 0.28125 -0.765625q0.28125 -0.296875 0.703125 -0.296875q0.515625 0 0.875 0.4375q0.375 0.421875 0.375 1.171875q0 0.921875 -0.640625 2.109375q-0.625 1.1875 -2.4375 3.65625q-1.796875 2.453125 -4.375 5.375q-1.765625 2.0 -2.625 2.515625q-0.859375 0.53125 -1.46875 0.53125q-0.359375 0 -0.625 -0.28125q-0.28125 -0.28125 -0.28125 -0.640625q0 -0.453125 0.390625 -0.828125q0.375 -0.375 0.8125 -0.375q0.234375 0 0.390625 0.109375q0.09375 0.046875 0.203125 0.328125q0.109375 0.28125 0.203125 0.375q0.0625 0.046875 0.140625 0.046875q0.078125 0 0.25 -0.109375q0.640625 -0.40625 1.5 -1.265625q1.125 -1.15625 1.671875 -1.875l-0.65625 -7.4375q-0.171875 -1.84375 -0.5 -2.234375q-0.328125 -0.40625 -1.09375 -0.40625q-0.25 0 -0.890625 0.078125l-0.09375 -0.4375l3.421875 -0.84375z" fill-rule="nonzero"></path><path fill="#000000" d="m381.81613 70.225655l-1.03125 3.5625q1.453125 -2.1875 2.234375 -2.875q0.78125 -0.6875 1.5 -0.6875q0.390625 0 0.640625 0.265625q0.25 0.25 0.25 0.671875q0 0.46875 -0.21875 1.25l-0.953125 3.28125q-0.171875 0.578125 -0.171875 0.703125q0 0.109375 0.0625 0.1875q0.0625 0.0625 0.140625 0.0625q0.09375 0 0.21875 -0.09375q0.421875 -0.328125 0.90625 -1.0l0.25 0.140625q-0.734375 1.046875 -1.375 1.484375q-0.453125 0.3125 -0.8125 0.3125q-0.296875 0 -0.46875 -0.1875q-0.171875 -0.171875 -0.171875 -0.46875q0 -0.375 0.265625 -1.28125l0.90625 -3.140625q0.171875 -0.59375 0.171875 -0.921875q0 -0.15625 -0.109375 -0.25q-0.09375 -0.09375 -0.234375 -0.09375q-0.21875 0 -0.53125 0.1875q-0.578125 0.34375 -1.203125 1.15625q-0.625 0.8125 -1.3125 2.0625q-0.375 0.671875 -0.609375 1.453125l-0.390625 1.296875l-1.171875 0l1.421875 -4.890625q0.25 -0.890625 0.25 -1.0625q0 -0.171875 -0.140625 -0.296875q-0.140625 -0.140625 -0.34375 -0.140625q-0.09375 0 -0.328125 0.03125l-0.296875 0.046875l-0.046875 -0.28125l2.703125 -0.484375z" fill-rule="nonzero"></path><path fill="#000000" fill-opacity="0.0" d="m398.31497 17.069553l132.7244 0l0 36.09449l-132.7244 0z" fill-rule="nonzero"></path><path fill="#000000" d="m408.0806 38.92705q0 -1.296875 0.640625 -2.515625q0.640625 -1.21875 1.8125 -1.859375q1.171875 -0.640625 2.609375 -0.640625q2.25 0 3.671875 1.453125q1.421875 1.453125 1.421875 3.671875q0 2.234375 -1.4375 3.703125q-1.4375 1.46875 -3.625 1.46875q-1.359375 0 -2.59375 -0.609375q-1.21875 -0.609375 -1.859375 -1.796875q-0.640625 -1.1875 -0.640625 -2.875zm2.671875 0.140625q0 1.46875 0.6875 2.25q0.703125 0.765625 1.71875 0.765625q1.015625 0 1.703125 -0.765625q0.703125 -0.78125 0.703125 -2.265625q0 -1.453125 -0.703125 -2.234375q-0.6875 -0.78125 -1.703125 -0.78125q-1.015625 0 -1.71875 0.78125q-0.6875 0.78125 -0.6875 2.25zm15.802216 4.921875l0 -1.46875q-0.53125 0.78125 -1.40625 1.234375q-0.875 0.453125 -1.859375 0.453125q-0.984375 0 -1.78125 -0.4375q-0.78125 -0.4375 -1.140625 -1.21875q-0.34375 -0.796875 -0.34375 -2.1875l0 -6.234375l2.609375 0l0 4.53125q0 2.078125 0.140625 2.546875q0.140625 0.46875 0.515625 0.75q0.390625 0.265625 0.96875 0.265625q0.671875 0 1.203125 -0.359375q0.53125 -0.375 0.71875 -0.90625q0.1875 -0.546875 0.1875 -2.671875l0 -4.15625l2.609375 0l0 9.859375l-2.421875 0zm9.427246 -9.859375l0 2.078125l-1.78125 0l0 3.984375q0 1.203125 0.046875 1.40625q0.0625 0.1875 0.234375 0.328125q0.1875 0.125 0.453125 0.125q0.359375 0 1.046875 -0.25l0.21875 2.015625q-0.90625 0.390625 -2.0625 0.390625q-0.703125 0 -1.265625 -0.234375q-0.5625 -0.234375 -0.828125 -0.609375q-0.265625 -0.375 -0.375 -1.015625q-0.078125 -0.453125 -0.078125 -1.84375l0 -4.296875l-1.203125 0l0 -2.078125l1.203125 0l0 -1.953125l2.609375 -1.515625l0 3.46875l1.78125 0zm1.634552 0l2.421875 0l0 1.453125q0.46875 -0.734375 1.28125 -1.203125q0.8125 -0.46875 1.796875 -0.46875q1.703125 0 2.90625 1.34375q1.203125 1.34375 1.203125 3.75q0 2.46875 -1.21875 3.84375q-1.203125 1.359375 -2.921875 1.359375q-0.8125 0 -1.484375 -0.3125q-0.65625 -0.328125 -1.390625 -1.125l0 4.96875l-2.59375 0l0 -13.609375zm2.578125 4.765625q0 1.65625 0.65625 2.453125q0.65625 0.796875 1.59375 0.796875q0.921875 0 1.515625 -0.71875q0.609375 -0.734375 0.609375 -2.40625q0 -1.546875 -0.625 -2.296875q-0.625 -0.75 -1.53125 -0.75q-0.96875 0 -1.59375 0.734375q-0.625 0.734375 -0.625 2.1875zm15.364716 5.09375l0 -1.46875q-0.53125 0.78125 -1.40625 1.234375q-0.875 0.453125 -1.859375 0.453125q-0.984375 0 -1.78125 -0.4375q-0.78125 -0.4375 -1.140625 -1.21875q-0.34375 -0.796875 -0.34375 -2.1875l0 -6.234375l2.609375 0l0 4.53125q0 2.078125 0.140625 2.546875q0.140625 0.46875 0.515625 0.75q0.390625 0.265625 0.96875 0.265625q0.671875 0 1.203125 -0.359375q0.53125 -0.375 0.71875 -0.90625q0.1875 -0.546875 0.1875 -2.671875l0 -4.15625l2.609375 0l0 9.859375l-2.421875 0zm9.427246 -9.859375l0 2.078125l-1.78125 0l0 3.984375q0 1.203125 0.046875 1.40625q0.0625 0.1875 0.234375 0.328125q0.1875 0.125 0.453125 0.125q0.359375 0 1.046875 -0.25l0.21875 2.015625q-0.90625 0.390625 -2.0625 0.390625q-0.703125 0 -1.265625 -0.234375q-0.5625 -0.234375 -0.828125 -0.609375q-0.265625 -0.375 -0.375 -1.015625q-0.078125 -0.453125 -0.078125 -1.84375l0 -4.296875l-1.203125 0l0 -2.078125l1.203125 0l0 -1.953125l2.609375 -1.515625l0 3.46875l1.78125 0zm6.8803406 9.859375l0 -13.59375l2.609375 0l0 13.59375l-2.609375 0zm7.136444 -6.84375l-2.359375 -0.4375q0.390625 -1.421875 1.359375 -2.109375q0.984375 -0.6875 2.90625 -0.6875q1.734375 0 2.59375 0.421875q0.859375 0.40625 1.203125 1.046875q0.34375 0.625 0.34375 2.328125l-0.03125 3.046875q0 1.296875 0.125 1.921875q0.125 0.609375 0.46875 1.3125l-2.578125 0q-0.09375 -0.265625 -0.25 -0.765625q-0.0625 -0.234375 -0.09375 -0.3125q-0.65625 0.65625 -1.421875 0.984375q-0.765625 0.3125 -1.625 0.3125q-1.515625 0 -2.40625 -0.8125q-0.875 -0.828125 -0.875 -2.09375q0 -0.84375 0.390625 -1.484375q0.40625 -0.65625 1.125 -1.0q0.71875 -0.359375 2.078125 -0.625q1.828125 -0.328125 2.53125 -0.625l0 -0.265625q0 -0.75 -0.375 -1.0625q-0.359375 -0.328125 -1.390625 -0.328125q-0.703125 0 -1.09375 0.28125q-0.390625 0.265625 -0.625 0.953125zm3.484375 2.109375q-0.5 0.171875 -1.59375 0.40625q-1.078125 0.234375 -1.40625 0.453125q-0.515625 0.359375 -0.515625 0.921875q0 0.546875 0.40625 0.953125q0.40625 0.390625 1.046875 0.390625q0.703125 0 1.34375 -0.46875q0.46875 -0.359375 0.625 -0.859375q0.09375 -0.34375 0.09375 -1.28125l0 -0.515625zm3.703827 -5.125l2.78125 0l2.359375 7.0l2.296875 -7.0l2.703125 0l-3.484375 9.484375l-0.625 1.71875q-0.34375 0.859375 -0.65625 1.3125q-0.296875 0.46875 -0.703125 0.75q-0.40625 0.28125 -1.0 0.4375q-0.59375 0.15625 -1.328125 0.15625q-0.75 0 -1.46875 -0.15625l-0.234375 -2.046875q0.609375 0.125 1.09375 0.125q0.921875 0 1.34375 -0.53125q0.4375 -0.53125 0.671875 -1.359375l-3.75 -9.890625zm17.313232 6.71875l2.609375 0.4375q-0.5 1.4375 -1.59375 2.1875q-1.078125 0.734375 -2.703125 0.734375q-2.5625 0 -3.796875 -1.671875q-0.96875 -1.34375 -0.96875 -3.40625q0 -2.4375 1.265625 -3.828125q1.28125 -1.390625 3.25 -1.390625q2.1875 0 3.453125 1.453125q1.28125 1.453125 1.234375 4.453125l-6.53125 0q0.015625 1.15625 0.625 1.8125q0.609375 0.640625 1.5 0.640625q0.609375 0 1.03125 -0.328125q0.421875 -0.34375 0.625 -1.09375zm0.15625 -2.625q-0.03125 -1.140625 -0.59375 -1.71875q-0.546875 -0.59375 -1.34375 -0.59375q-0.859375 0 -1.40625 0.625q-0.5625 0.609375 -0.546875 1.6875l3.890625 0zm7.016327 5.765625l-2.609375 0l0 -9.859375l2.421875 0l0 1.40625q0.625 -0.984375 1.109375 -1.296875q0.5 -0.328125 1.140625 -0.328125q0.890625 0 1.71875 0.5l-0.8125 2.265625q-0.65625 -0.421875 -1.21875 -0.421875q-0.546875 0 -0.9375 0.296875q-0.375 0.296875 -0.59375 1.09375q-0.21875 0.78125 -0.21875 3.296875l0 3.046875z" fill-rule="nonzero"></path></g></svg>

