<?xml version="1.0" encoding="UTF-8" standalone="no"?>
<!-- Created with Inkscape (http://www.inkscape.org/) -->

<svg
   xmlns:dc="http://purl.org/dc/elements/1.1/"
   xmlns:cc="http://creativecommons.org/ns#"
   xmlns:rdf="http://www.w3.org/1999/02/22-rdf-syntax-ns#"
   xmlns:svg="http://www.w3.org/2000/svg"
   xmlns="http://www.w3.org/2000/svg"
   xmlns:sodipodi="http://sodipodi.sourceforge.net/DTD/sodipodi-0.dtd"
   xmlns:inkscape="http://www.inkscape.org/namespaces/inkscape"
   id="svg2"
   version="1.1"
   inkscape:version="0.48.4 r9939"
   width="630"
   height="450"
   xml:space="preserve"
   sodipodi:docname="inner_product_dist.pdf"><metadata
     id="metadata8"><rdf:RDF><cc:Work
         rdf:about=""><dc:format>image/svg+xml</dc:format><dc:type
           rdf:resource="http://purl.org/dc/dcmitype/StillImage" /><dc:title></dc:title></cc:Work></rdf:RDF></metadata><defs
     id="defs6"><clipPath
       clipPathUnits="userSpaceOnUse"
       id="clipPath20"><path
         d="m 63,45 390.6,0 0,279 L 63,324 63,45 z"
         id="path22" /></clipPath><clipPath
       clipPathUnits="userSpaceOnUse"
       id="clipPath30"><path
         d="m 63,45 390.6,0 0,279 L 63,324 63,45 z"
         id="path32" /></clipPath><clipPath
       clipPathUnits="userSpaceOnUse"
       id="clipPath40"><path
         d="m 63,45 390.6,0 0,279 L 63,324 63,45 z"
         id="path42" /></clipPath><clipPath
       clipPathUnits="userSpaceOnUse"
       id="clipPath64"><path
         d="m -1021,-416 2702,0 0,1583 -2702,0 0,-1583 z"
         id="path66" /></clipPath><clipPath
       clipPathUnits="userSpaceOnUse"
       id="clipPath86"><path
         d="m -1021,-416 2702,0 0,1583 -2702,0 0,-1583 z"
         id="path88" /></clipPath></defs><sodipodi:namedview
     pagecolor="#ffffff"
     bordercolor="#666666"
     borderopacity="1"
     objecttolerance="10"
     gridtolerance="10"
     guidetolerance="10"
     inkscape:pageopacity="0"
     inkscape:pageshadow="2"
     inkscape:window-width="640"
     inkscape:window-height="480"
     id="namedview4"
     showgrid="false"
     inkscape:zoom="0.52444444"
     inkscape:cx="315"
     inkscape:cy="225"
     inkscape:window-x="0"
     inkscape:window-y="56"
     inkscape:window-maximized="0"
     inkscape:current-layer="g10" /><g
     id="g10"
     inkscape:groupmode="layer"
     inkscape:label="inner_product_dist"
     transform="matrix(1.25,0,0,-1.25,0,450)"><path
       d="M 0,0 504,0 504,360 0,360 0,0 z"
       style="fill:#ffffff;fill-opacity:1;fill-rule:nonzero;stroke:none"
       id="path12" /><path
       d="m 63,45 390.6,0 0,279 L 63,324 63,45 z"
       style="fill:#ffffff;fill-opacity:1;fill-rule:nonzero;stroke:none"
       id="path14" /><g
       id="g16"><g
         id="g18"
         clip-path="url(#clipPath20)"><path
           d="m 63,45.4312 13.307014,0.401541 10.958717,0.550064 9.393187,0.700074 7.827652,0.796126 7.04489,0.92112 7.04489,1.150982 6.26213,1.244666 6.26212,1.47826 5.47936,1.502383 5.47936,1.710479 5.47936,1.92804 5.47936,2.151221 5.47935,2.375302 5.47936,2.594743 6.26213,3.219836 6.26212,3.464759 7.04489,4.140905 9.39319,5.792637 17.22084,10.6754 7.04489,4.057044 5.47936,2.905214 4.69659,2.266004 4.69659,2.02157 3.91383,1.47439 3.91383,1.26521 3.91383,1.04137 3.91383,0.8053 3.91382,0.55967 3.91383,0.30737 3.91383,0.0514 3.91383,-0.20524 3.91382,-0.45939 3.91383,-0.70804 3.91383,-0.94826 3.91383,-1.1773 3.91382,-1.39262 4.6966,-1.93271 4.69659,-2.188338 5.47936,-2.829914 6.26212,-3.52709 7.82766,-4.714586 27.39679,-16.831483 7.04489,-3.913242 6.26213,-3.219836 6.26212,-2.94768 5.47936,-2.343437 5.47936,-2.119163 5.47936,-1.896517 5.47936,-1.680092 6.26212,-1.66799 6.26212,-1.417703 6.26213,-1.189968 7.04489,-1.096839 7.04489,-0.874815 7.82765,-0.753448 8.61042,-0.613546 10.17596,-0.502262 12.52424,-0.383943 0.78277,-0.0176 0,0"
           style="fill:none;stroke:#000000;stroke-opacity:1;stroke-width:1;stroke-linecap:square;stroke-linejoin:round;stroke-miterlimit:10;stroke-dasharray:none"
           id="path24" /></g></g><g
       id="g26"><g
         id="g28"
         clip-path="url(#clipPath30)"><path
           d="m 63,45 90.01804,0.100099 9.39318,0.245303 6.26213,0.39423 4.69659,0.526219 3.91383,0.67174 3.13106,0.747054 3.13106,0.98759 2.3483,0.933515 2.34829,1.129215 2.3483,1.354636 2.3483,1.611482 2.34829,1.900858 2.3483,2.223076 2.3483,2.577479 2.34829,2.962243 2.3483,3.37423 2.3483,3.808841 2.34829,4.259923 2.3483,4.719736 2.3483,5.178983 2.34829,5.626912 3.13107,8.157157 3.13106,8.818999 3.91383,11.74521 12.52424,38.3913 3.13107,8.42961 2.34829,5.66268 2.3483,4.97383 1.56553,2.88321 1.56553,2.50587 1.56553,2.10527 1.56553,1.6849 1.56554,1.24856 1.56553,0.8003 1.56553,0.34437 0.78276,0 0.78277,-0.11488 1.56553,-0.57302 1.56553,-1.02566 1.56553,-1.46848 1.56553,-1.89733 1.56553,-2.30826 1.56553,-2.69766 1.56554,-3.06216 2.34829,-5.21516 2.3483,-5.86814 2.3483,-6.40785 3.13106,-9.17745 4.69659,-14.54493 7.04489,-21.79682 3.91383,-11.28909 3.13106,-8.332863 3.13106,-7.598425 2.3483,-5.178983 2.3483,-4.719736 2.34829,-4.259923 2.3483,-3.808841 2.3483,-3.37423 2.34829,-2.962243 2.3483,-2.577479 2.3483,-2.223076 2.34829,-1.900858 2.3483,-1.611482 2.3483,-1.354636 2.34829,-1.129215 3.13106,-1.206033 3.13107,-0.922272 3.13106,-0.695132 3.91383,-0.622574 4.69659,-0.485366 5.47936,-0.328971 7.82765,-0.22136 13.30702,-0.105953 48.53146,-0.01809 L 453.6,45 l 0,0"
           style="fill:none;stroke:#000000;stroke-opacity:1;stroke-width:1;stroke-linecap:square;stroke-linejoin:round;stroke-miterlimit:10;stroke-dasharray:none"
           id="path34" /></g></g><g
       id="g36"><g
         id="g38"
         clip-path="url(#clipPath40)"><path
           d="m 63,45 132.28737,0.100796 4.6966,0.208277 3.13106,0.312572 2.3483,0.402038 2.34829,0.625885 1.56553,0.590568 1.56554,0.772817 1.56553,1.000559 1.56553,1.281546 1.56553,1.623745 1.56553,2.034952 1.56553,2.522324 1.56553,3.091785 1.56553,3.747363 1.56553,4.490439 1.56553,5.318993 1.56554,6.226849 1.56553,7.203025 1.56553,8.231215 1.56553,9.289522 1.56553,10.35046 2.3483,17.43908 2.34829,19.48799 3.13107,28.32773 6.26212,57.71063 2.3483,18.95685 1.56553,10.96988 1.56553,9.29606 1.56553,7.37018 0.78277,2.89673 0.78276,2.34265 0.78277,1.77186 0.78276,1.18838 0.78277,0.59634 0.78276,0 0.78277,-0.59634 0.78276,-1.18838 0.78277,-1.77186 0.78276,-2.34265 0.78277,-2.89673 0.78277,-3.43032 1.56553,-8.36193 1.56553,-10.167 1.56553,-11.70061 2.3483,-19.76281 3.13106,-28.80207 4.69659,-43.5304 2.3483,-20.07702 2.34829,-18.16115 2.3483,-15.91555 1.56553,-9.289522 1.56553,-8.231215 1.56553,-7.203025 1.56554,-6.226849 1.56553,-5.318993 1.56553,-4.490439 1.56553,-3.747363 1.56553,-3.091785 1.56553,-2.522324 1.56553,-2.034952 1.56553,-1.623745 1.56553,-1.281546 1.56553,-1.000559 1.56554,-0.772817 2.34829,-0.829716 2.3483,-0.541451 3.13106,-0.428521 3.91383,-0.262021 6.26212,-0.141346 16.43808,-0.03679 L 453.6,45 l 0,0"
           style="fill:none;stroke:#000000;stroke-opacity:1;stroke-width:1;stroke-linecap:square;stroke-linejoin:round;stroke-miterlimit:10;stroke-dasharray:none"
           id="path44" /></g></g><g
       id="g46"><path
         d="m 63,45 0,4"
         style="fill:#000000;fill-opacity:1;fill-rule:nonzero;stroke:#000000;stroke-opacity:1;stroke-width:0.5;stroke-linecap:butt;stroke-linejoin:round;stroke-miterlimit:10;stroke-dasharray:none"
         id="path48" /><path
         d="m 63,324 0,-4"
         style="fill:#000000;fill-opacity:1;fill-rule:nonzero;stroke:#000000;stroke-opacity:1;stroke-width:0.5;stroke-linecap:butt;stroke-linejoin:round;stroke-miterlimit:10;stroke-dasharray:none"
         id="path50" /><g
         id="g52"
         transform="translate(51.71875,33.40625)"><text
           transform="matrix(1,0,0,-1,8.3789063,0)"
           id="text54"><tspan
             style="fill:#000000;fill-opacity:1;fill-rule:nonzero;stroke:none;font-family:DejaVu Sans;font-variant:normal;font-weight:normal;font-size:10;writing-mode:lr;-inkscape-font-specification:DejaVuSans"
             x="0 6.36 9.54"
             y="0"
             sodipodi:role="line"
             id="tspan56">1.0</tspan></text>
<g
           id="g58"
           transform="scale(0.01,0.01)"><g
             id="g60"><g
               id="g62"
               clip-path="url(#clipPath64)"><path
                 d="m 106,355 626,0 0,-83 -626,0 0,83"
                 style="fill:#000000;fill-opacity:1;fill-rule:nonzero;stroke:none"
                 id="path68" /></g></g></g></g><path
         d="m 160.65,45 0,4"
         style="fill:#000000;fill-opacity:1;fill-rule:nonzero;stroke:#000000;stroke-opacity:1;stroke-width:0.5;stroke-linecap:butt;stroke-linejoin:round;stroke-miterlimit:10;stroke-dasharray:none"
         id="path70" /><path
         d="m 160.65,324 0,-4"
         style="fill:#000000;fill-opacity:1;fill-rule:nonzero;stroke:#000000;stroke-opacity:1;stroke-width:0.5;stroke-linecap:butt;stroke-linejoin:round;stroke-miterlimit:10;stroke-dasharray:none"
         id="path72" /><g
         id="g74"
         transform="translate(149.47812,33.40625)"><text
           transform="matrix(1,0,0,-1,8.3789063,0)"
           id="text76"><tspan
             style="fill:#000000;fill-opacity:1;fill-rule:nonzero;stroke:none;font-family:DejaVu Sans;font-variant:normal;font-weight:normal;font-size:10;writing-mode:lr;-inkscape-font-specification:DejaVuSans"
             x="0 6.36 9.54"
             y="0"
             sodipodi:role="line"
             id="tspan78">0.5</tspan></text>
<g
           id="g80"
           transform="scale(0.01,0.01)"><g
             id="g82"><g
               id="g84"
               clip-path="url(#clipPath86)"><path
                 d="m 106,355 626,0 0,-83 -626,0 0,83"
                 style="fill:#000000;fill-opacity:1;fill-rule:nonzero;stroke:none"
                 id="path90" /></g></g></g></g><path
         d="m 258.3,45 0,4"
         style="fill:#000000;fill-opacity:1;fill-rule:nonzero;stroke:#000000;stroke-opacity:1;stroke-width:0.5;stroke-linecap:butt;stroke-linejoin:round;stroke-miterlimit:10;stroke-dasharray:none"
         id="path92" /><path
         d="m 258.3,324 0,-4"
         style="fill:#000000;fill-opacity:1;fill-rule:nonzero;stroke:#000000;stroke-opacity:1;stroke-width:0.5;stroke-linecap:butt;stroke-linejoin:round;stroke-miterlimit:10;stroke-dasharray:none"
         id="path94" /><text
         transform="matrix(1,0,0,-1,251.00312,33.40625)"
         id="text96"><tspan
           style="fill:#000000;fill-opacity:1;fill-rule:nonzero;stroke:none;font-family:DejaVu Sans;font-variant:normal;font-weight:normal;font-size:10;writing-mode:lr;-inkscape-font-specification:DejaVuSans"
           x="0 6.36 9.54"
           y="0"
           sodipodi:role="line"
           id="tspan98">0.0</tspan></text>
<path
         d="m 355.95,45 0,4"
         style="fill:#000000;fill-opacity:1;fill-rule:nonzero;stroke:#000000;stroke-opacity:1;stroke-width:0.5;stroke-linecap:butt;stroke-linejoin:round;stroke-miterlimit:10;stroke-dasharray:none"
         id="path100" /><path
         d="m 355.95,324 0,-4"
         style="fill:#000000;fill-opacity:1;fill-rule:nonzero;stroke:#000000;stroke-opacity:1;stroke-width:0.5;stroke-linecap:butt;stroke-linejoin:round;stroke-miterlimit:10;stroke-dasharray:none"
         id="path102" /><text
         transform="matrix(1,0,0,-1,348.7625,33.40625)"
         id="text104"><tspan
           style="fill:#000000;fill-opacity:1;fill-rule:nonzero;stroke:none;font-family:DejaVu Sans;font-variant:normal;font-weight:normal;font-size:10;writing-mode:lr;-inkscape-font-specification:DejaVuSans"
           x="0 6.36 9.54"
           y="0"
           sodipodi:role="line"
           id="tspan106">0.5</tspan></text>
<path
         d="m 453.6,45 0,4"
         style="fill:#000000;fill-opacity:1;fill-rule:nonzero;stroke:#000000;stroke-opacity:1;stroke-width:0.5;stroke-linecap:butt;stroke-linejoin:round;stroke-miterlimit:10;stroke-dasharray:none"
         id="path108" /><path
         d="m 453.6,324 0,-4"
         style="fill:#000000;fill-opacity:1;fill-rule:nonzero;stroke:#000000;stroke-opacity:1;stroke-width:0.5;stroke-linecap:butt;stroke-linejoin:round;stroke-miterlimit:10;stroke-dasharray:none"
         id="path110" /><text
         transform="matrix(1,0,0,-1,446.52187,33.40625)"
         id="text112"><tspan
           style="fill:#000000;fill-opacity:1;fill-rule:nonzero;stroke:none;font-family:DejaVu Sans;font-variant:normal;font-weight:normal;font-size:10;writing-mode:lr;-inkscape-font-specification:DejaVuSans"
           x="0 6.36 9.54"
           y="0"
           sodipodi:role="line"
           id="tspan114">1.0</tspan></text>
<path
         d="m 63,45 4,0"
         style="fill:#000000;fill-opacity:1;fill-rule:nonzero;stroke:#000000;stroke-opacity:1;stroke-width:0.5;stroke-linecap:butt;stroke-linejoin:round;stroke-miterlimit:10;stroke-dasharray:none"
         id="path116" /><path
         d="m 453.6,45 -4,0"
         style="fill:#000000;fill-opacity:1;fill-rule:nonzero;stroke:#000000;stroke-opacity:1;stroke-width:0.5;stroke-linecap:butt;stroke-linejoin:round;stroke-miterlimit:10;stroke-dasharray:none"
         id="path118" /><text
         transform="matrix(1,0,0,-1,53.953125,42.242187)"
         id="text120"><tspan
           style="fill:#000000;fill-opacity:1;fill-rule:nonzero;stroke:none;font-family:DejaVu Sans;font-variant:normal;font-weight:normal;font-size:10;writing-mode:lr;-inkscape-font-specification:DejaVuSans"
           x="0"
           y="0"
           id="tspan122">0</tspan></text>
<path
         d="m 63,108.91636 4,0"
         style="fill:#000000;fill-opacity:1;fill-rule:nonzero;stroke:#000000;stroke-opacity:1;stroke-width:0.5;stroke-linecap:butt;stroke-linejoin:round;stroke-miterlimit:10;stroke-dasharray:none"
         id="path124" /><path
         d="m 453.6,108.91636 -4,0"
         style="fill:#000000;fill-opacity:1;fill-rule:nonzero;stroke:#000000;stroke-opacity:1;stroke-width:0.5;stroke-linecap:butt;stroke-linejoin:round;stroke-miterlimit:10;stroke-dasharray:none"
         id="path126" /><text
         transform="matrix(1,0,0,-1,38.453125,106.15855)"
         id="text128"><tspan
           style="fill:#000000;fill-opacity:1;fill-rule:nonzero;stroke:none;font-family:DejaVu Sans;font-variant:normal;font-weight:normal;font-size:10;writing-mode:lr;-inkscape-font-specification:DejaVuSans"
           x="0 6.36 9.54 15.9"
           y="0"
           sodipodi:role="line"
           id="tspan130">1.26</tspan></text>
<path
         d="m 63,188.05091 4,0"
         style="fill:#000000;fill-opacity:1;fill-rule:nonzero;stroke:#000000;stroke-opacity:1;stroke-width:0.5;stroke-linecap:butt;stroke-linejoin:round;stroke-miterlimit:10;stroke-dasharray:none"
         id="path132" /><path
         d="m 453.6,188.05091 -4,0"
         style="fill:#000000;fill-opacity:1;fill-rule:nonzero;stroke:#000000;stroke-opacity:1;stroke-width:0.5;stroke-linecap:butt;stroke-linejoin:round;stroke-miterlimit:10;stroke-dasharray:none"
         id="path134" /><text
         transform="matrix(1,0,0,-1,38.46875,185.2931)"
         id="text136"><tspan
           style="fill:#000000;fill-opacity:1;fill-rule:nonzero;stroke:none;font-family:DejaVu Sans;font-variant:normal;font-weight:normal;font-size:10;writing-mode:lr;-inkscape-font-specification:DejaVuSans"
           x="0 6.36 9.54 15.9"
           y="0"
           sodipodi:role="line"
           id="tspan138">2.82</tspan></text>
<path
         d="m 63,292.54909 4,0"
         style="fill:#000000;fill-opacity:1;fill-rule:nonzero;stroke:#000000;stroke-opacity:1;stroke-width:0.5;stroke-linecap:butt;stroke-linejoin:round;stroke-miterlimit:10;stroke-dasharray:none"
         id="path140" /><path
         d="m 453.6,292.54909 -4,0"
         style="fill:#000000;fill-opacity:1;fill-rule:nonzero;stroke:#000000;stroke-opacity:1;stroke-width:0.5;stroke-linecap:butt;stroke-linejoin:round;stroke-miterlimit:10;stroke-dasharray:none"
         id="path142" /><text
         transform="matrix(1,0,0,-1,37.890625,289.79128)"
         id="text144"><tspan
           style="fill:#000000;fill-opacity:1;fill-rule:nonzero;stroke:none;font-family:DejaVu Sans;font-variant:normal;font-weight:normal;font-size:10;writing-mode:lr;-inkscape-font-specification:DejaVuSans"
           x="0 6.36 9.54 15.9"
           y="0"
           sodipodi:role="line"
           id="tspan146">4.88</tspan></text>
<text
         transform="matrix(0,1,1,0,30.8125,127.75)"
         id="text148"><tspan
           style="fill:#000000;fill-opacity:1;fill-rule:nonzero;stroke:none;font-family:DejaVu Sans;font-variant:normal;font-weight:normal;font-size:10;writing-mode:lr;-inkscape-font-specification:DejaVuSans"
           x="0 2.95 9.29 15.63 21.78 25.89 29.07 35.1 39.21 45.33 51.68 58.02 63.52 67.44 70.62 78.32 81.1 86.31 90.23 96.36 102.7 108.2"
           y="0"
           sodipodi:role="line"
           id="tspan150">Inner Product Distance</tspan></text>
<path
         d="m 453.6,45 0,279"
         style="fill:none;stroke:#000000;stroke-opacity:1;stroke-width:1;stroke-linecap:butt;stroke-linejoin:round;stroke-miterlimit:10;stroke-dasharray:none"
         id="path152" /><path
         d="m 63,45 0,279"
         style="fill:none;stroke:#000000;stroke-opacity:1;stroke-width:1;stroke-linecap:butt;stroke-linejoin:round;stroke-miterlimit:10;stroke-dasharray:none"
         id="path154" /><path
         d="m 63,324 390.6,0"
         style="fill:none;stroke:#000000;stroke-opacity:1;stroke-width:1;stroke-linecap:butt;stroke-linejoin:round;stroke-miterlimit:10;stroke-dasharray:none"
         id="path156" /><path
         d="m 63,45 390.6,0"
         style="fill:none;stroke:#000000;stroke-opacity:1;stroke-width:1;stroke-linecap:butt;stroke-linejoin:round;stroke-miterlimit:10;stroke-dasharray:none"
         id="path158" /><text
         transform="matrix(1,0,0,-1,355.95,70.363636)"
         id="text160"><tspan
           style="fill:#000000;fill-opacity:1;fill-rule:nonzero;stroke:none;font-family:DejaVu Sans;font-variant:normal;font-weight:normal;font-size:10;writing-mode:lr;-inkscape-font-specification:DejaVuSans"
           x="0 6.35 9.53 17.91 21.09 27.45"
           y="0"
           sodipodi:role="line"
           id="tspan162">d = 10</tspan></text>
<text
         transform="matrix(1,0,0,-1,297.36,121.09091)"
         id="text164"><tspan
           style="fill:#000000;fill-opacity:1;fill-rule:nonzero;stroke:none;font-family:DejaVu Sans;font-variant:normal;font-weight:normal;font-size:10;writing-mode:lr;-inkscape-font-specification:DejaVuSans"
           x="0 6.35 9.53 17.91 21.09 27.45"
           y="0"
           sodipodi:role="line"
           id="tspan166">d = 50</tspan></text>
<text
         transform="matrix(1,0,0,-1,277.83,222.54545)"
         id="text168"><tspan
           style="fill:#000000;fill-opacity:1;fill-rule:nonzero;stroke:none;font-family:DejaVu Sans;font-variant:normal;font-weight:normal;font-size:10;writing-mode:lr;-inkscape-font-specification:DejaVuSans"
           x="0 6.35 9.53 17.91 21.09 27.45 33.81"
           y="0"
           sodipodi:role="line"
           id="tspan170">d = 150</tspan></text>
</g></g></svg>