<?xml version="1.0" standalone="yes"?>

<svg version="1.1" viewBox="0.0 0.0 495.73228346456693 299.45669291338584" fill="none" stroke="none" stroke-linecap="square" stroke-miterlimit="10" xmlns="http://www.w3.org/2000/svg" xmlns:xlink="http://www.w3.org/1999/xlink"><clipPath id="p.0"><path d="m0 0l495.73227 0l0 299.4567l-495.73227 0l0 -299.4567z" clip-rule="nonzero"></path></clipPath><g clip-path="url(#p.0)"><path fill="#000000" fill-opacity="0.0" d="m0 0l495.73227 0l0 299.4567l-495.73227 0z" fill-rule="nonzero"></path><path fill="#000000" fill-opacity="0.0" d="m63.452755 72.24016l0 0c0 -8.723492 7.071789 -15.795277 15.795277 -15.795277l204.56694 0c4.1891785 0 8.206757 1.6641426 11.168945 4.6263313c2.9621887 2.9621887 4.6263123 6.9797745 4.6263123 11.168945l0 0l0 0c0 8.723488 -7.0717773 15.795273 -15.795258 15.795273l-204.56694 0l0 0c-8.723488 0 -15.795277 -7.071785 -15.795277 -15.795273z" fill-rule="nonzero"></path><path stroke="#000000" stroke-width="1.0" stroke-linejoin="round" stroke-linecap="butt" d="m63.452755 72.24016l0 0c0 -8.723492 7.071789 -15.795277 15.795277 -15.795277l204.56694 0c4.1891785 0 8.206757 1.6641426 11.168945 4.6263313c2.9621887 2.9621887 4.6263123 6.9797745 4.6263123 11.168945l0 0l0 0c0 8.723488 -7.0717773 15.795273 -15.795258 15.795273l-204.56694 0l0 0c-8.723488 0 -15.795277 -7.071785 -15.795277 -15.795273z" fill-rule="nonzero"></path><path fill="#000000" fill-opacity="0.0" d="m280.76904 60.06693l60.91336 176.15749" fill-rule="nonzero"></path><path stroke="#000000" stroke-width="1.0" stroke-linejoin="round" stroke-linecap="butt" d="m280.76904 60.06693l60.91336 176.15749" fill-rule="nonzero"></path><path fill="#000000" fill-opacity="0.0" d="m249.00673 63.632385l-233.54332 178.04724" fill-rule="nonzero"></path><path stroke="#000000" stroke-width="1.0" stroke-linejoin="round" stroke-linecap="butt" d="m249.00673 63.632385l-233.54332 178.04724" fill-rule="nonzero"></path><path fill="#000000" fill-opacity="0.0" d="m249.00673 63.632385l-200.37796 178.04724" fill-rule="nonzero"></path><path stroke="#000000" stroke-width="1.0" stroke-linejoin="round" stroke-linecap="butt" d="m249.00673 63.632385l-200.37796 178.04724" fill-rule="nonzero"></path><path fill="#000000" fill-opacity="0.0" d="m240.39896 60.06693l-66.80316 181.60631" fill-rule="nonzero"></path><path stroke="#000000" stroke-width="1.0" stroke-linejoin="round" stroke-linecap="butt" d="m240.39896 60.06693l-66.80316 181.60631" fill-rule="nonzero"></path><path fill="#000000" fill-opacity="0.0" d="m240.39896 60.06693l-24.37796 185.19685" fill-rule="nonzero"></path><path stroke="#000000" stroke-width="1.0" stroke-linejoin="round" stroke-linecap="butt" d="m240.39896 60.06693l-24.37796 185.19685" fill-rule="nonzero"></path><path fill="#000000" fill-opacity="0.0" d="m240.39896 60.06693l9.448807 185.19685" fill-rule="nonzero"></path><path stroke="#000000" stroke-width="1.0" stroke-linejoin="round" stroke-linecap="butt" d="m240.39896 60.06693l9.448807 185.19685" fill-rule="nonzero"></path><path fill="#000000" fill-opacity="0.0" d="m240.39896 60.06693l108.50394 181.60631" fill-rule="nonzero"></path><path stroke="#000000" stroke-width="1.0" stroke-linejoin="round" stroke-linecap="butt" d="m240.39896 60.06693l108.50394 181.60631" fill-rule="nonzero"></path><path fill="#000000" fill-opacity="0.0" d="m115.43832 60.06693l75.37008 181.60631" fill-rule="nonzero"></path><path stroke="#000000" stroke-width="1.0" stroke-linejoin="round" stroke-linecap="butt" d="m115.43832 60.06693l75.37008 181.60631" fill-rule="nonzero"></path><path fill="#000000" fill-opacity="0.0" d="m115.43832 60.06693l-91.33858 185.19685" fill-rule="nonzero"></path><path stroke="#000000" stroke-width="1.0" stroke-linejoin="round" stroke-linecap="butt" d="m115.43832 60.06693l-91.33858 185.19685" fill-rule="nonzero"></path><path fill="#000000" fill-opacity="0.0" d="m115.43832 60.06693l-58.20472 185.19685" fill-rule="nonzero"></path><path stroke="#000000" stroke-width="1.0" stroke-linejoin="round" stroke-linecap="butt" d="m115.43832 60.06693l-58.20472 185.19685" fill-rule="nonzero"></path><path fill="#000000" fill-opacity="0.0" d="m115.43832 60.06693l109.19686 181.60631" fill-rule="nonzero"></path><path stroke="#000000" stroke-width="1.0" stroke-linejoin="round" stroke-linecap="butt" d="m115.43832 60.06693l109.19686 181.60631" fill-rule="nonzero"></path><path fill="#000000" fill-opacity="0.0" d="m115.43832 60.06693l146.58267 173.00787" fill-rule="nonzero"></path><path stroke="#000000" stroke-width="1.0" stroke-linejoin="round" stroke-linecap="butt" d="m115.43832 60.06693l146.58267 173.00787" fill-rule="nonzero"></path><path fill="#000000" fill-opacity="0.0" d="m73.68619 63.632385l275.21262 178.04724" fill-rule="nonzero"></path><path stroke="#000000" stroke-width="1.0" stroke-linejoin="round" stroke-linecap="butt" d="m73.68619 63.632385l275.21262 178.04724" fill-rule="nonzero"></path><path fill="#000000" fill-opacity="0.0" d="m73.68619 63.632385l117.10237 178.04724" fill-rule="nonzero"></path><path stroke="#000000" stroke-width="1.0" stroke-linejoin="round" stroke-linecap="butt" d="m73.68619 63.632385l117.10237 178.04724" fill-rule="nonzero"></path><path fill="#000000" fill-opacity="0.0" d="m73.68619 63.632385l150.96063 178.04724" fill-rule="nonzero"></path><path stroke="#000000" stroke-width="1.0" stroke-linejoin="round" stroke-linecap="butt" d="m73.68619 63.632385l150.96063 178.04724" fill-rule="nonzero"></path><path fill="#000000" fill-opacity="0.0" d="m73.68619 63.632385l188.34647 169.44882" fill-rule="nonzero"></path><path stroke="#000000" stroke-width="1.0" stroke-linejoin="round" stroke-linecap="butt" d="m73.68619 63.632385l188.34647 169.44882" fill-rule="nonzero"></path><path fill="#000000" fill-opacity="0.0" d="m82.29396 60.06693l-25.070866 185.19685" fill-rule="nonzero"></path><path stroke="#000000" stroke-width="1.0" stroke-linejoin="round" stroke-linecap="butt" d="m82.29396 60.06693l-25.070866 185.19685" fill-rule="nonzero"></path><path fill="#000000" fill-opacity="0.0" d="m82.29396 60.06693l-58.20472 185.19685" fill-rule="nonzero"></path><path stroke="#000000" stroke-width="1.0" stroke-linejoin="round" stroke-linecap="butt" d="m82.29396 60.06693l-58.20472 185.19685" fill-rule="nonzero"></path><path fill="#000000" d="m11.912073 233.08005l0 0c0 -6.7230835 5.45014 -12.173218 12.173227 -12.173218l0 0c3.2285423 0 6.32485 1.2825317 8.607773 3.565445c2.2829247 2.2829285 3.5654564 5.379242 3.5654564 8.607773l0 0c0 6.7230988 -5.45014 12.173233 -12.173229 12.173233l0 0c-6.7230873 0 -12.173227 -5.4501343 -12.173227 -12.173233z" fill-rule="nonzero"></path><path fill="#000000" d="m328.12204 233.08005l0 0c0 -6.7230835 5.4501343 -12.173218 12.173248 -12.173218l0 0c3.2285156 0 6.324829 1.2825317 8.607758 3.565445c2.2829285 2.2829285 3.5654602 5.379242 3.5654602 8.607773l0 0c0 6.7230988 -5.4501343 12.173233 -12.173218 12.173233l0 0c-6.723114 0 -12.173248 -5.4501343 -12.173248 -12.173233z" fill-rule="nonzero"></path><path fill="#000000" d="m203.8517 233.08005l0 0c0 -6.7230835 5.4501495 -12.173218 12.173233 -12.173218l0 0c3.2285461 0 6.3248444 1.2825317 8.607773 3.565445c2.2829285 2.2829285 3.5654602 5.379242 3.5654602 8.607773l0 0c0 6.7230988 -5.4501495 12.173233 -12.173233 12.173233l0 0c-6.7230835 0 -12.173233 -5.4501343 -12.173233 -12.173233z" fill-rule="nonzero"></path><path fill="#ffffff" d="m237.68636 233.08005l0 0c0 -6.7230835 5.4501343 -12.173218 12.173218 -12.173218l0 0c3.2285461 0 6.3248444 1.2825317 8.607773 3.565445c2.2829285 2.2829285 3.5654602 5.379242 3.5654602 8.607773l0 0c0 6.7230988 -5.4501343 12.173233 -12.173233 12.173233l0 0c-6.7230835 0 -12.173218 -5.4501343 -12.173218 -12.173233z" fill-rule="nonzero"></path><path stroke="#000000" stroke-width="1.0" stroke-linejoin="round" stroke-linecap="butt" d="m237.68636 233.08005l0 0c0 -6.7230835 5.4501343 -12.173218 12.173218 -12.173218l0 0c3.2285461 0 6.3248444 1.2825317 8.607773 3.565445c2.2829285 2.2829285 3.5654602 5.379242 3.5654602 8.607773l0 0c0 6.7230988 -5.4501343 12.173233 -12.173233 12.173233l0 0c-6.7230835 0 -12.173218 -5.4501343 -12.173218 -12.173233z" fill-rule="nonzero"></path><path fill="#000000" fill-opacity="0.0" d="m85.426506 217.28477l68.56693 0l0 31.590546l-68.56693 0z" fill-rule="nonzero"></path><path fill="#000000" d="m111.89552 233.91533l0 -2.40625l2.390625 0l0 2.40625l-2.390625 0zm6.667961 0l0 -2.40625l2.390625 0l0 2.40625l-2.390625 0zm6.6679688 0l0 -2.40625l2.390625 0l0 2.40625l-2.390625 0z" fill-rule="nonzero"></path><path fill="#000000" fill-opacity="0.0" d="m275.82285 217.28477l54.771637 0l0 31.590546l-54.771637 0z" fill-rule="nonzero"></path><path fill="#000000" d="m295.3942 233.91533l0 -2.40625l2.390625 0l0 2.40625l-2.390625 0zm6.6679688 0l0 -2.40625l2.390625 0l0 2.40625l-2.390625 0zm6.6679688 0l0 -2.40625l2.390625 0l0 2.40625l-2.390625 0z" fill-rule="nonzero"></path><path fill="#ffffff" d="m70.120735 72.24016l0 0c0 -6.723091 5.450142 -12.173229 12.173225 -12.173229l0 0c3.2285461 0 6.324852 1.2825317 8.607773 3.5654564c2.2829208 2.2829208 3.5654602 5.3792343 3.5654602 8.607773l0 0c0 6.7230835 -5.450142 12.173225 -12.173233 12.173225l0 0c-6.7230835 0 -12.173225 -5.450142 -12.173225 -12.173225z" fill-rule="nonzero"></path><path stroke="#000000" stroke-width="1.0" stroke-linejoin="round" stroke-linecap="butt" d="m70.120735 72.24016l0 0c0 -6.723091 5.450142 -12.173229 12.173225 -12.173229l0 0c3.2285461 0 6.324852 1.2825317 8.607773 3.5654564c2.2829208 2.2829208 3.5654602 5.3792343 3.5654602 8.607773l0 0c0 6.7230835 -5.450142 12.173225 -12.173233 12.173225l0 0c-6.7230835 0 -12.173225 -5.450142 -12.173225 -12.173225z" fill-rule="nonzero"></path><path fill="#ffffff" d="m103.26509 72.24016l0 0c0 -6.723091 5.450142 -12.173229 12.173225 -12.173229l0 0c3.2285461 0 6.324852 1.2825317 8.607773 3.5654564c2.2829285 2.2829208 3.5654602 5.3792343 3.5654602 8.607773l0 0c0 6.7230835 -5.450142 12.173225 -12.173233 12.173225l0 0c-6.7230835 0 -12.173225 -5.450142 -12.173225 -12.173225z" fill-rule="nonzero"></path><path stroke="#000000" stroke-width="1.0" stroke-linejoin="round" stroke-linecap="butt" d="m103.26509 72.24016l0 0c0 -6.723091 5.450142 -12.173229 12.173225 -12.173229l0 0c3.2285461 0 6.324852 1.2825317 8.607773 3.5654564c2.2829285 2.2829208 3.5654602 5.3792343 3.5654602 8.607773l0 0c0 6.7230835 -5.450142 12.173225 -12.173233 12.173225l0 0c-6.7230835 0 -12.173225 -5.450142 -12.173225 -12.173225z" fill-rule="nonzero"></path><path fill="#ffffff" d="m228.22572 72.24016l0 0c0 -6.723091 5.4501343 -12.173229 12.173233 -12.173229l0 0c3.228531 0 6.3248444 1.2825317 8.607773 3.5654564c2.2829132 2.2829208 3.565445 5.3792343 3.565445 8.607773l0 0c0 6.7230835 -5.4501343 12.173225 -12.173218 12.173225l0 0c-6.7230988 0 -12.173233 -5.450142 -12.173233 -12.173225z" fill-rule="nonzero"></path><path stroke="#000000" stroke-width="1.0" stroke-linejoin="round" stroke-linecap="butt" d="m228.22572 72.24016l0 0c0 -6.723091 5.4501343 -12.173229 12.173233 -12.173229l0 0c3.228531 0 6.3248444 1.2825317 8.607773 3.5654564c2.2829132 2.2829208 3.565445 5.3792343 3.565445 8.607773l0 0c0 6.7230835 -5.4501343 12.173225 -12.173218 12.173225l0 0c-6.7230988 0 -12.173233 -5.450142 -12.173233 -12.173225z" fill-rule="nonzero"></path><path fill="#000000" fill-opacity="0.0" d="m143.63518 56.44488l68.566925 0l0 31.59055l-68.566925 0z" fill-rule="nonzero"></path><path fill="#000000" d="m170.10419 73.07543l0 -2.40625l2.390625 0l0 2.40625l-2.390625 0zm6.6679688 0l0 -2.40625l2.390625 0l0 2.40625l-2.390625 0zm6.6679688 0l0 -2.40625l2.390625 0l0 2.40625l-2.390625 0z" fill-rule="nonzero"></path><path fill="#000000" fill-opacity="0.0" d="m357.41077 212.77296l115.77951 0l0 36.094498l-115.77951 0z" fill-rule="nonzero"></path><path fill="#000000" d="m367.70764 239.69296l0 -13.59375l2.75 0l0 13.59375l-2.75 0zm14.214539 0l-2.609375 0l0 -5.03125q0 -1.59375 -0.171875 -2.0625q-0.15625 -0.46875 -0.53125 -0.71875q-0.375 -0.265625 -0.90625 -0.265625q-0.6875 0 -1.234375 0.375q-0.53125 0.359375 -0.734375 0.984375q-0.1875 0.609375 -0.1875 2.25l0 4.46875l-2.609375 0l0 -9.859375l2.421875 0l0 1.453125q1.296875 -1.671875 3.25 -1.671875q0.859375 0 1.578125 0.3125q0.71875 0.3125 1.078125 0.796875q0.359375 0.484375 0.5 1.09375q0.15625 0.609375 0.15625 1.75l0 6.125zm2.364746 -9.859375l2.421875 0l0 1.453125q0.46875 -0.734375 1.28125 -1.203125q0.8125 -0.46875 1.796875 -0.46875q1.703125 0 2.90625 1.34375q1.203125 1.34375 1.203125 3.75q0 2.46875 -1.21875 3.84375q-1.203125 1.359375 -2.921875 1.359375q-0.8125 0 -1.484375 -0.3125q-0.65625 -0.328125 -1.390625 -1.125l0 4.96875l-2.59375 0l0 -13.609375zm2.578125 4.765625q0 1.65625 0.65625 2.453125q0.65625 0.796875 1.59375 0.796875q0.921875 0 1.515625 -0.71875q0.609375 -0.734375 0.609375 -2.40625q0 -1.546875 -0.625 -2.296875q-0.625 -0.75 -1.53125 -0.75q-0.96875 0 -1.59375 0.734375q-0.625 0.734375 -0.625 2.1875zm15.364716 5.09375l0 -1.46875q-0.53125 0.78125 -1.40625 1.234375q-0.875 0.453125 -1.859375 0.453125q-0.984375 0 -1.78125 -0.4375q-0.78125 -0.4375 -1.140625 -1.21875q-0.34375 -0.796875 -0.34375 -2.1875l0 -6.234375l2.609375 0l0 4.53125q0 2.078125 0.140625 2.546875q0.140625 0.46875 0.515625 0.75q0.390625 0.265625 0.96875 0.265625q0.671875 0 1.203125 -0.359375q0.53125 -0.375 0.71875 -0.90625q0.1875 -0.546875 0.1875 -2.671875l0 -4.15625l2.609375 0l0 9.859375l-2.421875 0zm9.427246 -9.859375l0 2.078125l-1.78125 0l0 3.984375q0 1.203125 0.046875 1.40625q0.0625 0.1875 0.234375 0.328125q0.1875 0.125 0.453125 0.125q0.359375 0 1.046875 -0.25l0.21875 2.015625q-0.90625 0.390625 -2.0625 0.390625q-0.703125 0 -1.265625 -0.234375q-0.5625 -0.234375 -0.828125 -0.609375q-0.265625 -0.375 -0.375 -1.015625q-0.078125 -0.453125 -0.078125 -1.84375l0 -4.296875l-1.203125 0l0 -2.078125l1.203125 0l0 -1.953125l2.609375 -1.515625l0 3.46875l1.78125 0zm13.364716 9.859375l0 -1.46875q-0.53125 0.78125 -1.40625 1.234375q-0.875 0.453125 -1.859375 0.453125q-0.984375 0 -1.78125 -0.4375q-0.78125 -0.4375 -1.140625 -1.21875q-0.34375 -0.796875 -0.34375 -2.1875l0 -6.234375l2.609375 0l0 4.53125q0 2.078125 0.140625 2.546875q0.140625 0.46875 0.515625 0.75q0.390625 0.265625 0.96875 0.265625q0.671875 0 1.203125 -0.359375q0.53125 -0.375 0.71875 -0.90625q0.1875 -0.546875 0.1875 -2.671875l0 -4.15625l2.609375 0l0 9.859375l-2.421875 0zm13.880371 0l-2.609375 0l0 -5.03125q0 -1.59375 -0.171875 -2.0625q-0.15625 -0.46875 -0.53125 -0.71875q-0.375 -0.265625 -0.90625 -0.265625q-0.6875 0 -1.234375 0.375q-0.53125 0.359375 -0.734375 0.984375q-0.1875 0.609375 -0.1875 2.25l0 4.46875l-2.609375 0l0 -9.859375l2.421875 0l0 1.453125q1.296875 -1.671875 3.25 -1.671875q0.859375 0 1.578125 0.3125q0.71875 0.3125 1.078125 0.796875q0.359375 0.484375 0.5 1.09375q0.15625 0.609375 0.15625 1.75l0 6.125zm2.4272156 -11.1875l0 -2.40625l2.609375 0l0 2.40625l-2.609375 0zm0 11.1875l0 -9.859375l2.609375 0l0 9.859375l-2.609375 0zm9.698944 -9.859375l0 2.078125l-1.78125 0l0 3.984375q0 1.203125 0.046875 1.40625q0.0625 0.1875 0.234375 0.328125q0.1875 0.125 0.453125 0.125q0.359375 0 1.046875 -0.25l0.21875 2.015625q-0.90625 0.390625 -2.0625 0.390625q-0.703125 0 -1.265625 -0.234375q-0.5625 -0.234375 -0.828125 -0.609375q-0.265625 -0.375 -0.375 -1.015625q-0.078125 -0.453125 -0.078125 -1.84375l0 -4.296875l-1.203125 0l0 -2.078125l1.203125 0l0 -1.953125l2.609375 -1.515625l0 3.46875l1.78125 0zm0.790802 7.046875l2.609375 -0.390625q0.171875 0.75 0.671875 1.15625q0.515625 0.390625 1.4375 0.390625q1.0 0 1.515625 -0.375q0.34375 -0.265625 0.34375 -0.703125q0 -0.296875 -0.1875 -0.484375q-0.1875 -0.1875 -0.875 -0.34375q-3.140625 -0.703125 -4.0 -1.265625q-1.15625 -0.796875 -1.15625 -2.21875q0 -1.28125 1.0 -2.15625q1.015625 -0.875 3.140625 -0.875q2.03125 0 3.0 0.65625q0.984375 0.65625 1.359375 1.953125l-2.453125 0.453125q-0.15625 -0.578125 -0.609375 -0.875q-0.4375 -0.3125 -1.25 -0.3125q-1.03125 0 -1.46875 0.296875q-0.296875 0.203125 -0.296875 0.515625q0 0.28125 0.25 0.484375q0.359375 0.25 2.4375 0.734375q2.078125 0.46875 2.90625 1.15625q0.828125 0.6875 0.828125 1.9375q0 1.359375 -1.140625 2.328125q-1.125 0.96875 -3.34375 0.96875q-2.015625 0 -3.1875 -0.8125q-1.171875 -0.8125 -1.53125 -2.21875z" fill-rule="nonzero"></path><path fill="#000000" fill-opacity="0.0" d="m357.41077 54.192913l132.7244 0l0 36.094486l-132.7244 0z" fill-rule="nonzero"></path><path fill="#000000" d="m370.37952 67.519165l0 5.0q1.25 -1.484375 3.015625 -1.484375q0.890625 0 1.609375 0.34375q0.734375 0.328125 1.09375 0.84375q0.375 0.515625 0.5 1.15625q0.140625 0.625 0.140625 1.953125l0 5.78125l-2.609375 0l0 -5.203125q0 -1.546875 -0.15625 -1.96875q-0.140625 -0.421875 -0.515625 -0.65625q-0.375 -0.25 -0.9375 -0.25q-0.65625 0 -1.171875 0.3125q-0.5 0.3125 -0.734375 0.953125q-0.234375 0.640625 -0.234375 1.875l0 4.9375l-2.609375 0l0 -13.59375l2.609375 0zm8.786591 2.40625l0 -2.40625l2.609375 0l0 2.40625l-2.609375 0zm0 11.1875l0 -9.859375l2.609375 0l0 9.859375l-2.609375 0zm14.230194 0l-2.421875 0l0 -1.453125q-0.609375 0.84375 -1.4375 1.265625q-0.8125 0.40625 -1.640625 0.40625q-1.703125 0 -2.921875 -1.359375q-1.203125 -1.375 -1.203125 -3.828125q0 -2.5 1.171875 -3.796875q1.1875 -1.3125 2.984375 -1.3125q1.65625 0 2.859375 1.375l0 -4.890625l2.609375 0l0 13.59375zm-6.96875 -5.140625q0 1.578125 0.4375 2.28125q0.640625 1.015625 1.765625 1.015625q0.90625 0 1.53125 -0.765625q0.625 -0.765625 0.625 -2.28125q0 -1.703125 -0.609375 -2.4375q-0.609375 -0.75 -1.5625 -0.75q-0.9375 0 -1.5625 0.734375q-0.625 0.734375 -0.625 2.203125zm18.364716 5.140625l-2.421875 0l0 -1.453125q-0.609375 0.84375 -1.4375 1.265625q-0.8125 0.40625 -1.640625 0.40625q-1.703125 0 -2.921875 -1.359375q-1.203125 -1.375 -1.203125 -3.828125q0 -2.5 1.171875 -3.796875q1.1875 -1.3125 2.984375 -1.3125q1.65625 0 2.859375 1.375l0 -4.890625l2.609375 0l0 13.59375zm-6.96875 -5.140625q0 1.578125 0.4375 2.28125q0.640625 1.015625 1.765625 1.015625q0.90625 0 1.53125 -0.765625q0.625 -0.765625 0.625 -2.28125q0 -1.703125 -0.609375 -2.4375q-0.609375 -0.75 -1.5625 -0.75q-0.9375 0 -1.5625 0.734375q-0.625 0.734375 -0.625 2.203125zm15.020996 2.0l2.609375 0.4375q-0.5 1.4375 -1.59375 2.1875q-1.078125 0.734375 -2.703125 0.734375q-2.5625 0 -3.796875 -1.671875q-0.96875 -1.34375 -0.96875 -3.40625q0 -2.4375 1.265625 -3.828125q1.28125 -1.390625 3.25 -1.390625q2.1875 0 3.453125 1.453125q1.28125 1.453125 1.234375 4.453125l-6.53125 0q0.015625 1.15625 0.625 1.8125q0.609375 0.640625 1.5 0.640625q0.609375 0 1.03125 -0.328125q0.421875 -0.34375 0.625 -1.09375zm0.15625 -2.625q-0.03125 -1.140625 -0.59375 -1.71875q-0.546875 -0.59375 -1.34375 -0.59375q-0.859375 0 -1.40625 0.625q-0.5625 0.609375 -0.546875 1.6875l3.890625 0zm13.485077 5.765625l-2.609375 0l0 -5.03125q0 -1.59375 -0.171875 -2.0625q-0.15625 -0.46875 -0.53125 -0.71875q-0.375 -0.265625 -0.90625 -0.265625q-0.6875 0 -1.234375 0.375q-0.53125 0.359375 -0.734375 0.984375q-0.1875 0.609375 -0.1875 2.25l0 4.46875l-2.609375 0l0 -9.859375l2.421875 0l0 1.453125q1.296875 -1.671875 3.25 -1.671875q0.859375 0 1.578125 0.3125q0.71875 0.3125 1.078125 0.796875q0.359375 0.484375 0.5 1.09375q0.15625 0.609375 0.15625 1.75l0 6.125zm14.09491 0l0 -1.46875q-0.53125 0.78125 -1.40625 1.234375q-0.875 0.453125 -1.859375 0.453125q-0.984375 0 -1.78125 -0.4375q-0.78125 -0.4375 -1.140625 -1.21875q-0.34375 -0.796875 -0.34375 -2.1875l0 -6.234375l2.609375 0l0 4.53125q0 2.078125 0.140625 2.546875q0.140625 0.46875 0.515625 0.75q0.390625 0.265625 0.96875 0.265625q0.671875 0 1.203125 -0.359375q0.53125 -0.375 0.71875 -0.90625q0.1875 -0.546875 0.1875 -2.671875l0 -4.15625l2.609375 0l0 9.859375l-2.421875 0zm13.880371 0l-2.609375 0l0 -5.03125q0 -1.59375 -0.171875 -2.0625q-0.15625 -0.46875 -0.53125 -0.71875q-0.375 -0.265625 -0.90625 -0.265625q-0.6875 0 -1.234375 0.375q-0.53125 0.359375 -0.734375 0.984375q-0.1875 0.609375 -0.1875 2.25l0 4.46875l-2.609375 0l0 -9.859375l2.421875 0l0 1.453125q1.296875 -1.671875 3.25 -1.671875q0.859375 0 1.578125 0.3125q0.71875 0.3125 1.078125 0.796875q0.359375 0.484375 0.5 1.09375q0.15625 0.609375 0.15625 1.75l0 6.125zm2.4272156 -11.1875l0 -2.40625l2.609375 0l0 2.40625l-2.609375 0zm0 11.1875l0 -9.859375l2.609375 0l0 9.859375l-2.609375 0zm9.698944 -9.859375l0 2.078125l-1.78125 0l0 3.984375q0 1.203125 0.046875 1.40625q0.0625 0.1875 0.234375 0.328125q0.1875 0.125 0.453125 0.125q0.359375 0 1.046875 -0.25l0.21875 2.015625q-0.90625 0.390625 -2.0625 0.390625q-0.703125 0 -1.265625 -0.234375q-0.5625 -0.234375 -0.828125 -0.609375q-0.265625 -0.375 -0.375 -1.015625q-0.078125 -0.453125 -0.078125 -1.84375l0 -4.296875l-1.203125 0l0 -2.078125l1.203125 0l0 -1.953125l2.609375 -1.515625l0 3.46875l1.78125 0zm0.790802 7.046875l2.609375 -0.390625q0.171875 0.75 0.671875 1.15625q0.515625 0.390625 1.4375 0.390625q1.0 0 1.515625 -0.375q0.34375 -0.265625 0.34375 -0.703125q0 -0.296875 -0.1875 -0.484375q-0.1875 -0.1875 -0.875 -0.34375q-3.140625 -0.703125 -4.0 -1.265625q-1.15625 -0.796875 -1.15625 -2.21875q0 -1.28125 1.0 -2.15625q1.015625 -0.875 3.140625 -0.875q2.03125 0 3.0 0.65625q0.984375 0.65625 1.359375 1.953125l-2.453125 0.453125q-0.15625 -0.578125 -0.609375 -0.875q-0.4375 -0.3125 -1.25 -0.3125q-1.03125 0 -1.46875 0.296875q-0.296875 0.203125 -0.296875 0.515625q0 0.28125 0.25 0.484375q0.359375 0.25 2.4375 0.734375q2.078125 0.46875 2.90625 1.15625q0.828125 0.6875 0.828125 1.9375q0 1.359375 -1.140625 2.328125q-1.125 0.96875 -3.34375 0.96875q-2.015625 0 -3.1875 -0.8125q-1.171875 -0.8125 -1.53125 -2.21875z" fill-rule="nonzero"></path><path fill="#000000" fill-opacity="0.0" d="m5.594488 253.37401l53.228348 0l0 36.094498l-53.228348 0z" fill-rule="nonzero"></path><path fill="#000000" d="m18.750738 274.80463q0.578125 0.609375 0.875 1.21875q0.203125 0.421875 0.6875 2.21875l1.03125 -1.546875q0.40625 -0.5625 0.984375 -1.0625q0.59375 -0.515625 1.046875 -0.703125q0.28125 -0.125 0.625 -0.125q0.5 0 0.796875 0.28125q0.296875 0.265625 0.296875 0.640625q0 0.453125 -0.171875 0.609375q-0.328125 0.296875 -0.75 0.296875q-0.25 0 -0.53125 -0.109375q-0.546875 -0.1875 -0.734375 -0.1875q-0.28125 0 -0.671875 0.328125q-0.71875 0.609375 -1.734375 2.359375l0.96875 4.03125q0.21875 0.921875 0.359375 1.109375q0.15625 0.1875 0.3125 0.1875q0.25 0 0.578125 -0.28125q0.640625 -0.53125 1.09375 -1.40625l0.421875 0.21875q-0.75 1.375 -1.875 2.296875q-0.65625 0.515625 -1.09375 0.515625q-0.65625 0 -1.046875 -0.734375q-0.25 -0.46875 -1.015625 -3.9375q-1.828125 3.171875 -2.9375 4.078125q-0.703125 0.59375 -1.375 0.59375q-0.46875 0 -0.859375 -0.34375q-0.28125 -0.25 -0.28125 -0.6875q0 -0.390625 0.265625 -0.640625q0.25 -0.265625 0.625 -0.265625q0.375 0 0.796875 0.375q0.3125 0.265625 0.46875 0.265625q0.140625 0 0.359375 -0.1875q0.5625 -0.4375 1.5 -1.90625q0.953125 -1.484375 1.25 -2.140625q-0.734375 -2.84375 -0.78125 -3.015625q-0.28125 -0.765625 -0.71875 -1.078125q-0.421875 -0.3125 -1.265625 -0.3125q-0.265625 0 -0.625 0.015625l0 -0.421875l3.125 -0.546875z" fill-rule="nonzero"></path><path fill="#000000" d="m31.934332 283.6015l-2.515625 8.75q-0.21875 0.78125 -0.21875 1.125q0 0.28125 0.1875 0.4375q0.203125 0.15625 0.9375 0.203125l-0.078125 0.296875l-4.015625 0l0.109375 -0.296875q0.640625 -0.015625 0.84375 -0.09375q0.328125 -0.140625 0.484375 -0.375q0.265625 -0.359375 0.53125 -1.296875l1.8125 -6.28125q0.15625 -0.578125 0.171875 -0.65625q0.03125 -0.15625 0.03125 -0.3125q0 -0.265625 -0.15625 -0.421875q-0.140625 -0.15625 -0.40625 -0.15625q-0.203125 0 -0.625 0.09375l-0.109375 -0.28125l2.640625 -0.734375l0.375 0z" fill-rule="nonzero"></path><path fill="#000000" fill-opacity="0.0" d="m41.240158 253.37401l53.228348 0l0 36.094498l-53.228348 0z" fill-rule="nonzero"></path><path fill="#000000" d="m54.396408 274.80463q0.578125 0.609375 0.875 1.21875q0.203125 0.421875 0.6875 2.21875l1.03125 -1.546875q0.40625 -0.5625 0.984375 -1.0625q0.59375 -0.515625 1.046875 -0.703125q0.28125 -0.125 0.625 -0.125q0.5 0 0.796875 0.28125q0.296875 0.265625 0.296875 0.640625q0 0.453125 -0.171875 0.609375q-0.328125 0.296875 -0.75 0.296875q-0.25 0 -0.53125 -0.109375q-0.546875 -0.1875 -0.734375 -0.1875q-0.28125 0 -0.671875 0.328125q-0.71875 0.609375 -1.734375 2.359375l0.96875 4.03125q0.21875 0.921875 0.359375 1.109375q0.15625 0.1875 0.3125 0.1875q0.25 0 0.578125 -0.28125q0.640625 -0.53125 1.09375 -1.40625l0.421875 0.21875q-0.75 1.375 -1.875 2.296875q-0.65625 0.515625 -1.09375 0.515625q-0.65625 0 -1.046875 -0.734375q-0.25 -0.46875 -1.015625 -3.9375q-1.828125 3.171875 -2.9375 4.078125q-0.703125 0.59375 -1.375 0.59375q-0.46875 0 -0.859375 -0.34375q-0.28125 -0.25 -0.28125 -0.6875q0 -0.390625 0.265625 -0.640625q0.25 -0.265625 0.625 -0.265625q0.375 0 0.796875 0.375q0.3125 0.265625 0.46875 0.265625q0.140625 0 0.359375 -0.1875q0.5625 -0.4375 1.5 -1.90625q0.953125 -1.484375 1.25 -2.140625q-0.734375 -2.84375 -0.78125 -3.015625q-0.28125 -0.765625 -0.71875 -1.078125q-0.421875 -0.3125 -1.265625 -0.3125q-0.265625 0 -0.625 0.015625l0 -0.421875l3.125 -0.546875z" fill-rule="nonzero"></path><path fill="#000000" d="m66.42375 294.414l-5.28125 0l0 -0.296875q4.03125 -3.53125 5.328125 -5.53125q0.609375 -0.9375 0.609375 -1.953125q0 -0.8125 -0.5 -1.328125q-0.5 -0.515625 -1.296875 -0.515625q-1.109375 0 -1.8125 1.0625l-0.28125 -0.125q0.40625 -1.015625 1.171875 -1.5625q0.765625 -0.5625 1.65625 -0.5625q1.0 0 1.6875 0.6875q0.6875 0.6875 0.6875 1.671875q0 0.6875 -0.234375 1.28125q-0.375 0.90625 -1.390625 2.046875q-1.53125 1.734375 -4.078125 3.984375l2.65625 0q0.640625 0 1.046875 -0.265625q0.421875 -0.265625 0.59375 -0.703125l0.3125 0l-0.875 2.109375z" fill-rule="nonzero"></path><path fill="#000000" fill-opacity="0.0" d="m326.11417 253.37401l53.228363 0l0 36.094498l-53.228363 0z" fill-rule="nonzero"></path><path fill="#000000" d="m339.27042 274.80463q0.578125 0.609375 0.875 1.21875q0.203125 0.421875 0.6875 2.21875l1.03125 -1.546875q0.40625 -0.5625 0.984375 -1.0625q0.59375 -0.515625 1.046875 -0.703125q0.28125 -0.125 0.625 -0.125q0.5 0 0.796875 0.28125q0.296875 0.265625 0.296875 0.640625q0 0.453125 -0.171875 0.609375q-0.328125 0.296875 -0.75 0.296875q-0.25 0 -0.53125 -0.109375q-0.546875 -0.1875 -0.734375 -0.1875q-0.28125 0 -0.671875 0.328125q-0.71875 0.609375 -1.734375 2.359375l0.96875 4.03125q0.21875 0.921875 0.359375 1.109375q0.15625 0.1875 0.3125 0.1875q0.25 0 0.578125 -0.28125q0.640625 -0.53125 1.09375 -1.40625l0.421875 0.21875q-0.75 1.375 -1.875 2.296875q-0.65625 0.515625 -1.09375 0.515625q-0.65625 0 -1.046875 -0.734375q-0.25 -0.46875 -1.015625 -3.9375q-1.828125 3.171875 -2.9375 4.078125q-0.703125 0.59375 -1.375 0.59375q-0.46875 0 -0.859375 -0.34375q-0.28125 -0.25 -0.28125 -0.6875q0 -0.390625 0.265625 -0.640625q0.25 -0.265625 0.625 -0.265625q0.375 0 0.796875 0.375q0.3125 0.265625 0.46875 0.265625q0.140625 0 0.359375 -0.1875q0.5625 -0.4375 1.5 -1.90625q0.953125 -1.484375 1.25 -2.140625q-0.734375 -2.84375 -0.78125 -3.015625q-0.28125 -0.765625 -0.71875 -1.078125q-0.421875 -0.3125 -1.265625 -0.3125q-0.265625 0 -0.625 0.015625l0 -0.421875l3.125 -0.546875z" fill-rule="nonzero"></path><path fill="#000000" d="m349.29776 287.33588l-1.03125 3.5625q1.453125 -2.1875 2.234375 -2.875q0.78125 -0.6875 1.5 -0.6875q0.390625 0 0.640625 0.265625q0.25 0.25 0.25 0.671875q0 0.46875 -0.21875 1.25l-0.953125 3.28125q-0.171875 0.578125 -0.171875 0.703125q0 0.109375 0.0625 0.1875q0.0625 0.0625 0.140625 0.0625q0.09375 0 0.21875 -0.09375q0.421875 -0.328125 0.90625 -1.0l0.25 0.140625q-0.734375 1.046875 -1.375 1.484375q-0.453125 0.3125 -0.8125 0.3125q-0.296875 0 -0.46875 -0.1875q-0.171875 -0.171875 -0.171875 -0.46875q0 -0.375 0.265625 -1.28125l0.90625 -3.140625q0.171875 -0.59375 0.171875 -0.921875q0 -0.15625 -0.109375 -0.25q-0.09375 -0.09375 -0.234375 -0.09375q-0.21875 0 -0.53125 0.1875q-0.578125 0.34375 -1.203125 1.15625q-0.625 0.8125 -1.3125 2.0625q-0.375 0.671875 -0.609375 1.453125l-0.390625 1.296875l-1.171875 0l1.421875 -4.890625q0.25 -0.890625 0.25 -1.0625q0 -0.171875 -0.140625 -0.296875q-0.140625 -0.140625 -0.34375 -0.140625q-0.09375 0 -0.328125 0.03125l-0.296875 0.046875l-0.046875 -0.28125l2.703125 -0.484375z" fill-rule="nonzero"></path><path fill="#000000" fill-opacity="0.0" d="m63.452755 9.985564l53.228344 0l0 36.09449l-53.228344 0z" fill-rule="nonzero"></path><path fill="#000000" d="m79.49963 25.353691l-3.296875 11.390625q2.140625 -3.21875 3.328125 -4.265625q1.203125 -1.0625 2.28125 -1.0625q0.5625 0 0.9375 0.390625q0.375 0.390625 0.375 1.03125q0 0.765625 -0.328125 1.875l-1.421875 4.90625q-0.265625 0.890625 -0.265625 0.984375q0 0.171875 0.09375 0.28125q0.09375 0.09375 0.234375 0.09375q0.140625 0 0.34375 -0.15625q0.671875 -0.515625 1.328125 -1.421875l0.359375 0.21875q-0.390625 0.625 -1.109375 1.375q-0.703125 0.734375 -1.21875 1.03125q-0.5 0.28125 -0.90625 0.28125q-0.4375 0 -0.71875 -0.28125q-0.265625 -0.265625 -0.265625 -0.703125q0 -0.515625 0.40625 -1.921875l1.359375 -4.6875q0.25 -0.875 0.25 -1.390625q0 -0.234375 -0.15625 -0.375q-0.140625 -0.140625 -0.375 -0.140625q-0.328125 0 -0.765625 0.265625q-0.796875 0.484375 -1.84375 1.828125q-0.28125 0.359375 -1.875 2.921875q-0.484375 0.828125 -0.8125 1.796875l-0.75 2.40625l-1.75 0l3.859375 -13.40625l0.40625 -1.453125q0 -0.3125 -0.25 -0.546875q-0.25 -0.234375 -0.625 -0.234375q-0.203125 0 -0.640625 0.078125l-0.25 0.03125l0 -0.453125l4.0625 -0.6875z" fill-rule="nonzero"></path><path fill="#000000" d="m91.14026 40.213066l-2.515625 8.75q-0.21875 0.78125 -0.21875 1.125q0 0.28125 0.1875 0.4375q0.203125 0.15625 0.9375 0.203125l-0.078125 0.296875l-4.015625 0l0.109375 -0.296875q0.640625 -0.015625 0.84375 -0.09375q0.328125 -0.140625 0.484375 -0.375q0.265625 -0.359375 0.53125 -1.296875l1.8125 -6.28125q0.15625 -0.578125 0.171875 -0.65625q0.03125 -0.15625 0.03125 -0.3125q0 -0.265625 -0.15625 -0.421875q-0.140625 -0.15625 -0.40625 -0.15625q-0.203125 0 -0.625 0.09375l-0.109375 -0.28125l2.640625 -0.734375l0.375 0z" fill-rule="nonzero"></path><path fill="#000000" fill-opacity="0.0" d="m260.47113 9.985564l53.228333 0l0 36.09449l-53.228333 0z" fill-rule="nonzero"></path><path fill="#000000" d="m276.518 25.353691l-3.296875 11.390625q2.140625 -3.21875 3.328125 -4.265625q1.203125 -1.0625 2.28125 -1.0625q0.5625 0 0.9375 0.390625q0.375 0.390625 0.375 1.03125q0 0.765625 -0.328125 1.875l-1.421875 4.90625q-0.265625 0.890625 -0.265625 0.984375q0 0.171875 0.09375 0.28125q0.09375 0.09375 0.234375 0.09375q0.140625 0 0.34375 -0.15625q0.671875 -0.515625 1.328125 -1.421875l0.359375 0.21875q-0.390625 0.625 -1.109375 1.375q-0.703125 0.734375 -1.21875 1.03125q-0.5 0.28125 -0.90625 0.28125q-0.4375 0 -0.71875 -0.28125q-0.265625 -0.265625 -0.265625 -0.703125q0 -0.515625 0.40625 -1.921875l1.359375 -4.6875q0.25 -0.875 0.25 -1.390625q0 -0.234375 -0.15625 -0.375q-0.140625 -0.140625 -0.375 -0.140625q-0.328125 0 -0.765625 0.265625q-0.796875 0.484375 -1.84375 1.828125q-0.28125 0.359375 -1.875 2.921875q-0.484375 0.828125 -0.8125 1.796875l-0.75 2.40625l-1.75 0l3.859375 -13.40625l0.40625 -1.453125q0 -0.3125 -0.25 -0.546875q-0.25 -0.234375 -0.625 -0.234375q-0.203125 0 -0.640625 0.078125l-0.25 0.03125l0 -0.453125l4.0625 -0.6875z" fill-rule="nonzero"></path><path fill="#000000" d="m284.93988 43.94744l-1.015625 3.53125q0.6875 -1.25 1.15625 -1.875q0.75 -0.96875 1.453125 -1.40625q0.40625 -0.25 0.859375 -0.25q0.390625 0 0.640625 0.25q0.265625 0.25 0.265625 0.640625q0 0.390625 -0.171875 1.0l-0.5625 1.984375q1.28125 -2.375 2.421875 -3.34375q0.625 -0.53125 1.25 -0.53125q0.359375 0 0.578125 0.25q0.234375 0.25 0.234375 0.765625q0 0.453125 -0.140625 0.953125l-0.859375 3.046875q-0.28125 0.984375 -0.28125 1.09375q0 0.109375 0.078125 0.1875q0.046875 0.0625 0.125 0.0625q0.078125 0 0.265625 -0.15625q0.453125 -0.34375 0.84375 -0.90625l0.25 0.171875q-0.1875 0.3125 -0.6875 0.859375q-0.5 0.546875 -0.859375 0.75q-0.34375 0.1875 -0.640625 0.1875q-0.265625 0 -0.453125 -0.1875q-0.1875 -0.1875 -0.1875 -0.46875q0 -0.375 0.328125 -1.5l0.703125 -2.515625q0.25 -0.859375 0.265625 -0.953125q0.015625 -0.15625 0.015625 -0.296875q0 -0.1875 -0.078125 -0.296875q-0.09375 -0.109375 -0.21875 -0.109375q-0.328125 0 -0.6875 0.328125q-1.078125 1.0 -2.015625 2.78125q-0.625 1.1875 -1.15625 3.03125l-1.1875 0l1.34375 -4.734375q0.21875 -0.765625 0.21875 -1.015625q0 -0.21875 -0.09375 -0.3125q-0.078125 -0.109375 -0.203125 -0.109375q-0.265625 0 -0.546875 0.1875q-0.46875 0.3125 -1.21875 1.3125q-0.734375 1.0 -1.140625 1.90625q-0.1875 0.4375 -0.921875 2.765625l-1.15625 0l1.4375 -5.0625l0.1875 -0.65625q0.0625 -0.15625 0.0625 -0.21875q0 -0.171875 -0.15625 -0.3125q-0.15625 -0.140625 -0.40625 -0.140625q-0.09375 0 -0.5625 0.09375l-0.0625 -0.28125l2.6875 -0.5z" fill-rule="nonzero"></path><path fill="#000000" fill-opacity="0.0" d="m103.2664 9.985564l53.228348 0l0 36.09449l-53.228348 0z" fill-rule="nonzero"></path><path fill="#000000" d="m119.31328 25.353691l-3.296875 11.390625q2.140625 -3.21875 3.328125 -4.265625q1.203125 -1.0625 2.28125 -1.0625q0.5625 0 0.9375 0.390625q0.375 0.390625 0.375 1.03125q0 0.765625 -0.328125 1.875l-1.421875 4.90625q-0.265625 0.890625 -0.265625 0.984375q0 0.171875 0.09375 0.28125q0.09375 0.09375 0.234375 0.09375q0.140625 0 0.34375 -0.15625q0.671875 -0.515625 1.328125 -1.421875l0.359375 0.21875q-0.390625 0.625 -1.109375 1.375q-0.703125 0.734375 -1.21875 1.03125q-0.5 0.28125 -0.90625 0.28125q-0.4375 0 -0.71875 -0.28125q-0.265625 -0.265625 -0.265625 -0.703125q0 -0.515625 0.40625 -1.921875l1.359375 -4.6875q0.25 -0.875 0.25 -1.390625q0 -0.234375 -0.15625 -0.375q-0.140625 -0.140625 -0.375 -0.140625q-0.328125 0 -0.765625 0.265625q-0.796875 0.484375 -1.84375 1.828125q-0.28125 0.359375 -1.875 2.921875q-0.484375 0.828125 -0.8125 1.796875l-0.75 2.40625l-1.75 0l3.859375 -13.40625l0.40625 -1.453125q0 -0.3125 -0.25 -0.546875q-0.25 -0.234375 -0.625 -0.234375q-0.203125 0 -0.640625 0.078125l-0.25 0.03125l0 -0.453125l4.0625 -0.6875z" fill-rule="nonzero"></path><path fill="#000000" d="m129.79765 51.025566l-5.28125 0l0 -0.296875q4.03125 -3.53125 5.328125 -5.53125q0.609375 -0.9375 0.609375 -1.953125q0 -0.8125 -0.5 -1.328125q-0.5 -0.515625 -1.296875 -0.515625q-1.109375 0 -1.8125 1.0625l-0.28125 -0.125q0.40625 -1.015625 1.171875 -1.5625q0.765625 -0.5625 1.65625 -0.5625q1.0 0 1.6875 0.6875q0.6875 0.6875 0.6875 1.671875q0 0.6875 -0.234375 1.28125q-0.375 0.90625 -1.390625 2.046875q-1.53125 1.734375 -4.078125 3.984375l2.65625 0q0.640625 0 1.046875 -0.265625q0.421875 -0.265625 0.59375 -0.703125l0.3125 0l-0.875 2.109375z" fill-rule="nonzero"></path><path fill="#000000" fill-opacity="0.0" d="m289.3768 63.632385l-273.88977 178.04724" fill-rule="nonzero"></path><path stroke="#000000" stroke-width="1.0" stroke-linejoin="round" stroke-linecap="butt" d="m289.3768 63.632385l-273.88977 178.04724" fill-rule="nonzero"></path><path fill="#000000" fill-opacity="0.0" d="m289.3768 63.632385l-240.7559 178.04724" fill-rule="nonzero"></path><path stroke="#000000" stroke-width="1.0" stroke-linejoin="round" stroke-linecap="butt" d="m289.3768 63.632385l-240.7559 178.04724" fill-rule="nonzero"></path><path fill="#000000" fill-opacity="0.0" d="m289.3768 63.632385l-115.779526 178.04724" fill-rule="nonzero"></path><path stroke="#000000" stroke-width="1.0" stroke-linejoin="round" stroke-linecap="butt" d="m289.3768 63.632385l-115.779526 178.04724" fill-rule="nonzero"></path><path fill="#000000" fill-opacity="0.0" d="m289.3768 63.632385l-81.95276 178.04724" fill-rule="nonzero"></path><path stroke="#000000" stroke-width="1.0" stroke-linejoin="round" stroke-linecap="butt" d="m289.3768 63.632385l-81.95276 178.04724" fill-rule="nonzero"></path><path fill="#ffffff" d="m268.5958 72.24016l0 0c0 -6.723091 5.4501343 -12.173229 12.173248 -12.173229l0 0c3.2285156 0 6.324829 1.2825317 8.607758 3.5654564c2.2829285 2.2829208 3.5654602 5.3792343 3.5654602 8.607773l0 0c0 6.7230835 -5.4501343 12.173225 -12.173218 12.173225l0 0c-6.723114 0 -12.173248 -5.450142 -12.173248 -12.173225z" fill-rule="nonzero"></path><path stroke="#000000" stroke-width="1.0" stroke-linejoin="round" stroke-linecap="butt" d="m268.5958 72.24016l0 0c0 -6.723091 5.4501343 -12.173229 12.173248 -12.173229l0 0c3.2285156 0 6.324829 1.2825317 8.607758 3.5654564c2.2829285 2.2829208 3.5654602 5.3792343 3.5654602 8.607773l0 0c0 6.7230835 -5.4501343 12.173225 -12.173218 12.173225l0 0c-6.723114 0 -12.173248 -5.450142 -12.173248 -12.173225z" fill-rule="nonzero"></path><path fill="#ffffff" d="m170.01706 233.08005l0 0c0 -6.7230835 5.4501343 -12.173218 12.173233 -12.173218l0 0c3.228531 0 6.3248444 1.2825317 8.607773 3.565445c2.2829132 2.2829285 3.565445 5.379242 3.565445 8.607773l0 0c0 6.7230988 -5.4501343 12.173233 -12.173218 12.173233l0 0c-6.7230988 0 -12.173233 -5.4501343 -12.173233 -12.173233z" fill-rule="nonzero"></path><path stroke="#000000" stroke-width="1.0" stroke-linejoin="round" stroke-linecap="butt" d="m170.01706 233.08005l0 0c0 -6.7230835 5.4501343 -12.173218 12.173233 -12.173218l0 0c3.228531 0 6.3248444 1.2825317 8.607773 3.565445c2.2829132 2.2829285 3.565445 5.379242 3.565445 8.607773l0 0c0 6.7230988 -5.4501343 12.173233 -12.173218 12.173233l0 0c-6.7230988 0 -12.173233 -5.4501343 -12.173233 -12.173233z" fill-rule="nonzero"></path><path fill="#ffffff" d="m45.05643 233.08005l0 0c0 -6.7230835 5.450138 -12.173218 12.173229 -12.173218l0 0c3.2285385 0 6.324848 1.2825317 8.607773 3.565445c2.2829208 2.2829285 3.5654526 5.379242 3.5654526 8.607773l0 0c0 6.7230988 -5.450138 12.173233 -12.173225 12.173233l0 0c-6.723091 0 -12.173229 -5.4501343 -12.173229 -12.173233z" fill-rule="nonzero"></path><path stroke="#000000" stroke-width="1.0" stroke-linejoin="round" stroke-linecap="butt" d="m45.05643 233.08005l0 0c0 -6.7230835 5.450138 -12.173218 12.173229 -12.173218l0 0c3.2285385 0 6.324848 1.2825317 8.607773 3.565445c2.2829208 2.2829285 3.5654526 5.379242 3.5654526 8.607773l0 0c0 6.7230988 -5.450138 12.173233 -12.173225 12.173233l0 0c-6.723091 0 -12.173229 -5.4501343 -12.173229 -12.173233z" fill-rule="nonzero"></path><path fill="#000000" fill-opacity="0.0" d="m5.594488 233.08005l0 0c0 -8.72348 7.071786 -15.795273 15.795275 -15.795273l320.28348 0c4.189148 0 8.206757 1.6641388 11.168945 4.6263275c2.9621887 2.9621887 4.6263123 6.979782 4.6263123 11.168945l0 0l0 0c0 8.7234955 -7.0717773 15.795273 -15.795258 15.795273l-320.28348 0c-8.723489 0 -15.795275 -7.0717773 -15.795275 -15.795273z" fill-rule="nonzero"></path><path stroke="#000000" stroke-width="1.0" stroke-linejoin="round" stroke-linecap="butt" d="m5.594488 233.08005l0 0c0 -8.72348 7.071786 -15.795273 15.795275 -15.795273l320.28348 0c4.189148 0 8.206757 1.6641388 11.168945 4.6263275c2.9621887 2.9621887 4.6263123 6.979782 4.6263123 11.168945l0 0l0 0c0 8.7234955 -7.0717773 15.795273 -15.795258 15.795273l-320.28348 0c-8.723489 0 -15.795275 -7.0717773 -15.795275 -15.795273z" fill-rule="nonzero"></path></g></svg>

