<?xml version="1.0" standalone="yes"?>

<svg version="1.1" viewBox="0.0 0.0 875.0 398.3333333333333" fill="none" stroke="none" stroke-linecap="square" stroke-miterlimit="10" xmlns="http://www.w3.org/2000/svg" xmlns:xlink="http://www.w3.org/1999/xlink"><clipPath id="p.0"><path d="m0 0l875.0 0l0 398.33334l-875.0 0l0 -398.33334z" clip-rule="nonzero"></path></clipPath><g clip-path="url(#p.0)"><path fill="#000000" fill-opacity="0.0" d="m0 0l875.0 0l0 398.33334l-875.0 0z" fill-rule="nonzero"></path><path fill="#000000" fill-opacity="0.0" d="m32.0 316.3294l744.1575 0" fill-rule="nonzero"></path><path stroke="#000000" stroke-width="3.0" stroke-linejoin="round" stroke-linecap="butt" d="m50.0 316.3294l708.1575 0" fill-rule="evenodd"></path><path fill="#000000" stroke="#000000" stroke-width="3.0" stroke-linecap="butt" d="m50.0 311.3742l-13.614292 4.9552l13.614292 4.9552z" fill-rule="evenodd"></path><path fill="#000000" stroke="#000000" stroke-width="3.0" stroke-linecap="butt" d="m758.1575 321.2846l13.614319 -4.9552l-13.614319 -4.9552z" fill-rule="evenodd"></path><path fill="#000000" fill-opacity="0.0" d="m779.48553 9.800525l0 306.51968" fill-rule="nonzero"></path><path stroke="#000000" stroke-width="3.0" stroke-linejoin="round" stroke-linecap="butt" d="m779.48553 27.800526l0 270.51968" fill-rule="evenodd"></path><path fill="#000000" stroke="#000000" stroke-width="3.0" stroke-linecap="butt" d="m784.44073 27.800524l-4.9552 -13.614292l-4.955139 13.614292z" fill-rule="evenodd"></path><path fill="#000000" stroke="#000000" stroke-width="3.0" stroke-linecap="butt" d="m774.5304 298.32022l4.955139 13.614288l4.9552 -13.614288z" fill-rule="evenodd"></path><path fill="#000000" fill-opacity="0.0" d="m54.498688 240.49475l134.99213 0l0 59.149597l-134.99213 0z" fill-rule="nonzero"></path><path stroke="#000000" stroke-width="1.0" stroke-linejoin="round" stroke-linecap="butt" d="m54.498688 240.49475l134.99213 0l0 59.149597l-134.99213 0z" fill-rule="nonzero"></path><path fill="#000000" d="m94.58655 284.46954l0 -25.25l-9.4375 0l0 -3.390625l22.703125 0l0 3.390625l-9.484375 0l0 25.25l-3.78125 0zm16.699219 0l0 -28.640625l3.515625 0l0 10.28125q2.453125 -2.859375 6.203125 -2.859375q2.3125 0 4.0 0.921875q1.703125 0.90625 2.4375 2.515625q0.734375 1.59375 0.734375 4.640625l0 13.140625l-3.515625 0l0 -13.140625q0 -2.640625 -1.140625 -3.84375q-1.140625 -1.203125 -3.234375 -1.203125q-1.5625 0 -2.9375 0.8125q-1.375 0.8125 -1.96875 2.203125q-0.578125 1.375 -0.578125 3.828125l0 11.34375l-3.515625 0zm22.261719 -24.59375l0 -4.046875l3.515625 0l0 4.046875l-3.515625 0zm0 24.59375l0 -20.75l3.515625 0l0 20.75l-3.515625 0zm7.4648438 -6.1875l3.46875 -0.546875q0.296875 2.078125 1.625 3.203125q1.34375 1.109375 3.75 1.109375q2.421875 0 3.59375 -0.984375q1.171875 -0.984375 1.171875 -2.3125q0 -1.203125 -1.03125 -1.875q-0.71875 -0.46875 -3.59375 -1.203125q-3.875 -0.96875 -5.375 -1.671875q-1.484375 -0.71875 -2.265625 -1.984375q-0.765625 -1.265625 -0.765625 -2.78125q0 -1.390625 0.640625 -2.5625q0.640625 -1.1875 1.734375 -1.96875q0.8125 -0.609375 2.21875 -1.03125q1.421875 -0.421875 3.046875 -0.421875q2.4375 0 4.28125 0.703125q1.859375 0.703125 2.734375 1.90625q0.875 1.203125 1.203125 3.21875l-3.4375 0.46875q-0.234375 -1.609375 -1.359375 -2.5q-1.109375 -0.90625 -3.171875 -0.90625q-2.421875 0 -3.453125 0.8125q-1.03125 0.796875 -1.03125 1.875q0 0.671875 0.421875 1.21875q0.4375 0.578125 1.359375 0.9375q0.515625 0.203125 3.09375 0.90625q3.734375 1.0 5.203125 1.640625q1.484375 0.625 2.3125 1.84375q0.84375 1.203125 0.84375 3.0q0 1.75 -1.03125 3.3125q-1.015625 1.546875 -2.953125 2.40625q-1.921875 0.84375 -4.375 0.84375q-4.03125 0 -6.15625 -1.671875q-2.125 -1.6875 -2.703125 -4.984375z" fill-rule="nonzero"></path><path fill="#000000" fill-opacity="0.0" d="m189.49081 240.49475l155.84253 0l0 59.149597l-155.84253 0z" fill-rule="nonzero"></path><path stroke="#000000" stroke-width="1.0" stroke-linejoin="round" stroke-linecap="butt" d="m189.49081 240.49475l155.84253 0l0 59.149597l-155.84253 0z" fill-rule="nonzero"></path><path fill="#000000" d="m224.66792 281.90704q-1.953125 1.65625 -3.765625 2.34375q-1.796875 0.6875 -3.875 0.6875q-3.40625 0 -5.25 -1.671875q-1.828125 -1.671875 -1.828125 -4.265625q0 -1.53125 0.6875 -2.78125q0.6875 -1.265625 1.8125 -2.015625q1.125 -0.765625 2.53125 -1.15625q1.03125 -0.28125 3.125 -0.53125q4.265625 -0.515625 6.265625 -1.21875q0.03125 -0.71875 0.03125 -0.90625q0 -2.15625 -1.0 -3.03125q-1.34375 -1.1875 -4.0 -1.1875q-2.484375 0 -3.671875 0.875q-1.171875 0.859375 -1.75 3.0625l-3.4375 -0.46875q0.46875 -2.203125 1.546875 -3.5625q1.078125 -1.359375 3.109375 -2.09375q2.03125 -0.734375 4.703125 -0.734375q2.65625 0 4.3125 0.625q1.671875 0.625 2.453125 1.578125q0.78125 0.953125 1.09375 2.390625q0.171875 0.90625 0.171875 3.25l0 4.6875q0 4.890625 0.21875 6.203125q0.234375 1.296875 0.890625 2.484375l-3.671875 0q-0.546875 -1.09375 -0.703125 -2.5625zm-0.296875 -7.84375q-1.90625 0.78125 -5.734375 1.328125q-2.171875 0.3125 -3.078125 0.703125q-0.890625 0.390625 -1.375 1.140625q-0.484375 0.75 -0.484375 1.671875q0 1.40625 1.0625 2.34375q1.0625 0.9375 3.109375 0.9375q2.03125 0 3.609375 -0.890625q1.59375 -0.890625 2.328125 -2.4375q0.5625 -1.1875 0.5625 -3.515625l0 -1.28125zm9.011719 10.40625l0 -20.75l3.15625 0l0 2.953125q2.296875 -3.421875 6.609375 -3.421875q1.875 0 3.4375 0.6875q1.578125 0.671875 2.359375 1.765625q0.78125 1.09375 1.09375 2.59375q0.203125 0.96875 0.203125 3.421875l0 12.75l-3.515625 0l0 -12.625q0 -2.140625 -0.421875 -3.203125q-0.40625 -1.0625 -1.453125 -1.703125q-1.046875 -0.640625 -2.453125 -0.640625q-2.234375 0 -3.875 1.4375q-1.625 1.421875 -1.625 5.40625l0 11.328125l-3.515625 0zm22.261719 -24.59375l0 -4.046875l3.5156403 0l0 4.046875l-3.5156403 0zm0 24.59375l0 -20.75l3.5156403 0l0 20.75l-3.5156403 0zm8.871109 0l0 -20.75l3.140625 0l0 2.921875q0.984375 -1.53125 2.59375 -2.453125q1.625 -0.9375 3.703125 -0.9375q2.296875 0 3.765625 0.96875q1.484375 0.953125 2.09375 2.671875q2.453125 -3.640625 6.40625 -3.640625q3.078125 0 4.734375 1.71875q1.671875 1.703125 1.671875 5.265625l0 14.234375l-3.5 0l0 -13.0625q0 -2.109375 -0.34375 -3.03125q-0.34375 -0.9375 -1.25 -1.5q-0.890625 -0.578125 -2.09375 -0.578125q-2.1875 0 -3.640625 1.46875q-1.4375 1.453125 -1.4375 4.65625l0 12.046875l-3.515625 0l0 -13.484375q0 -2.34375 -0.859375 -3.515625q-0.859375 -1.171875 -2.8125 -1.171875q-1.484375 0 -2.75 0.78125q-1.265625 0.78125 -1.828125 2.296875q-0.5625 1.5 -0.5625 4.328125l0 10.765625l-3.515625 0zm46.851562 -2.5625q-1.953125 1.65625 -3.765625 2.34375q-1.796875 0.6875 -3.875 0.6875q-3.40625 0 -5.25 -1.671875q-1.828125 -1.671875 -1.828125 -4.265625q0 -1.53125 0.6875 -2.78125q0.6875 -1.265625 1.8125 -2.015625q1.125 -0.765625 2.53125 -1.15625q1.03125 -0.28125 3.125 -0.53125q4.265625 -0.515625 6.265625 -1.21875q0.03125 -0.71875 0.03125 -0.90625q0 -2.15625 -1.0 -3.03125q-1.34375 -1.1875 -4.0 -1.1875q-2.484375 0 -3.671875 0.875q-1.171875 0.859375 -1.75 3.0625l-3.4375 -0.46875q0.46875 -2.203125 1.546875 -3.5625q1.078125 -1.359375 3.109375 -2.09375q2.03125 -0.734375 4.703125 -0.734375q2.65625 0 4.3125 0.625q1.671875 0.625 2.453125 1.578125q0.78125 0.953125 1.09375 2.390625q0.171875 0.90625 0.171875 3.25l0 4.6875q0 4.890625 0.21875 6.203125q0.234375 1.296875 0.890625 2.484375l-3.671875 0q-0.546875 -1.09375 -0.703125 -2.5625zm-0.296875 -7.84375q-1.90625 0.78125 -5.734375 1.328125q-2.171875 0.3125 -3.078125 0.703125q-0.890625 0.390625 -1.375 1.140625q-0.484375 0.75 -0.484375 1.671875q0 1.40625 1.0625 2.34375q1.0625 0.9375 3.109375 0.9375q2.03125 0 3.609375 -0.890625q1.59375 -0.890625 2.328125 -2.4375q0.5625 -1.1875 0.5625 -3.515625l0 -1.28125zm8.933594 10.40625l0 -28.640625l3.515625 0l0 28.640625l-3.515625 0z" fill-rule="nonzero"></path><path fill="#000000" fill-opacity="0.0" d="m345.33334 240.49475l79.1496 0l0 59.149597l-79.1496 0z" fill-rule="nonzero"></path><path stroke="#000000" stroke-width="1.0" stroke-linejoin="round" stroke-linecap="butt" d="m345.33334 240.49475l79.1496 0l0 59.149597l-79.1496 0z" fill-rule="nonzero"></path><path fill="#000000" d="m373.12103 259.8758l0 -4.046875l3.515625 0l0 4.046875l-3.515625 0zm0 24.59375l0 -20.75l3.515625 0l0 20.75l-3.515625 0zm7.4648438 -6.1875l3.46875 -0.546875q0.296875 2.078125 1.625 3.203125q1.34375 1.109375 3.75 1.109375q2.421875 0 3.59375 -0.984375q1.171875 -0.984375 1.171875 -2.3125q0 -1.203125 -1.03125 -1.875q-0.71875 -0.46875 -3.59375 -1.203125q-3.875 -0.96875 -5.375 -1.671875q-1.484375 -0.71875 -2.265625 -1.984375q-0.765625 -1.265625 -0.765625 -2.78125q0 -1.390625 0.640625 -2.5625q0.640625 -1.1875 1.734375 -1.96875q0.8125 -0.609375 2.21875 -1.03125q1.421875 -0.421875 3.046875 -0.421875q2.4375 0 4.28125 0.703125q1.859375 0.703125 2.734375 1.90625q0.875 1.203125 1.203125 3.21875l-3.4375 0.46875q-0.234375 -1.609375 -1.359375 -2.5q-1.109375 -0.90625 -3.171875 -0.90625q-2.421875 0 -3.453125 0.8125q-1.03125 0.796875 -1.03125 1.875q0 0.671875 0.421875 1.21875q0.4375 0.578125 1.359375 0.9375q0.515625 0.203125 3.09375 0.90625q3.734375 1.0 5.203125 1.640625q1.484375 0.625 2.3125 1.84375q0.84375 1.203125 0.84375 3.0q0 1.75 -1.03125 3.3125q-1.015625 1.546875 -2.953125 2.40625q-1.921875 0.84375 -4.375 0.84375q-4.03125 0 -6.15625 -1.671875q-2.125 -1.6875 -2.703125 -4.984375z" fill-rule="nonzero"></path><path fill="#000000" fill-opacity="0.0" d="m424.48294 240.49475l155.8425 0l0 59.149597l-155.8425 0z" fill-rule="nonzero"></path><path stroke="#000000" stroke-width="1.0" stroke-linejoin="round" stroke-linecap="butt" d="m424.48294 240.49475l155.8425 0l0 59.149597l-155.8425 0z" fill-rule="nonzero"></path><path fill="#000000" d="m474.00577 284.46954l0 -2.625q-1.96875 3.09375 -5.796875 3.09375q-2.484375 0 -4.5625 -1.359375q-2.078125 -1.375 -3.21875 -3.828125q-1.140625 -2.453125 -1.140625 -5.640625q0 -3.09375 1.03125 -5.625q1.03125 -2.53125 3.09375 -3.875q2.078125 -1.359375 4.640625 -1.359375q1.875 0 3.328125 0.796875q1.46875 0.796875 2.390625 2.0625l0 -10.28125l3.5 0l0 28.640625l-3.265625 0zm-11.109375 -10.359375q0 3.984375 1.671875 5.96875q1.6875 1.96875 3.96875 1.96875q2.3125 0 3.921875 -1.875q1.609375 -1.890625 1.609375 -5.765625q0 -4.25 -1.640625 -6.234375q-1.640625 -2.0 -4.046875 -2.0q-2.34375 0 -3.921875 1.921875q-1.5625 1.90625 -1.5625 6.015625zm34.10547 3.671875l3.625 0.453125q-0.859375 3.1875 -3.1875 4.953125q-2.3125 1.75 -5.9375 1.75q-4.546875 0 -7.21875 -2.796875q-2.65625 -2.8125 -2.65625 -7.875q0 -5.234375 2.6875 -8.125q2.703125 -2.890625 7.0 -2.890625q4.15625 0 6.796875 2.84375q2.640625 2.828125 2.640625 7.96875q0 0.3125 -0.03125 0.9375l-15.46875 0q0.203125 3.40625 1.9375 5.234375q1.734375 1.8125 4.34375 1.8125q1.921875 0 3.28125 -1.015625q1.375 -1.015625 2.1875 -3.25zm-11.546875 -5.671875l11.578125 0q-0.234375 -2.625 -1.328125 -3.9375q-1.671875 -2.03125 -4.359375 -2.03125q-2.421875 0 -4.078125 1.625q-1.640625 1.625 -1.8125 4.34375zm33.121063 9.796875q-1.953125 1.65625 -3.765625 2.34375q-1.796875 0.6875 -3.8749695 0.6875q-3.40625 0 -5.25 -1.671875q-1.828125 -1.671875 -1.828125 -4.265625q0 -1.53125 0.6875 -2.78125q0.6875 -1.265625 1.8125 -2.015625q1.125 -0.765625 2.53125 -1.15625q1.03125 -0.28125 3.1249695 -0.53125q4.265625 -0.515625 6.265625 -1.21875q0.03125 -0.71875 0.03125 -0.90625q0 -2.15625 -1.0 -3.03125q-1.34375 -1.1875 -4.0 -1.1875q-2.4843445 0 -3.6718445 0.875q-1.171875 0.859375 -1.75 3.0625l-3.4375 -0.46875q0.46875 -2.203125 1.546875 -3.5625q1.078125 -1.359375 3.109375 -2.09375q2.03125 -0.734375 4.7030945 -0.734375q2.65625 0 4.3125 0.625q1.671875 0.625 2.453125 1.578125q0.78125 0.953125 1.09375 2.390625q0.171875 0.90625 0.171875 3.25l0 4.6875q0 4.890625 0.21875 6.203125q0.234375 1.296875 0.890625 2.484375l-3.671875 0q-0.546875 -1.09375 -0.703125 -2.5625zm-0.296875 -7.84375q-1.90625 0.78125 -5.734375 1.328125q-2.1718445 0.3125 -3.0780945 0.703125q-0.890625 0.390625 -1.375 1.140625q-0.484375 0.75 -0.484375 1.671875q0 1.40625 1.0625 2.34375q1.0625 0.9375 3.109375 0.9375q2.0312195 0 3.6093445 -0.890625q1.59375 -0.890625 2.328125 -2.4375q0.5625 -1.1875 0.5625 -3.515625l0 -1.28125zm22.464844 10.40625l0 -2.625q-1.96875 3.09375 -5.796875 3.09375q-2.484375 0 -4.5625 -1.359375q-2.078125 -1.375 -3.21875 -3.828125q-1.140625 -2.453125 -1.140625 -5.640625q0 -3.09375 1.03125 -5.625q1.03125 -2.53125 3.09375 -3.875q2.078125 -1.359375 4.640625 -1.359375q1.875 0 3.328125 0.796875q1.46875 0.796875 2.390625 2.0625l0 -10.28125l3.5 0l0 28.640625l-3.265625 0zm-11.109375 -10.359375q0 3.984375 1.671875 5.96875q1.6875 1.96875 3.96875 1.96875q2.3125 0 3.921875 -1.875q1.609375 -1.890625 1.609375 -5.765625q0 -4.25 -1.640625 -6.234375q-1.640625 -2.0 -4.046875 -2.0q-2.34375 0 -3.921875 1.921875q-1.5625 1.90625 -1.5625 6.015625z" fill-rule="nonzero"></path><path fill="#000000" fill-opacity="0.0" d="m189.49081 181.34514l155.84253 0l0 59.149612l-155.84253 0z" fill-rule="nonzero"></path><path stroke="#000000" stroke-width="1.0" stroke-linejoin="round" stroke-linecap="butt" d="m189.49081 181.34514l155.84253 0l0 59.149612l-155.84253 0z" fill-rule="nonzero"></path><path fill="#000000" d="m250.13667 225.31995l0 -2.625q-1.96875 3.09375 -5.796875 3.09375q-2.484375 0 -4.5625 -1.359375q-2.078125 -1.375 -3.21875 -3.828125q-1.140625 -2.453125 -1.140625 -5.640625q0 -3.09375 1.03125 -5.625q1.03125 -2.53125 3.09375 -3.875q2.078125 -1.359375 4.640625 -1.359375q1.875 0 3.328125 0.796875q1.46875 0.796875 2.390625 2.0625l0 -10.28125l3.5 0l0 28.640625l-3.265625 0zm-11.109375 -10.359375q0 3.984375 1.671875 5.96875q1.6875 1.96875 3.96875 1.96875q2.3125 0 3.921875 -1.875q1.609375 -1.890625 1.609375 -5.765625q0 -4.25 -1.640625 -6.234375q-1.640625 -2.0 -4.046875 -2.0q-2.34375 0 -3.921875 1.921875q-1.5625 1.90625 -1.5625 6.015625zm18.589859 -0.015625q0 -5.765625 3.203125 -8.53125q2.671875 -2.3125 6.53125 -2.3125q4.265625 0 6.984375 2.8125q2.71875 2.796875 2.71875 7.734375q0 4.015625 -1.203125 6.3125q-1.203125 2.28125 -3.5 3.5625q-2.296875 1.265625 -5.0 1.265625q-4.359375 0 -7.046875 -2.796875q-2.6875 -2.796875 -2.6875 -8.046875zm3.609375 0q0 3.984375 1.734375 5.96875q1.75 1.984375 4.390625 1.984375q2.609375 0 4.34375 -1.984375q1.75 -2.0 1.75 -6.078125q0 -3.859375 -1.75 -5.828125q-1.75 -1.984375 -4.34375 -1.984375q-2.640625 0 -4.390625 1.96875q-1.734375 1.96875 -1.734375 5.953125zm19.308594 12.09375l3.40625 0.515625q0.21875 1.578125 1.203125 2.296875q1.296875 0.984375 3.5625 0.984375q2.453125 0 3.78125 -0.984375q1.328125 -0.96875 1.796875 -2.734375q0.265625 -1.078125 0.25 -4.515625q-2.3125 2.71875 -5.75 2.71875q-4.265625 0 -6.609375 -3.078125q-2.34375 -3.09375 -2.34375 -7.40625q0 -2.96875 1.0625 -5.484375q1.078125 -2.515625 3.109375 -3.875q2.046875 -1.375 4.8125 -1.375q3.671875 0 6.046875 2.96875l0 -2.5l3.25 0l0 17.9375q0 4.84375 -1.0 6.859375q-0.984375 2.03125 -3.125 3.203125q-2.125 1.171875 -5.25 1.171875q-3.71875 0 -6.0 -1.671875q-2.28125 -1.671875 -2.203125 -5.03125zm2.90625 -12.46875q0 4.09375 1.609375 5.96875q1.625 1.875 4.078125 1.875q2.421875 0 4.0625 -1.859375q1.640625 -1.875 1.640625 -5.859375q0 -3.8125 -1.703125 -5.734375q-1.6875 -1.9375 -4.0625 -1.9375q-2.34375 0 -3.984375 1.90625q-1.640625 1.890625 -1.640625 5.640625z" fill-rule="nonzero"></path><path fill="#000000" fill-opacity="0.0" d="m424.48294 181.34514l155.8425 0l0 59.149612l-155.8425 0z" fill-rule="nonzero"></path><path stroke="#000000" stroke-width="1.0" stroke-linejoin="round" stroke-linecap="butt" d="m424.48294 181.34514l155.8425 0l0 59.149612l-155.8425 0z" fill-rule="nonzero"></path><path fill="#000000" d="m477.44327 222.75745q-1.953125 1.65625 -3.765625 2.34375q-1.796875 0.6875 -3.875 0.6875q-3.40625 0 -5.25 -1.671875q-1.828125 -1.671875 -1.828125 -4.265625q0 -1.53125 0.6875 -2.78125q0.6875 -1.265625 1.8125 -2.015625q1.125 -0.765625 2.53125 -1.15625q1.03125 -0.28125 3.125 -0.53125q4.265625 -0.515625 6.265625 -1.21875q0.03125 -0.71875 0.03125 -0.90625q0 -2.15625 -1.0 -3.03125q-1.34375 -1.1875 -4.0 -1.1875q-2.484375 0 -3.671875 0.875q-1.171875 0.859375 -1.75 3.0625l-3.4375 -0.46875q0.46875 -2.203125 1.546875 -3.5625q1.078125 -1.359375 3.109375 -2.09375q2.03125 -0.734375 4.703125 -0.734375q2.65625 0 4.3125 0.625q1.671875 0.625 2.453125 1.578125q0.78125 0.953125 1.09375 2.390625q0.171875 0.90625 0.171875 3.25l0 4.6875q0 4.890625 0.21875 6.203125q0.234375 1.296875 0.890625 2.484375l-3.671875 0q-0.546875 -1.09375 -0.703125 -2.5625zm-0.296875 -7.84375q-1.90625 0.78125 -5.734375 1.328125q-2.171875 0.3125 -3.078125 0.703125q-0.890625 0.390625 -1.375 1.140625q-0.484375 0.75 -0.484375 1.671875q0 1.40625 1.0625 2.34375q1.0625 0.9375 3.109375 0.9375q2.03125 0 3.609375 -0.890625q1.59375 -0.890625 2.328125 -2.4375q0.5625 -1.1875 0.5625 -3.515625l0 -1.28125zm8.933594 10.40625l0 -28.640625l3.515625 0l0 28.640625l-3.515625 0zm8.980469 -24.59375l0 -4.046875l3.515625 0l0 4.046875l-3.515625 0zm0 24.59375l0 -20.75l3.515625 0l0 20.75l-3.515625 0zm14.636719 0l-7.890625 -20.75l3.703125 0l4.453125 12.421875q0.71875 2.015625 1.328125 4.1875q0.46875 -1.640625 1.3124695 -3.953125l4.609375 -12.65625l3.609375 0l-7.84375 20.75l-3.2812195 0zm28.43747 -6.6875l3.625 0.453125q-0.859375 3.1875 -3.1875 4.953125q-2.3125 1.75 -5.9375 1.75q-4.546875 0 -7.21875 -2.796875q-2.65625 -2.8125 -2.65625 -7.875q0 -5.234375 2.6875 -8.125q2.703125 -2.890625 7.0 -2.890625q4.15625 0 6.796875 2.84375q2.640625 2.828125 2.640625 7.96875q0 0.3125 -0.03125 0.9375l-15.46875 0q0.203125 3.40625 1.9375 5.234375q1.734375 1.8125 4.34375 1.8125q1.921875 0 3.28125 -1.015625q1.375 -1.015625 2.1875 -3.25zm-11.546875 -5.671875l11.578125 0q-0.234375 -2.625 -1.328125 -3.9375q-1.671875 -2.03125 -4.359375 -2.03125q-2.421875 0 -4.078125 1.625q-1.640625 1.625 -1.8125 4.34375z" fill-rule="nonzero"></path><path fill="#000000" fill-opacity="0.0" d="m424.48294 122.19554l155.8425 0l0 59.149597l-155.8425 0z" fill-rule="nonzero"></path><path stroke="#000000" stroke-width="1.0" stroke-linejoin="round" stroke-linecap="butt" d="m424.48294 122.19554l155.8425 0l0 59.149597l-155.8425 0z" fill-rule="nonzero"></path><path fill="#000000" d="m443.8925 166.17033l0 -28.640625l3.515625 0l0 10.28125q2.453125 -2.859375 6.203125 -2.859375q2.3125 0 4.0 0.921875q1.703125 0.90625 2.4375 2.515625q0.734375 1.59375 0.734375 4.640625l0 13.140625l-3.515625 0l0 -13.140625q0 -2.640625 -1.140625 -3.84375q-1.140625 -1.203125 -3.234375 -1.203125q-1.5625 0 -2.9375 0.8125q-1.375 0.8125 -1.96875 2.203125q-0.578125 1.375 -0.578125 3.828125l0 11.34375l-3.515625 0zm35.839844 0l0 -3.046875q-2.421875 3.515625 -6.578125 3.515625q-1.84375 0 -3.4375 -0.703125q-1.59375 -0.703125 -2.359375 -1.765625q-0.765625 -1.0625 -1.078125 -2.609375q-0.21875 -1.03125 -0.21875 -3.28125l0 -12.859375l3.515625 0l0 11.515625q0 2.75 0.21875 3.703125q0.328125 1.390625 1.390625 2.1875q1.078125 0.78125 2.671875 0.78125q1.578125 0 2.953125 -0.8125q1.390625 -0.8125 1.96875 -2.203125q0.578125 -1.390625 0.578125 -4.046875l0 -11.125l3.515625 0l0 20.75l-3.140625 0zm8.652344 0l0 -20.75l3.15625 0l0 2.953125q2.296875 -3.421875 6.609375 -3.421875q1.875 0 3.4375 0.6875q1.578125 0.671875 2.359375 1.765625q0.78125 1.09375 1.09375 2.59375q0.203125 0.96875 0.203125 3.421875l0 12.75l-3.515625 0l0 -12.625q0 -2.140625 -0.421875 -3.203125q-0.40625 -1.0625 -1.453125 -1.703125q-1.046875 -0.640625 -2.453125 -0.640625q-2.234375 0 -3.875 1.4375q-1.625 1.421875 -1.625 5.40625l0 11.328125l-3.515625 0zm21.605469 1.71875l3.4062195 0.515625q0.21875 1.578125 1.203125 2.296875q1.296875 0.984375 3.5625 0.984375q2.453125 0 3.78125 -0.984375q1.328125 -0.96875 1.796875 -2.734375q0.265625 -1.078125 0.25 -4.515625q-2.3125 2.71875 -5.75 2.71875q-4.265625 0 -6.6093445 -3.078125q-2.34375 -3.09375 -2.34375 -7.40625q0 -2.96875 1.0625 -5.484375q1.078125 -2.515625 3.1093445 -3.875q2.046875 -1.375 4.8125 -1.375q3.671875 0 6.046875 2.96875l0 -2.5l3.25 0l0 17.9375q0 4.84375 -1.0 6.859375q-0.984375 2.03125 -3.125 3.203125q-2.125 1.171875 -5.25 1.171875q-3.71875 0 -6.0 -1.671875q-2.2812195 -1.671875 -2.2030945 -5.03125zm2.9062195 -12.46875q0 4.09375 1.609375 5.96875q1.625 1.875 4.078125 1.875q2.421875 0 4.0625 -1.859375q1.640625 -1.875 1.640625 -5.859375q0 -3.8125 -1.703125 -5.734375q-1.6875 -1.9375 -4.0625 -1.9375q-2.34375 0 -3.984375 1.90625q-1.640625 1.890625 -1.640625 5.640625zm19.933594 10.75l0 -20.75l3.171875 0l0 3.15625q1.203125 -2.21875 2.234375 -2.921875q1.03125 -0.703125 2.25 -0.703125q1.78125 0 3.625 1.140625l-1.21875 3.265625q-1.28125 -0.765625 -2.578125 -0.765625q-1.15625 0 -2.078125 0.703125q-0.90625 0.6875 -1.296875 1.90625q-0.59375 1.875 -0.59375 4.109375l0 10.859375l-3.515625 0zm13.2109375 7.984375l-0.390625 -3.296875q1.15625 0.3125 2.015625 0.3125q1.171875 0 1.875 -0.390625q0.703125 -0.390625 1.140625 -1.09375q0.34375 -0.53125 1.078125 -2.609375q0.09375 -0.296875 0.3125 -0.859375l-7.875 -20.796875l3.796875 0l4.3125 12.015625q0.84375 2.28125 1.5 4.8125q0.609375 -2.421875 1.453125 -4.734375l4.4375 -12.09375l3.515625 0l-7.890625 21.109375q-1.28125 3.40625 -1.984375 4.703125q-0.9375 1.734375 -2.15625 2.546875q-1.203125 0.8125 -2.875 0.8125q-1.015625 0 -2.265625 -0.4375z" fill-rule="nonzero"></path><path fill="#000000" fill-opacity="0.0" d="m424.48294 63.045933l155.8425 0l0 59.14961l-155.8425 0z" fill-rule="nonzero"></path><path stroke="#000000" stroke-width="1.0" stroke-linejoin="round" stroke-linecap="butt" d="m424.48294 63.045933l155.8425 0l0 59.14961l-155.8425 0z" fill-rule="nonzero"></path><path fill="#000000" d="m441.5878 107.02073l0 -28.640625l3.515625 0l0 28.640625l-3.515625 0zm7.6523438 -10.375q0 -5.765625 3.203125 -8.53125q2.671875 -2.3125 6.53125 -2.3125q4.265625 0 6.984375 2.8125q2.71875 2.796875 2.71875 7.734375q0 4.015625 -1.203125 6.3125q-1.203125 2.28125 -3.5 3.5625q-2.296875 1.265625 -5.0 1.265625q-4.359375 0 -7.046875 -2.796875q-2.6875 -2.796875 -2.6875 -8.046875zm3.609375 0q0 3.984375 1.734375 5.96875q1.75 1.984375 4.390625 1.984375q2.609375 0 4.34375 -1.984375q1.75 -2.0 1.75 -6.078125q0 -3.859375 -1.75 -5.828125q-1.75 -1.984375 -4.34375 -1.984375q-2.640625 0 -4.390625 1.96875q-1.734375 1.96875 -1.734375 5.953125zm18.636719 0q0 -5.765625 3.203125 -8.53125q2.671875 -2.3125 6.53125 -2.3125q4.265625 0 6.984375 2.8125q2.71875 2.796875 2.71875 7.734375q0 4.015625 -1.203125 6.3125q-1.203125 2.28125 -3.5 3.5625q-2.296875 1.265625 -5.0 1.265625q-4.359375 0 -7.046875 -2.796875q-2.6875 -2.796875 -2.6875 -8.046875zm3.609375 0q0 3.984375 1.734375 5.96875q1.75 1.984375 4.390625 1.984375q2.609375 0 4.34375 -1.984375q1.75 -2.0 1.75 -6.078125q0 -3.859375 -1.75 -5.828125q-1.75 -1.984375 -4.34375 -1.984375q-2.640625 0 -4.390625 1.96875q-1.734375 1.96875 -1.734375 5.953125zm19.964844 10.375l0 -28.640625l3.515625 0l0 16.328125l8.328125 -8.4375l4.546875 0l-7.9375 7.703125l8.7343445 13.046875l-4.3280945 0l-6.859375 -10.609375l-2.484375 2.390625l0 8.21875l-3.515625 0zm19.99997 -24.59375l0 -4.046875l3.515625 0l0 4.046875l-3.515625 0zm0 24.59375l0 -20.75l3.515625 0l0 20.75l-3.515625 0zm8.871094 0l0 -20.75l3.15625 0l0 2.953125q2.296875 -3.421875 6.609375 -3.421875q1.875 0 3.4375 0.6875q1.578125 0.671875 2.359375 1.765625q0.78125 1.09375 1.09375 2.59375q0.203125 0.96875 0.203125 3.421875l0 12.75l-3.515625 0l0 -12.625q0 -2.140625 -0.421875 -3.203125q-0.40625 -1.0625 -1.453125 -1.703125q-1.046875 -0.640625 -2.453125 -0.640625q-2.234375 0 -3.875 1.4375q-1.625 1.421875 -1.625 5.40625l0 11.328125l-3.515625 0zm21.605469 1.71875l3.40625 0.515625q0.21875 1.578125 1.203125 2.296875q1.296875 0.984375 3.5625 0.984375q2.453125 0 3.78125 -0.984375q1.328125 -0.96875 1.796875 -2.734375q0.265625 -1.078125 0.25 -4.515625q-2.3125 2.71875 -5.75 2.71875q-4.265625 0 -6.609375 -3.078125q-2.34375 -3.09375 -2.34375 -7.40625q0 -2.96875 1.0625 -5.484375q1.078125 -2.515625 3.109375 -3.875q2.046875 -1.375 4.8125 -1.375q3.671875 0 6.046875 2.96875l0 -2.5l3.25 0l0 17.9375q0 4.84375 -1.0 6.859375q-0.984375 2.03125 -3.125 3.203125q-2.125 1.171875 -5.25 1.171875q-3.71875 0 -6.0 -1.671875q-2.28125 -1.671875 -2.203125 -5.03125zm2.90625 -12.46875q0 4.09375 1.609375 5.96875q1.625 1.875 4.078125 1.875q2.421875 0 4.0625 -1.859375q1.640625 -1.875 1.640625 -5.859375q0 -3.8125 -1.703125 -5.734375q-1.6875 -1.9375 -4.0625 -1.9375q-2.34375 0 -3.984375 1.90625q-1.640625 1.890625 -1.640625 5.640625z" fill-rule="nonzero"></path><path fill="#000000" fill-opacity="0.0" d="m580.32544 63.045933l55.02362 0l0 59.14961l-55.02362 0z" fill-rule="nonzero"></path><path stroke="#000000" stroke-width="1.0" stroke-linejoin="round" stroke-linecap="butt" d="m580.32544 63.045933l55.02362 0l0 59.14961l-55.02362 0z" fill-rule="nonzero"></path><path fill="#000000" d="m607.32947 104.45823q-1.953125 1.65625 -3.765625 2.34375q-1.796875 0.6875 -3.875 0.6875q-3.40625 0 -5.25 -1.671875q-1.828125 -1.671875 -1.828125 -4.265625q0 -1.53125 0.6875 -2.78125q0.6875 -1.265625 1.8125 -2.015625q1.125 -0.765625 2.53125 -1.15625q1.03125 -0.28125 3.125 -0.53125q4.265625 -0.515625 6.265625 -1.21875q0.03125 -0.71875 0.03125 -0.90625q0 -2.15625 -1.0 -3.03125q-1.34375 -1.1875 -4.0 -1.1875q-2.484375 0 -3.671875 0.875q-1.171875 0.859375 -1.75 3.0625l-3.4375 -0.46875q0.46875 -2.203125 1.546875 -3.5625q1.078125 -1.359375 3.109375 -2.09375q2.03125 -0.734375 4.703125 -0.734375q2.65625 0 4.3125 0.625q1.671875 0.625 2.453125 1.578125q0.78125 0.953125 1.09375 2.390625q0.171875 0.90625 0.171875 3.25l0 4.6875q0 4.890625 0.21875 6.203125q0.234375 1.296875 0.890625 2.484375l-3.671875 0q-0.546875 -1.09375 -0.703125 -2.5625zm-0.296875 -7.84375q-1.90625 0.78125 -5.734375 1.328125q-2.171875 0.3125 -3.078125 0.703125q-0.890625 0.390625 -1.375 1.140625q-0.484375 0.75 -0.484375 1.671875q0 1.40625 1.0625 2.34375q1.0625 0.9375 3.109375 0.9375q2.03125 0 3.609375 -0.890625q1.59375 -0.890625 2.328125 -2.4375q0.5625 -1.1875 0.5625 -3.515625l0 -1.28125zm16.683594 7.265625l0.515625 3.09375q-1.484375 0.328125 -2.65625 0.328125q-1.921875 0 -2.984375 -0.609375q-1.046875 -0.609375 -1.484375 -1.59375q-0.421875 -0.984375 -0.421875 -4.15625l0 -11.9375l-2.578125 0l0 -2.734375l2.578125 0l0 -5.125l3.5 -2.109375l0 7.234375l3.53125 0l0 2.734375l-3.53125 0l0 12.140625q0 1.5 0.1875 1.9375q0.1875 0.421875 0.59375 0.671875q0.421875 0.25 1.203125 0.25q0.59375 0 1.546875 -0.125z" fill-rule="nonzero"></path><path fill="#000000" fill-opacity="0.0" d="m635.34906 63.045933l129.98425 0l0 59.14961l-129.98425 0z" fill-rule="nonzero"></path><path stroke="#000000" stroke-width="1.0" stroke-linejoin="round" stroke-linecap="butt" d="m635.34906 63.045933l129.98425 0l0 59.14961l-129.98425 0z" fill-rule="nonzero"></path><path fill="#000000" d="m670.57947 115.005104l-0.390625 -3.296875q1.15625 0.3125 2.015625 0.3125q1.171875 0 1.875 -0.390625q0.703125 -0.390625 1.140625 -1.09375q0.34375 -0.53125 1.078125 -2.609375q0.09375 -0.296875 0.3125 -0.859375l-7.875 -20.796875l3.796875 0l4.3125 12.015625q0.84375 2.28125 1.5 4.8125q0.609375 -2.421875 1.453125 -4.734375l4.4375 -12.09375l3.515625 0l-7.890625 21.109375q-1.28125 3.40625 -1.984375 4.703125q-0.9375 1.734375 -2.15625 2.546875q-1.203125 0.8125 -2.875 0.8125q-1.015625 0 -2.265625 -0.4375zm18.84375 -18.359375q0 -5.765625 3.203125 -8.53125q2.671875 -2.3125 6.53125 -2.3125q4.265625 0 6.984375 2.8125q2.71875 2.796875 2.71875 7.734375q0 4.015625 -1.203125 6.3125q-1.203125 2.28125 -3.5 3.5625q-2.296875 1.265625 -5.0 1.265625q-4.359375 0 -7.046875 -2.796875q-2.6875 -2.796875 -2.6875 -8.046875zm3.609375 0q0 3.984375 1.734375 5.96875q1.75 1.984375 4.390625 1.984375q2.609375 0 4.34375 -1.984375q1.75 -2.0 1.75 -6.078125q0 -3.859375 -1.75 -5.828125q-1.75 -1.984375 -4.34375 -1.984375q-2.640625 0 -4.390625 1.96875q-1.734375 1.96875 -1.734375 5.953125zm33.54297 10.375l0 -3.046875q-2.421875 3.515625 -6.578125 3.515625q-1.84375 0 -3.4375 -0.703125q-1.59375 -0.703125 -2.359375 -1.765625q-0.765625 -1.0625 -1.078125 -2.609375q-0.21875 -1.03125 -0.21875 -3.28125l0 -12.859375l3.515625 0l0 11.515625q0 2.75 0.21875 3.703125q0.328125 1.390625 1.390625 2.1875q1.078125 0.78125 2.671875 0.78125q1.578125 0 2.953125 -0.8125q1.390625 -0.8125 1.96875 -2.203125q0.578125 -1.390625 0.578125 -4.046875l0 -11.125l3.515625 0l0 20.75l-3.140625 0z" fill-rule="nonzero"></path><path fill="#000000" fill-opacity="0.0" d="m287.0 320.49344l354.2047 0l0 45.007874l-354.2047 0z" fill-rule="nonzero"></path><path fill="#000000" d="m297.65625 360.79968l3.546875 -0.21875q0 1.53125 0.46875 2.609375q0.46875 1.0625 1.71875 1.75q1.265625 0.6875 2.9375 0.6875q2.34375 0 3.515625 -0.9375q1.171875 -0.9375 1.171875 -2.203125q0 -0.921875 -0.703125 -1.75q-0.71875 -0.8125 -3.53125 -2.015625q-2.796875 -1.203125 -3.578125 -1.6875q-1.296875 -0.796875 -1.96875 -1.875q-0.65625 -1.09375 -0.65625 -2.5q0 -2.46875 1.953125 -4.21875q1.953125 -1.765625 5.46875 -1.765625q3.90625 0 5.9375 1.8125q2.046875 1.8125 2.125 4.75l-3.453125 0.234375q-0.078125 -1.875 -1.328125 -2.96875q-1.25 -1.09375 -3.546875 -1.09375q-1.828125 0 -2.84375 0.84375q-1.015625 0.84375 -1.015625 1.8125q0 0.984375 0.875 1.71875q0.59375 0.515625 3.03125 1.5625q4.0625 1.765625 5.109375 2.78125q1.6875 1.625 1.6875 3.9375q0 1.546875 -0.953125 3.03125q-0.9375 1.484375 -2.890625 2.375q-1.9375 0.890625 -4.578125 0.890625q-3.59375 0 -6.109375 -1.78125q-2.515625 -1.78125 -2.390625 -5.78125zm18.34375 15.109375l0.21875 -3.328125q1.09375 0.3125 2.125 0.3125q1.078125 0 1.734375 -0.484375q0.859375 -0.640625 1.875 -2.421875l1.140625 -2.03125l-3.453125 -20.8125l3.46875 0l1.5625 10.5q0.46875 3.09375 0.796875 6.203125l9.28125 -16.703125l3.6875 0l-13.21875 23.5q-1.90625 3.4375 -3.390625 4.546875q-1.484375 1.125 -3.421875 1.125q-1.234375 0 -2.40625 -0.40625zm21.328125 -8.015625l4.34375 -20.75l3.203125 0l-0.765625 3.625q2.09375 -2.140625 3.90625 -3.109375q1.8125 -0.984375 3.703125 -0.984375q2.53125 0 3.953125 1.375q1.4375 1.359375 1.4375 3.65625q0 1.140625 -0.5 3.625l-2.640625 12.5625l-3.53125 0l2.75 -13.140625q0.40625 -1.921875 0.40625 -2.84375q0 -1.03125 -0.71875 -1.671875q-0.703125 -0.640625 -2.046875 -0.640625q-2.71875 0 -4.84375 1.953125q-2.109375 1.953125 -3.109375 6.6875l-2.015625 9.65625l-3.53125 0zm30.511719 -2.875l-0.59375 2.890625q-1.265625 0.34375 -2.453125 0.34375q-2.109375 0 -3.359375 -1.046875q-0.9375 -0.78125 -0.9375 -2.125q0 -0.6875 0.5 -3.140625l2.53125 -12.0625l-2.796875 0l0.5625 -2.734375l2.796875 0l1.078125 -5.09375l4.03125 -2.4375l-1.578125 7.53125l3.484375 0l-0.59375 2.734375l-3.453125 0l-2.40625 11.46875q-0.453125 2.1875 -0.453125 2.625q0 0.625 0.359375 0.953125q0.375 0.328125 1.1875 0.328125q1.171875 0 2.09375 -0.234375zm16.832031 0.296875q-1.828125 1.578125 -3.53125 2.3125q-1.703125 0.734375 -3.640625 0.734375q-2.859375 0 -4.625 -1.6875q-1.75 -1.6875 -1.75 -4.328125q0 -1.734375 0.78125 -3.078125q0.796875 -1.34375 2.09375 -2.140625q1.3125 -0.8125 3.21875 -1.171875q1.1875 -0.234375 4.515625 -0.359375q3.328125 -0.140625 4.78125 -0.71875q0.40625 -1.4375 0.40625 -2.390625q0 -1.234375 -0.90625 -1.9375q-1.21875 -0.984375 -3.59375 -0.984375q-2.21875 0 -3.640625 1.0q-1.40625 0.984375 -2.0625 2.796875l-3.5625 -0.3125q1.09375 -3.09375 3.453125 -4.734375q2.375 -1.640625 6.0 -1.640625q3.84375 0 6.09375 1.84375q1.71875 1.359375 1.71875 3.546875q0 1.671875 -0.5 3.859375l-1.140625 5.15625q-0.546875 2.453125 -0.546875 4.0q0 0.96875 0.421875 2.8125l-3.578125 0q-0.28125 -1.015625 -0.40625 -2.578125zm1.3125 -7.9375q-0.75 0.296875 -1.59375 0.453125q-0.84375 0.15625 -2.84375 0.328125q-3.078125 0.28125 -4.359375 0.703125q-1.265625 0.421875 -1.90625 1.34375q-0.640625 0.90625 -0.640625 2.015625q0 1.484375 1.015625 2.453125q1.03125 0.953125 2.921875 0.953125q1.765625 0 3.375 -0.921875q1.625 -0.9375 2.5625 -2.59375q0.9375 -1.65625 1.46875 -4.734375zm6.7617188 12.390625l3.5625 0.328125q-0.03125 1.21875 0.296875 1.8125q0.328125 0.609375 1.0625 0.953125q0.953125 0.421875 2.46875 0.421875q3.203125 0 4.609375 -1.65625q0.921875 -1.109375 1.703125 -4.84375l0.359375 -1.6875q-2.765625 2.796875 -5.859375 2.796875q-3.15625 0 -5.28125 -2.3125q-2.109375 -2.3125 -2.109375 -6.5625q0 -3.484375 1.671875 -6.40625q1.671875 -2.9375 3.96875 -4.4375q2.3125 -1.5 4.75 -1.5q4.078125 0 6.296875 3.875l0.703125 -3.40625l3.234375 0l-4.171875 20.03125q-0.6875 3.296875 -1.8125 5.140625q-1.109375 1.84375 -3.09375 2.859375q-1.96875 1.015625 -4.578125 1.015625q-2.5 0 -4.3125 -0.640625q-1.796875 -0.640625 -2.6875 -1.890625q-0.890625 -1.234375 -0.890625 -2.828125q0 -0.5 0.109375 -1.0625zm4.40625 -11.0625q0 2.140625 0.40625 3.203125q0.59375 1.515625 1.671875 2.3125q1.09375 0.78125 2.421875 0.78125q1.734375 0 3.453125 -1.21875q1.71875 -1.21875 2.78125 -3.78125q1.0625 -2.5625 1.0625 -4.890625q0 -2.546875 -1.421875 -4.0625q-1.40625 -1.515625 -3.5 -1.515625q-1.28125 0 -2.5 0.703125q-1.203125 0.6875 -2.25 2.109375q-1.046875 1.40625 -1.59375 3.375q-0.53125 1.96875 -0.53125 2.984375zm18.011719 9.1875l4.328125 -20.75l3.546875 0l-0.734375 3.421875q1.984375 -2.203125 3.53125 -3.046875q1.546875 -0.84375 3.375 -0.84375q1.921875 0 3.21875 1.03125q1.3125 1.03125 1.71875 2.859375q1.578125 -1.953125 3.328125 -2.921875q1.75 -0.96875 3.6875 -0.96875q2.59375 0 3.890625 1.234375q1.296875 1.234375 1.296875 3.453125q0 0.96875 -0.453125 3.171875l-2.78125 13.359375l-3.546875 0l2.859375 -13.71875q0.375 -1.671875 0.375 -2.390625q0 -1.015625 -0.65625 -1.59375q-0.640625 -0.59375 -1.8125 -0.59375q-1.578125 0 -3.21875 0.953125q-1.640625 0.953125 -2.546875 2.515625q-0.90625 1.546875 -1.59375 4.765625l-2.109375 10.0625l-3.53125 0l2.921875 -14.0q0.3125 -1.4375 0.3125 -2.03125q0 -1.015625 -0.640625 -1.640625q-0.625 -0.625 -1.640625 -0.625q-1.5 0 -3.15625 0.953125q-1.65625 0.953125 -2.6875 2.671875q-1.03125 1.703125 -1.703125 4.859375l-2.046875 9.8125l-3.53125 0zm47.320312 -2.578125q-1.828125 1.578125 -3.53125 2.3125q-1.703125 0.734375 -3.640625 0.734375q-2.859375 0 -4.625 -1.6875q-1.75 -1.6875 -1.75 -4.328125q0 -1.734375 0.78125 -3.078125q0.796875 -1.34375 2.09375 -2.140625q1.3125 -0.8125 3.21875 -1.171875q1.1875 -0.234375 4.515625 -0.359375q3.328125 -0.140625 4.78125 -0.71875q0.40625 -1.4375 0.40625 -2.390625q0 -1.234375 -0.90625 -1.9375q-1.21875 -0.984375 -3.59375 -0.984375q-2.21875 0 -3.640625 1.0q-1.40625 0.984375 -2.0625 2.796875l-3.5625 -0.3125q1.09375 -3.09375 3.453125 -4.734375q2.375 -1.640625 6.0 -1.640625q3.84375 0 6.09375 1.84375q1.71875 1.359375 1.71875 3.546875q0 1.671875 -0.5 3.859375l-1.140625 5.15625q-0.546875 2.453125 -0.546875 4.0q0 0.96875 0.421875 2.8125l-3.578125 0q-0.28125 -1.015625 -0.40625 -2.578125zm1.3125 -7.9375q-0.75 0.296875 -1.59375 0.453125q-0.84375 0.15625 -2.84375 0.328125q-3.078125 0.28125 -4.359375 0.703125q-1.265625 0.421875 -1.90625 1.34375q-0.640625 0.90625 -0.640625 2.015625q0 1.484375 1.015625 2.453125q1.03125 0.953125 2.921875 0.953125q1.765625 0 3.375 -0.921875q1.625 -0.9375 2.5625 -2.59375q0.9375 -1.65625 1.46875 -4.734375zm15.214844 7.640625l-0.59375 2.890625q-1.265625 0.34375 -2.453125 0.34375q-2.109375 0 -3.359375 -1.046875q-0.9375 -0.78125 -0.9375 -2.125q0 -0.6875 0.5 -3.140625l2.53125 -12.0625l-2.796875 0l0.5625 -2.734375l2.796875 0l1.078125 -5.09375l4.03125 -2.4375l-1.578125 7.53125l3.484375 0l-0.59375 2.734375l-3.453125 0l-2.40625 11.46875q-0.453125 2.1875 -0.453125 2.625q0 0.625 0.359375 0.953125q0.375 0.328125 1.1875 0.328125q1.171875 0 2.09375 -0.234375zm7.8632812 -21.75l0.84375 -4.015625l3.515625 0l-0.84375 4.015625l-3.515625 0zm-5.15625 24.625l4.34375 -20.75l3.53125 0l-4.328125 20.75l-3.546875 0zm23.339844 -7.5625l3.546875 0.375q-1.328125 3.890625 -3.78125 5.78125q-2.453125 1.875 -5.578125 1.875q-3.375 0 -5.484375 -2.1875q-2.09375 -2.1875 -2.09375 -6.109375q0 -3.40625 1.34375 -6.6875q1.34375 -3.28125 3.859375 -4.984375q2.515625 -1.71875 5.734375 -1.71875q3.34375 0 5.296875 1.890625q1.953125 1.890625 1.953125 4.984375l-3.484375 0.234375q-0.015625 -1.96875 -1.140625 -3.078125q-1.125 -1.109375 -2.953125 -1.109375q-2.140625 0 -3.703125 1.34375q-1.5625 1.34375 -2.453125 4.09375q-0.875 2.734375 -0.875 5.28125q0 2.65625 1.171875 3.984375q1.171875 1.328125 2.890625 1.328125q1.71875 0 3.28125 -1.3125q1.578125 -1.3125 2.46875 -3.984375zm30.785156 4.984375q-1.828125 1.578125 -3.53125 2.3125q-1.703125 0.734375 -3.640625 0.734375q-2.859375 0 -4.625 -1.6875q-1.75 -1.6875 -1.75 -4.328125q0 -1.734375 0.78125 -3.078125q0.796875 -1.34375 2.09375 -2.140625q1.3125 -0.8125 3.21875 -1.171875q1.1875 -0.234375 4.515625 -0.359375q3.328125 -0.140625 4.78125 -0.71875q0.40625 -1.4375 0.40625 -2.390625q0 -1.234375 -0.90625 -1.9375q-1.21875 -0.984375 -3.59375 -0.984375q-2.21875 0 -3.640625 1.0q-1.40625 0.984375 -2.0625 2.796875l-3.5625 -0.3125q1.09375 -3.09375 3.453125 -4.734375q2.375 -1.640625 6.0 -1.640625q3.84375 0 6.09375 1.84375q1.71875 1.359375 1.71875 3.546875q0 1.671875 -0.5 3.859375l-1.140625 5.15625q-0.546875 2.453125 -0.546875 4.0q0 0.96875 0.421875 2.8125l-3.578125 0q-0.28125 -1.015625 -0.40625 -2.578125zm1.3125 -7.9375q-0.75 0.296875 -1.59375 0.453125q-0.84375 0.15625 -2.84375 0.328125q-3.078125 0.28125 -4.359375 0.703125q-1.265625 0.421875 -1.90625 1.34375q-0.640625 0.90625 -0.640625 2.015625q0 1.484375 1.015625 2.453125q1.03125 0.953125 2.921875 0.953125q1.765625 0 3.375 -0.921875q1.625 -0.9375 2.5625 -2.59375q0.9375 -1.65625 1.46875 -4.734375zm5.5585938 10.515625l9.03125 -10.53125l-5.171875 -10.21875l3.90625 0l1.75 3.703125q0.984375 2.0625 1.765625 3.953125l5.96875 -7.65625l4.3125 0l-8.703125 10.5l5.234375 10.25l-3.90625 0l-2.078125 -4.21875q-0.65625 -1.34375 -1.5 -3.34375l-6.171875 7.5625l-4.4375 0zm26.40625 -24.625l0.84375 -4.015625l3.515625 0l-0.84375 4.015625l-3.515625 0zm-5.15625 24.625l4.34375 -20.75l3.53125 0l-4.328125 20.75l-3.546875 0zm9.355469 -7.09375l3.546875 -0.21875q0 1.53125 0.46875 2.609375q0.46875 1.0625 1.71875 1.75q1.265625 0.6875 2.9375 0.6875q2.34375 0 3.515625 -0.9375q1.171875 -0.9375 1.171875 -2.203125q0 -0.921875 -0.703125 -1.75q-0.71875 -0.8125 -3.53125 -2.015625q-2.796875 -1.203125 -3.578125 -1.6875q-1.296875 -0.796875 -1.96875 -1.875q-0.65625 -1.09375 -0.65625 -2.5q0 -2.46875 1.953125 -4.21875q1.953125 -1.765625 5.46875 -1.765625q3.90625 0 5.9375 1.8125q2.046875 1.8125 2.125 4.75l-3.453125 0.234375q-0.078125 -1.875 -1.328125 -2.96875q-1.25 -1.09375 -3.546875 -1.09375q-1.828125 0 -2.84375 0.84375q-1.015625 0.84375 -1.015625 1.8125q0 0.984375 0.875 1.71875q0.59375 0.515625 3.03125 1.5625q4.0625 1.765625 5.109375 2.78125q1.6875 1.625 1.6875 3.9375q0 1.546875 -0.953125 3.03125q-0.9375 1.484375 -2.890625 2.375q-1.9375 0.890625 -4.578125 0.890625q-3.59375 0 -6.109375 -1.78125q-2.515625 -1.78125 -2.390625 -5.78125z" fill-rule="nonzero"></path><path fill="#000000" fill-opacity="0.0" d="m856.3018 2.800544l0 348.59842l-45.007874 0l0 -348.59842z" fill-rule="nonzero"></path><path fill="#000000" d="m800.9487 11.394294l28.703125 6.000001l0 3.25l-2.890625 -0.59375q1.890625 1.8125 2.625 3.25q0.734375 1.4375 0.734375 3.03125q0 2.96875 -2.171875 4.921875q-2.15625 1.953125 -6.171875 1.953125q-3.25 0 -5.921875 -1.078125q-2.65625 -1.0625 -4.28125 -2.625q-1.609375 -1.5625 -2.375 -3.171875q-0.765625 -1.59375 -0.765625 -3.28125q0 -3.734375 3.796875 -5.78125l-11.28125 -2.343751l0 -3.53125zm16.4375 6.984376q-2.328125 0 -3.234375 0.34375q-1.265625 0.484375 -2.046875 1.59375q-0.78125 1.109375 -0.78125 2.578125q0 3.046875 3.421875 4.921875q3.4375 1.875 7.015625 1.875q2.625 0 4.0625 -1.265625q1.4375 -1.25 1.4375 -3.125q0 -1.34375 -0.71875 -2.5q-0.703125 -1.15625 -2.125 -2.140625q-1.40625 -0.984375 -3.46875 -1.640625q-2.046875 -0.640625 -3.5625 -0.640625zm-5.90625 30.980469q-1.578125 -1.828125 -2.3125 -3.53125q-0.734375 -1.703125 -0.734375 -3.640625q0 -2.859375 1.6875 -4.625q1.6875 -1.75 4.328125 -1.75q1.734375 0 3.078125 0.78125q1.34375 0.796875 2.140625 2.09375q0.8125 1.3125 1.171875 3.21875q0.234375 1.1875 0.359375 4.515625q0.140625 3.328125 0.71875 4.78125q1.4375 0.40625 2.390625 0.40625q1.234375 0 1.9375 -0.90625q0.984375 -1.21875 0.984375 -3.59375q0 -2.21875 -1.0 -3.640625q-0.984375 -1.40625 -2.796875 -2.0625l0.3125 -3.5625q3.09375 1.09375 4.734375 3.453125q1.640625 2.375 1.640625 6.0q0 3.84375 -1.84375 6.09375q-1.359375 1.71875 -3.546875 1.71875q-1.671875 0 -3.859375 -0.5l-5.15625 -1.140625q-2.453125 -0.546875 -4.0 -0.546875q-0.96875 0 -2.8125 0.421875l0 -3.578125q1.015625 -0.28125 2.578125 -0.40625zm7.9375 1.3125q-0.296875 -0.75 -0.453125 -1.59375q-0.15625 -0.84375 -0.328125 -2.84375q-0.28125 -3.078125 -0.703125 -4.359375q-0.421875 -1.265625 -1.34375 -1.90625q-0.90625 -0.640625 -2.015625 -0.640625q-1.484375 0 -2.453125 1.015625q-0.953125 1.03125 -0.953125 2.921875q0 1.765625 0.921875 3.375q0.9375 1.625 2.59375 2.5625q1.65625 0.9375 4.734375 1.46875zm-10.515625 6.9492188l20.75 4.34375l0 3.125l-4.25 -0.890625q2.40625 1.609375 3.5625 3.140625q1.15625 1.53125 1.15625 3.140625q0 1.046875 -0.765625 2.59375l-3.28125 -1.453125q0.65625 -0.90625 0.65625 -2.0q0 -1.859375 -2.078125 -3.8125q-2.0625 -1.953125 -7.421875 -3.0625l-8.328125 -1.765625l0 -3.359375zm2.578125 27.304688q-1.578125 -1.828125 -2.3125 -3.53125q-0.734375 -1.703125 -0.734375 -3.640625q0 -2.859375 1.6875 -4.625q1.6875 -1.75 4.328125 -1.75q1.734375 0 3.078125 0.78125q1.34375 0.796875 2.140625 2.09375q0.8125 1.3125 1.171875 3.21875q0.234375 1.1875 0.359375 4.515625q0.140625 3.328125 0.71875 4.78125q1.4375 0.40625 2.390625 0.40625q1.234375 0 1.9375 -0.90625q0.984375 -1.21875 0.984375 -3.59375q0 -2.21875 -1.0 -3.640625q-0.984375 -1.40625 -2.796875 -2.0625l0.3125 -3.5625q3.09375 1.09375 4.734375 3.453125q1.640625 2.375 1.640625 6.0q0 3.84375 -1.84375 6.09375q-1.359375 1.71875 -3.546875 1.71875q-1.671875 0 -3.859375 -0.5l-5.15625 -1.140625q-2.453125 -0.546875 -4.0 -0.546875q-0.96875 0 -2.8125 0.421875l0 -3.578125q1.015625 -0.28125 2.578125 -0.40625zm7.9375 1.3125q-0.296875 -0.75 -0.453125 -1.59375q-0.15625 -0.84375 -0.328125 -2.84375q-0.28125 -3.078125 -0.703125 -4.359375q-0.421875 -1.265625 -1.34375 -1.90625q-0.90625 -0.640625 -2.015625 -0.640625q-1.484375 0 -2.453125 1.015625q-0.953125 1.03125 -0.953125 2.921875q0 1.765625 0.921875 3.375q0.9375 1.625 2.59375 2.5625q1.65625 0.9375 4.734375 1.46875zm-7.5 20.933594q-3.484375 -3.03125 -3.484375 -6.328125q0 -2.953125 2.171875 -4.921875q2.1875 -1.953125 6.328125 -1.953125q3.78125 0 6.921875 1.546875q3.140625 1.5625 4.703125 3.890625q1.5625 2.34375 1.5625 4.6875q0 3.859375 -3.734375 5.828125l11.15625 2.34375l0 3.515625l-28.640625 -5.96875l0 -3.265625l3.015625 0.625zm5.671875 -9.6875q-2.15625 0 -3.40625 0.421875q-1.25 0.4375 -2.09375 1.46875q-0.828125 1.046875 -0.828125 2.484375q0 2.40625 2.5 4.359375q3.328125 2.609375 8.203125 2.609375q2.46875 0 3.84375 -1.296875q1.390625 -1.28125 1.390625 -3.234375q0 -1.265625 -0.5625 -2.3125q-0.5625 -1.046875 -1.921875 -2.078125q-1.359375 -1.015625 -3.453125 -1.71875q-2.078125 -0.703125 -3.671875 -0.703125zm15.9375 22.964844l4.015625 0.84375l0 3.515625l-4.015625 -0.84375l0 -3.515625zm-24.625 -5.15625l20.75 4.34375l0 3.53125l-20.75 -4.328125l0 -3.546875zm-1.875 8.839844l-0.328125 3.5625q-1.21875 -0.03125 -1.8125 0.296875q-0.609375 0.32811737 -0.953125 1.0624924q-0.421875 0.953125 -0.421875 2.46875q0 3.203125 1.65625 4.609375q1.109375 0.921875 4.84375 1.703125l1.6875 0.359375q-2.796875 -2.765625 -2.796875 -5.859375q0 -3.15625 2.3125 -5.2812424q2.3125 -2.109375 6.5625 -2.109375q3.484375 0 6.40625 1.671875q2.9375 1.6718674 4.4375 3.9687424q1.5 2.3125 1.5 4.75q0 4.078125 -3.875 6.296875l3.40625 0.703125l0 3.234375l-20.03125 -4.171875q-3.296875 -0.6875 -5.140625 -1.8125q-1.84375 -1.109375 -2.859375 -3.09375q-1.015625 -1.96875 -1.015625 -4.578125q0 -2.5 0.640625 -4.3124924q0.640625 -1.796875 1.890625 -2.6875q1.234375 -0.890625 2.828125 -0.890625q0.5 0 1.0625 0.109375zm11.0625 4.4062424q-2.140625 0 -3.203125 0.40625q-1.515625 0.59375 -2.3125 1.671875q-0.78125 1.09375 -0.78125 2.421875q0 1.734375 1.21875 3.453125q1.21875 1.71875 3.78125 2.78125q2.5625 1.0625 4.890625 1.0625q2.546875 0 4.0625 -1.421875q1.515625 -1.40625 1.515625 -3.5q0 -1.28125 -0.703125 -2.5q-0.6875 -1.203125 -2.109375 -2.25q-1.40625 -1.046875 -3.375 -1.59375q-1.96875 -0.53125 -2.984375 -0.53125zm-9.1875 18.011719l20.75 4.328125l0 3.546875l-3.421875 -0.734375q2.203125 1.984375 3.046875 3.53125q0.84375 1.546875 0.84375 3.375q0 1.921875 -1.03125 3.21875q-1.03125 1.3125 -2.859375 1.71875q1.953125 1.578125 2.921875 3.328125q0.96875 1.75 0.96875 3.6875q0 2.59375 -1.234375 3.890625q-1.234375 1.296875 -3.453125 1.296875q-0.96875 0 -3.171875 -0.453125l-13.359375 -2.78125l0 -3.546875l13.71875 2.859375q1.671875 0.375 2.390625 0.375q1.015625 0 1.59375 -0.65625q0.59375 -0.640625 0.59375 -1.8125q0 -1.578125 -0.953125 -3.21875q-0.953125 -1.640625 -2.515625 -2.546875q-1.546875 -0.90625 -4.765625 -1.59375l-10.0625 -2.109375l0 -3.53125l14.0 2.921875q1.4375 0.3125 2.03125 0.3125q1.015625 0 1.640625 -0.640625q0.625 -0.625 0.625 -1.640625q0 -1.5 -0.953125 -3.15625q-0.953125 -1.65625 -2.671875 -2.6875q-1.703125 -1.03125 -4.859375 -1.703125l-9.8125 -2.046875l0 -3.53125zm2.578125 47.320312q-1.578125 -1.828125 -2.3125 -3.53125q-0.734375 -1.703125 -0.734375 -3.640625q0 -2.859375 1.6875 -4.625q1.6875 -1.75 4.328125 -1.75q1.734375 0 3.078125 0.78125q1.34375 0.796875 2.140625 2.09375q0.8125 1.3125 1.171875 3.21875q0.234375 1.1875 0.359375 4.515625q0.140625 3.328125 0.71875 4.78125q1.4375 0.40625 2.390625 0.40625q1.234375 0 1.9375 -0.90625q0.984375 -1.21875 0.984375 -3.59375q0 -2.21875 -1.0 -3.640625q-0.984375 -1.40625 -2.796875 -2.0625l0.3125 -3.5625q3.09375 1.09375 4.734375 3.453125q1.640625 2.375 1.640625 6.0q0 3.84375 -1.84375 6.09375q-1.359375 1.71875 -3.546875 1.71875q-1.671875 0 -3.859375 -0.5l-5.15625 -1.140625q-2.453125 -0.546875 -4.0 -0.546875q-0.96875 0 -2.8125 0.421875l0 -3.578125q1.015625 -0.28125 2.578125 -0.40625zm7.9375 1.3125q-0.296875 -0.75 -0.453125 -1.59375q-0.15625 -0.84375 -0.328125 -2.84375q-0.28125 -3.078125 -0.703125 -4.359375q-0.421875 -1.265625 -1.34375 -1.90625q-0.90625 -0.640625 -2.015625 -0.640625q-1.484375 0 -2.453125 1.015625q-0.953125 1.03125 -0.953125 2.921875q0 1.765625 0.921875 3.375q0.9375 1.625 2.59375 2.5625q1.65625 0.9375 4.734375 1.46875zm-7.640625 15.214844l-2.890625 -0.59375q-0.34375 -1.265625 -0.34375 -2.453125q0 -2.109375 1.046875 -3.359375q0.78125 -0.9375 2.125 -0.9375q0.6875 0 3.140625 0.5l12.0625 2.53125l0 -2.796875l2.734375 0.5625l0 2.796875l5.09375 1.078125l2.4375 4.03125l-7.53125 -1.578125l0 3.484375l-2.734375 -0.59375l0 -3.453125l-11.46875 -2.40625q-2.1875 -0.453125 -2.625 -0.453125q-0.625 0 -0.953125 0.359375q-0.328125 0.375 -0.328125 1.1875q0 1.171875 0.234375 2.09375zm21.75 7.8632812l4.015625 0.84375l0 3.515625l-4.015625 -0.84375l0 -3.515625zm-24.625 -5.15625l20.75 4.34375l0 3.53125l-20.75 -4.328125l0 -3.546875zm7.5625 23.339844l-0.375 3.546875q-3.890625 -1.328125 -5.78125 -3.78125q-1.875 -2.453125 -1.875 -5.578125q0 -3.375 2.1875 -5.484375q2.1875 -2.09375 6.109375 -2.09375q3.40625 0 6.6875 1.34375q3.28125 1.34375 4.984375 3.859375q1.71875 2.515625 1.71875 5.734375q0 3.34375 -1.890625 5.296875q-1.890625 1.953125 -4.984375 1.953125l-0.234375 -3.484375q1.96875 -0.015625 3.078125 -1.140625q1.109375 -1.125 1.109375 -2.953125q0 -2.140625 -1.34375 -3.703125q-1.34375 -1.5625 -4.09375 -2.453125q-2.734375 -0.875 -5.28125 -0.875q-2.65625 0 -3.984375 1.171875q-1.328125 1.171875 -1.328125 2.890625q0 1.71875 1.3125 3.28125q1.3125 1.578125 3.984375 2.46875zm-4.984375 30.785156q-1.578125 -1.828125 -2.3125 -3.53125q-0.734375 -1.703125 -0.734375 -3.640625q0 -2.859375 1.6875 -4.625q1.6875 -1.75 4.328125 -1.75q1.734375 0 3.078125 0.78125q1.34375 0.796875 2.140625 2.09375q0.8125 1.3125 1.171875 3.21875q0.234375 1.1875 0.359375 4.515625q0.140625 3.328125 0.71875 4.78125q1.4375 0.40625 2.390625 0.40625q1.234375 0 1.9375 -0.90625q0.984375 -1.21875 0.984375 -3.59375q0 -2.21875 -1.0 -3.640625q-0.984375 -1.40625 -2.796875 -2.0625l0.3125 -3.5625q3.09375 1.09375 4.734375 3.453125q1.640625 2.375 1.640625 6.0q0 3.84375 -1.84375 6.09375q-1.359375 1.71875 -3.546875 1.71875q-1.671875 0 -3.859375 -0.5l-5.15625 -1.140625q-2.453125 -0.546875 -4.0 -0.546875q-0.96875 0 -2.8125 0.421875l0 -3.578125q1.015625 -0.28125 2.578125 -0.40625zm7.9375 1.3125q-0.296875 -0.75 -0.453125 -1.59375q-0.15625 -0.84375 -0.328125 -2.84375q-0.28125 -3.078125 -0.703125 -4.359375q-0.421875 -1.265625 -1.34375 -1.90625q-0.90625 -0.640625 -2.015625 -0.640625q-1.484375 0 -2.453125 1.015625q-0.953125 1.03125 -0.953125 2.921875q0 1.765625 0.921875 3.375q0.9375 1.625 2.59375 2.5625q1.65625 0.9375 4.734375 1.46875zm-10.515625 5.5585938l10.53125 9.03125l10.21875 -5.171875l0 3.90625l-3.703125 1.75q-2.0625 0.984375 -3.953125 1.765625l7.65625 5.96875l0 4.3125l-10.5 -8.703125l-10.25 5.234375l0 -3.90625l4.21875 -2.078125q1.34375 -0.65625 3.34375 -1.5l-7.5625 -6.171875l0 -4.4375zm24.625 26.40625l4.015625 0.84375l0 3.515625l-4.015625 -0.84375l0 -3.515625zm-24.625 -5.15625l20.75 4.34375l0 3.53125l-20.75 -4.328125l0 -3.546875zm7.09375 9.355469l0.21875 3.546875q-1.53125 0 -2.609375 0.46875q-1.0625 0.46875 -1.75 1.71875q-0.6875 1.265625 -0.6875 2.9375q0 2.34375 0.9375 3.515625q0.9375 1.171875 2.203125 1.171875q0.921875 0 1.75 -0.703125q0.8125 -0.71875 2.015625 -3.53125q1.203125 -2.796875 1.6875 -3.578125q0.796875 -1.296875 1.875 -1.96875q1.09375 -0.65625 2.5 -0.65625q2.46875 0 4.21875 1.953125q1.765625 1.953125 1.765625 5.46875q0 3.90625 -1.8125 5.9375q-1.8125 2.046875 -4.75 2.125l-0.234375 -3.453125q1.875 -0.078125 2.96875 -1.328125q1.09375 -1.25 1.09375 -3.546875q0 -1.828125 -0.84375 -2.84375q-0.84375 -1.015625 -1.8125 -1.015625q-0.984375 0 -1.71875 0.875q-0.515625 0.59375 -1.5625 3.03125q-1.765625 4.0625 -2.78125 5.109375q-1.625 1.6875 -3.9375 1.6875q-1.546875 0 -3.03125 -0.953125q-1.484375 -0.9375 -2.375 -2.890625q-0.890625 -1.9375 -0.890625 -4.578125q0 -3.59375 1.78125 -6.109375q1.78125 -2.515625 5.78125 -2.390625z" fill-rule="nonzero"></path></g></svg>

