<?xml version="1.0" standalone="yes"?>

<svg version="1.1" viewBox="0.0 0.0 684.8372703412074 247.63517060367454" fill="none" stroke="none" stroke-linecap="square" stroke-miterlimit="10" xmlns="http://www.w3.org/2000/svg" xmlns:xlink="http://www.w3.org/1999/xlink"><clipPath id="p.0"><path d="m0 0l684.8373 0l0 247.63518l-684.8373 0l0 -247.63518z" clip-rule="nonzero"></path></clipPath><g clip-path="url(#p.0)"><path fill="#000000" fill-opacity="0.0" d="m0 0l684.8373 0l0 247.63518l-684.8373 0z" fill-rule="nonzero"></path><path fill="#000000" fill-opacity="0.0" d="m85.42075 43.577427l-0.2291565 -35.280838l168.06491 0.9370079l0 29.763779" fill-rule="nonzero"></path><path stroke="#000000" stroke-width="1.0" stroke-linejoin="round" stroke-linecap="butt" stroke-dasharray="4.0,3.0" d="m85.42075 43.577427l-0.22914886 -35.280838l168.0649 0.9370079l0 23.763779" fill-rule="evenodd"></path><path fill="#000000" stroke="#000000" stroke-width="1.0" stroke-linecap="butt" d="m251.60477 32.997375l1.6517334 4.5380974l1.6517334 -4.5380974z" fill-rule="evenodd"></path><path fill="#000000" fill-opacity="0.0" d="m87.391075 208.0164l0 29.005356l512.7969 0l0 -29.352463" fill-rule="nonzero"></path><path stroke="#000000" stroke-width="1.0" stroke-linejoin="round" stroke-linecap="butt" stroke-dasharray="8.0,3.0" d="m87.391075 208.0164l0 29.005356l512.7969 0l0 -23.352463" fill-rule="evenodd"></path><path fill="#000000" stroke="#000000" stroke-width="1.0" stroke-linecap="butt" d="m601.83966 213.6693l-1.6517334 -4.538101l-1.6517334 4.538101z" fill-rule="evenodd"></path><path fill="#000000" fill-opacity="0.0" d="m426.83713 50.129417l0 152.56693" fill-rule="nonzero"></path><path stroke="#000000" stroke-width="1.0" stroke-linejoin="round" stroke-linecap="butt" d="m426.83713 50.129417l0 152.56693" fill-rule="nonzero"></path><path fill="#000000" fill-opacity="0.0" d="m503.1206 126.41288l-152.56693 0" fill-rule="nonzero"></path><path stroke="#000000" stroke-width="1.0" stroke-linejoin="round" stroke-linecap="butt" d="m503.1206 126.41288l-152.56693 0" fill-rule="nonzero"></path><path fill="#000000" fill-opacity="0.0" d="m352.95 126.43651l0 0c0 -14.681213 32.919403 -26.58268 73.52756 -26.58268l0 0c40.608124 0 73.52756 11.901466 73.52756 26.58268l0 0c0 14.681198 -32.919434 26.582672 -73.52756 26.582672l0 0c-40.608154 0 -73.52756 -11.901474 -73.52756 -26.582672z" fill-rule="nonzero"></path><path stroke="#000000" stroke-width="1.0" stroke-linejoin="round" stroke-linecap="butt" d="m352.95 126.43651l0 0c0 -14.681213 32.919403 -26.58268 73.52756 -26.58268l0 0c40.608124 0 73.52756 11.901466 73.52756 26.58268l0 0c0 14.681198 -32.919434 26.582672 -73.52756 26.582672l0 0c-40.608154 0 -73.52756 -11.901474 -73.52756 -26.582672z" fill-rule="nonzero"></path><path fill="#000000" fill-opacity="0.0" d="m33.21509 125.680595l0 0c0 -29.284134 23.739483 -53.02362 53.023624 -53.02362l0 0c14.0627365 0 27.5495 5.586403 37.493362 15.530258c9.943855 9.943863 15.530251 23.430626 15.530251 37.493362l0 0c0 29.284142 -23.73948 53.02363 -53.023613 53.02363l0 0c-29.284142 0 -53.023624 -23.739487 -53.023624 -53.02363z" fill-rule="nonzero"></path><path stroke="#000000" stroke-width="1.0" stroke-linejoin="round" stroke-linecap="butt" d="m33.21509 125.680595l0 0c0 -29.284134 23.739483 -53.02362 53.023624 -53.02362l0 0c14.0627365 0 27.5495 5.586403 37.493362 15.530258c9.943855 9.943863 15.530251 23.430626 15.530251 37.493362l0 0c0 29.284142 -23.73948 53.02363 -53.023613 53.02363l0 0c-29.284142 0 -53.023624 -23.739487 -53.023624 -53.02363z" fill-rule="nonzero"></path><path fill="#000000" fill-opacity="0.0" d="m86.238716 125.680595l47.37008 -24.062988" fill-rule="nonzero"></path><path stroke="#000000" stroke-width="2.0" stroke-linejoin="round" stroke-linecap="butt" d="m86.23871 125.6806l36.671318 -18.62825" fill-rule="evenodd"></path><path fill="#000000" stroke="#000000" stroke-width="2.0" stroke-linecap="butt" d="m124.40615 109.997604l6.5958786 -7.0558167l-9.588127 1.1653137z" fill-rule="evenodd"></path><path fill="#000000" fill-opacity="0.0" d="m86.48806 126.268524l-21.763786 -48.25197" fill-rule="nonzero"></path><path stroke="#000000" stroke-width="2.0" stroke-linejoin="round" stroke-linecap="butt" d="m86.48805 126.268524l-16.829903 -37.313187" fill-rule="evenodd"></path><path fill="#000000" stroke="#000000" stroke-width="2.0" stroke-linecap="butt" d="m72.66947 87.5971l-6.7430573 -6.915306l0.7204132 9.631783z" fill-rule="evenodd"></path><path fill="#000000" fill-opacity="0.0" d="m37.414566 47.52181l40.15748 0l0 30.330708l-40.15748 0z" fill-rule="nonzero"></path><path fill="#000000" d="m47.664566 63.587433q-0.109375 -0.6875 -0.90625 -0.6875l-0.125 0l0.109375 -0.546875l1.9375 0l0.609375 3.84375q0.234375 1.46875 0.296875 2.3125l0.046875 0q0.96875 -0.9375 1.671875 -2.1875q0.71875 -1.25 0.71875 -2.0q0 -0.453125 -0.234375 -0.71875q-0.21875 -0.28125 -0.578125 -0.28125q0 -0.46875 0.25 -0.75q0.265625 -0.28125 0.640625 -0.28125q0.875 0 0.875 1.203125q0 1.1875 -0.90625 2.765625q-0.890625 1.578125 -2.328125 3.046875l-1.171875 0.125l-0.90625 -5.84375z" fill-rule="nonzero"></path><path fill="#000000" d="m56.945618 74.32181l-0.796875 0l0 -5.046875q-0.28125 0.28125 -0.75 0.5625q-0.46875 0.265625 -0.828125 0.390625l0 -0.765625q0.65625 -0.296875 1.15625 -0.734375q0.5 -0.453125 0.703125 -0.875l0.515625 0l0 6.46875z" fill-rule="nonzero"></path><path fill="#000000" fill-opacity="0.0" d="m118.301704 66.97456l40.15748 0l0 30.330711l-40.15748 0z" fill-rule="nonzero"></path><path fill="#000000" d="m128.55171 83.040184q-0.109375 -0.6875 -0.9062576 -0.6875l-0.125 0l0.109375 -0.546875l1.9375076 0l0.609375 3.84375q0.234375 1.46875 0.296875 2.3125l0.046875 0q0.96875 -0.9375 1.671875 -2.1875q0.71875 -1.25 0.71875 -2.0q0 -0.453125 -0.234375 -0.71875q-0.21875 -0.28125 -0.578125 -0.28125q0 -0.46875 0.25 -0.75q0.265625 -0.28125 0.640625 -0.28125q0.875 0 0.875 1.203125q0 1.1875 -0.90625 2.765625q-0.890625 1.578125 -2.328125 3.046875l-1.171875 0.125l-0.90625 -5.84375z" fill-rule="nonzero"></path><path fill="#000000" d="m139.00464 93.008934l0 0.765625l-4.265625 0q0 -0.28125 0.09375 -0.546875q0.171875 -0.4375 0.53125 -0.859375q0.359375 -0.421875 1.03125 -0.96875q1.046875 -0.875 1.40625 -1.375q0.375 -0.5 0.375 -0.953125q0 -0.46875 -0.34375 -0.78125q-0.328125 -0.328125 -0.859375 -0.328125q-0.578125 0 -0.921875 0.34375q-0.34375 0.34375 -0.34375 0.953125l-0.8125 -0.09375q0.078125 -0.90625 0.625 -1.375q0.546875 -0.484375 1.46875 -0.484375q0.921875 0 1.453125 0.515625q0.546875 0.515625 0.546875 1.265625q0 0.390625 -0.15625 0.765625q-0.15625 0.375 -0.53125 0.796875q-0.359375 0.40625 -1.203125 1.125q-0.71875 0.59375 -0.921875 0.8125q-0.203125 0.21875 -0.328125 0.421875l3.15625 0z" fill-rule="nonzero"></path><path fill="#000000" fill-opacity="0.0" d="m199.19016 125.857765l0 0c0 -29.284142 23.739487 -53.02362 53.02362 -53.02362l0 0c14.062744 0 27.5495 5.586403 37.493378 15.530258c9.943848 9.943855 15.530243 23.430626 15.530243 37.493362l0 0c0 29.284142 -23.739471 53.02363 -53.02362 53.02363l0 0c-29.284134 0 -53.02362 -23.739487 -53.02362 -53.02363z" fill-rule="nonzero"></path><path stroke="#000000" stroke-width="1.0" stroke-linejoin="round" stroke-linecap="butt" d="m199.19016 125.857765l0 0c0 -29.284142 23.739487 -53.02362 53.02362 -53.02362l0 0c14.062744 0 27.5495 5.586403 37.493378 15.530258c9.943848 9.943855 15.530243 23.430626 15.530243 37.493362l0 0c0 29.284142 -23.739471 53.02363 -53.02362 53.02363l0 0c-29.284134 0 -53.02362 -23.739487 -53.02362 -53.02363z" fill-rule="nonzero"></path><path fill="#000000" fill-opacity="0.0" d="m252.92244 125.5743l52.314957 0.28346252" fill-rule="nonzero"></path><path stroke="#000000" stroke-width="2.0" stroke-linejoin="round" stroke-linecap="butt" d="m252.92245 125.5743l40.315125 0.2184372" fill-rule="evenodd"></path><path fill="#000000" stroke="#000000" stroke-width="2.0" stroke-linecap="butt" d="m293.2197 129.09616l9.093964 -3.2542343l-9.0581665 -3.3526z" fill-rule="evenodd"></path><path fill="#000000" fill-opacity="0.0" d="m252.0248 125.9995l0.1889801 -53.16535" fill-rule="nonzero"></path><path stroke="#000000" stroke-width="2.0" stroke-linejoin="round" stroke-linecap="butt" d="m252.02481 125.9995l0.14633179 -41.16543" fill-rule="evenodd"></path><path fill="#000000" stroke="#000000" stroke-width="2.0" stroke-linecap="butt" d="m255.47458 84.84581l-3.2711792 -9.087883l-3.3357086 9.0644z" fill-rule="evenodd"></path><path fill="#000000" fill-opacity="0.0" d="m297.2072 90.181915l40.15747 0l0 30.330704l-40.15747 0z" fill-rule="nonzero"></path><path fill="#000000" d="m309.11346 103.716286q-0.71875 0 -0.71875 -0.71875q0 -0.40625 0.203125 -0.65625q0.21875 -0.25 0.578125 -0.25q0.71875 0 0.71875 0.71875q0 0.4375 -0.21875 0.671875q-0.21875 0.234375 -0.5625 0.234375zm-2.09375 1.84375l0.109375 -0.546875l2.328125 0l-0.875 4.171875q-0.203125 0.9375 -0.203125 1.4375q0 0.671875 0.4375 0.671875q0.375 0 0.921875 -0.34375l0.234375 0.390625q-0.890625 0.765625 -1.75 0.765625q-0.484375 0 -0.78125 -0.34375q-0.296875 -0.359375 -0.296875 -0.890625q0 -0.578125 0.28125 -2.046875l0.515625 -2.375q0.03125 -0.21875 0.03125 -0.34375q0 -0.546875 -0.78125 -0.546875l-0.171875 0z" fill-rule="nonzero"></path><path fill="#000000" fill-opacity="0.0" d="m248.0038 36.038868l40.157486 0l0 30.330708l-40.157486 0z" fill-rule="nonzero"></path><path fill="#000000" d="m259.9257 49.573242q-0.71875 0 -0.71875 -0.71875q0 -0.40625 0.203125 -0.65625q0.21875 -0.25 0.578125 -0.25q0.71875 0 0.71875 0.71875q0 0.4375 -0.21875 0.671875q-0.21875 0.234375 -0.5625 0.234375zm-4.7500153 11.28125l0.125 -0.59375q0.328125 0.078125 0.59375 0.078125q0.65626526 0 1.0312653 -0.578125q0.375 -0.578125 0.625 -1.8125l1.1875 -5.640625q0.046875 -0.21875 0.046875 -0.34375q0 -0.546875 -0.796875 -0.546875l-0.171875 0l0.125 -0.546875l2.328125 0l-1.5 7.078125q-0.328125 1.546875 -0.984375 2.28125q-0.65625 0.734375 -1.8437653 0.734375q-0.375 0 -0.765625 -0.109375z" fill-rule="nonzero"></path><path fill="#000000" fill-opacity="0.0" d="m86.238716 49.397133l0 152.56693" fill-rule="nonzero"></path><path stroke="#000000" stroke-width="1.0" stroke-linejoin="round" stroke-linecap="butt" d="m86.238716 49.397133l0 152.56693" fill-rule="nonzero"></path><path fill="#000000" fill-opacity="0.0" d="m162.52217 125.680595l-152.56693 0" fill-rule="nonzero"></path><path stroke="#000000" stroke-width="1.0" stroke-linejoin="round" stroke-linecap="butt" d="m162.52217 125.680595l-152.56693 0" fill-rule="nonzero"></path><path fill="#000000" fill-opacity="0.0" d="m252.11798 49.5743l0 152.56694" fill-rule="nonzero"></path><path stroke="#000000" stroke-width="1.0" stroke-linejoin="round" stroke-linecap="butt" d="m252.11798 49.5743l0 152.56694" fill-rule="nonzero"></path><path fill="#000000" fill-opacity="0.0" d="m328.40143 125.857765l-152.56691 0" fill-rule="nonzero"></path><path stroke="#000000" stroke-width="1.0" stroke-linejoin="round" stroke-linecap="butt" d="m328.40143 125.857765l-152.56691 0" fill-rule="nonzero"></path><path fill="#000000" fill-opacity="0.0" d="m426.5563 126.43651l73.44882 0" fill-rule="nonzero"></path><path stroke="#000000" stroke-width="2.0" stroke-linejoin="round" stroke-linecap="butt" d="m426.5563 126.43651l61.448822 0" fill-rule="evenodd"></path><path fill="#000000" stroke="#000000" stroke-width="2.0" stroke-linecap="butt" d="m488.00513 129.73997l9.076202 -3.3034668l-9.076202 -3.3034668z" fill-rule="evenodd"></path><path fill="#000000" fill-opacity="0.0" d="m426.86862 126.34202l-0.06298828 -26.48819" fill-rule="nonzero"></path><path stroke="#000000" stroke-width="2.0" stroke-linejoin="round" stroke-linecap="butt" d="m426.86865 126.34202l-0.034454346 -14.48822" fill-rule="evenodd"></path><path fill="#000000" stroke="#000000" stroke-width="2.0" stroke-linecap="butt" d="m430.13763 111.84594l-3.3250427 -9.068314l-3.2818604 9.0840225z" fill-rule="evenodd"></path><path fill="#000000" fill-opacity="0.0" d="m485.35156 92.72979l60.692932 0l0 30.330711l-60.692932 0z" fill-rule="nonzero"></path><path fill="#000000" d="m500.9453 111.10792q-0.09375 0.421875 -0.34375 0.90625q-0.234375 0.46875 -0.640625 0.953125q-0.40625 0.46875 -0.90625 0.859375q-0.5 0.390625 -1.140625 0.640625q-0.640625 0.234375 -1.3125 0.234375q-1.015625 0 -1.53125 -0.625q-0.5 -0.625 -0.28125 -1.65625q0.3125 -1.484375 1.71875 -2.6875q1.421875 -1.203125 3.046875 -1.203125q0.3125 0 0.875 0.0625q0.578125 0.046875 0.90625 0.046875q0.078125 0 0.21875 0.015625q0.140625 0 0.203125 0q0.3125 0 0.515625 -0.09375q0.21875 -0.09375 0.375 -0.34375l0.359375 0q-0.15625 0.296875 -0.25 0.453125q-0.09375 0.15625 -0.3125 0.421875q-0.203125 0.25 -0.46875 0.390625q-0.265625 0.125 -0.59375 0.125q-0.453125 0 -1.0625 -0.34375q-0.609375 -0.359375 -1.0 -0.359375q-0.484375 0 -1.015625 0.453125q-0.53125 0.4375 -0.9375 1.109375q-0.390625 0.671875 -0.6875 1.390625q-0.28125 0.703125 -0.421875 1.3125q-0.109375 0.515625 0.03125 0.828125q0.15625 0.3125 0.53125 0.3125q0.796875 0 1.578125 -1.140625q0.796875 -1.15625 1.046875 -2.3125q0.078125 -0.40625 -0.015625 -0.671875q-0.09375 -0.265625 -0.40625 -0.265625q-0.390625 0 -0.8125 0.484375l-0.21875 -0.34375q0.671875 -0.703125 1.578125 -0.703125q0.671875 0 1.09375 0.515625q0.4375 0.5 0.28125 1.234375z" fill-rule="nonzero"></path><path fill="#000000" d="m505.32355 113.07667l-1.15625 5.46875q-0.03125 0.15625 -0.03125 0.25q0 0.359375 0.640625 0.359375l0.484375 0l-0.078125 0.375l-3.34375 0l0.0625 -0.375l0.484375 0q0.421875 0 0.609375 -0.15625q0.203125 -0.171875 0.265625 -0.5l0.703125 -3.3125q0.15625 -0.71875 0.34375 -1.40625l-0.046875 0q-0.5625 0.5625 -0.84375 0.75q-0.265625 0.1875 -0.5 0.1875q-0.359375 0 -0.359375 -0.484375q0.609375 -0.15625 1.46875 -0.703125l0.71875 -0.453125l0.578125 0z" fill-rule="nonzero"></path><path fill="#000000" d="m509.36343 106.26417q-0.71875 0 -0.71875 -0.71875q0 -0.40625 0.203125 -0.65625q0.21875 -0.25 0.578125 -0.25q0.71875 0 0.71875 0.71875q0 0.4375 -0.21875 0.671875q-0.21875 0.234375 -0.5625 0.234375zm-2.09375 1.84375l0.109375 -0.546875l2.328125 0l-0.875 4.171875q-0.203125 0.9375 -0.203125 1.4375q0 0.671875 0.4375 0.671875q0.375 0 0.921875 -0.34375l0.234375 0.390625q-0.890625 0.765625 -1.75 0.765625q-0.484375 0 -0.78125 -0.34375q-0.296875 -0.359375 -0.296875 -0.890625q0 -0.578125 0.28125 -2.046875l0.515625 -2.375q0.03125 -0.21875 0.03125 -0.34375q0 -0.546875 -0.78125 -0.546875l-0.171875 0z" fill-rule="nonzero"></path><path fill="#000000" fill-opacity="0.0" d="m423.45197 69.52312l60.692932 0l0 30.330711l-60.692932 0z" fill-rule="nonzero"></path><path fill="#000000" d="m439.04572 87.901245q-0.09375 0.421875 -0.34375 0.90625q-0.234375 0.46875 -0.640625 0.953125q-0.40625 0.46875 -0.90625 0.859375q-0.5 0.390625 -1.140625 0.640625q-0.640625 0.234375 -1.3125 0.234375q-1.015625 0 -1.53125 -0.625q-0.5 -0.625 -0.28125 -1.65625q0.3125 -1.484375 1.71875 -2.6875q1.421875 -1.203125 3.046875 -1.203125q0.3125 0 0.875 0.0625q0.578125 0.046875 0.90625 0.046875q0.078125 0 0.21875 0.015625q0.140625 0 0.203125 0q0.3125 0 0.515625 -0.09375q0.21875 -0.09375 0.375 -0.34375l0.359375 0q-0.15625 0.296875 -0.25 0.453125q-0.09375 0.15625 -0.3125 0.421875q-0.203125 0.25 -0.46875 0.390625q-0.265625 0.125 -0.59375 0.125q-0.453125 0 -1.0625 -0.34375q-0.609375 -0.359375 -1.0 -0.359375q-0.484375 0 -1.015625 0.453125q-0.53125 0.4375 -0.9375 1.109375q-0.390625 0.671875 -0.6875 1.390625q-0.28125 0.703125 -0.421875 1.3125q-0.109375 0.515625 0.03125 0.828125q0.15625 0.3125 0.53125 0.3125q0.796875 0 1.578125 -1.140625q0.796875 -1.15625 1.046875 -2.3125q0.078125 -0.40625 -0.015625 -0.671875q-0.09375 -0.265625 -0.40625 -0.265625q-0.390625 0 -0.8125 0.484375l-0.21875 -0.34375q0.671875 -0.703125 1.578125 -0.703125q0.671875 0 1.09375 0.515625q0.4375 0.5 0.28125 1.234375z" fill-rule="nonzero"></path><path fill="#000000" d="m439.43958 96.32312l0.1875 -0.734375l2.125 -1.90625q0.828125 -0.75 1.171875 -1.296875q0.34375 -0.5625 0.34375 -1.21875q0 -0.421875 -0.234375 -0.65625q-0.21875 -0.25 -0.609375 -0.25q-1.03125 0 -1.265625 1.359375q-0.640625 0 -0.640625 -0.578125q0 -0.5 0.53125 -0.859375q0.546875 -0.375 1.421875 -0.375q0.8125 0 1.25 0.34375q0.453125 0.34375 0.453125 0.96875q0 0.53125 -0.390625 1.109375q-0.375 0.5625 -1.484375 1.546875l-2.015625 1.828125l2.078125 0q0.296875 0 0.5 -0.125q0.21875 -0.140625 0.40625 -0.546875l0.0625 -0.140625l0.375 0l-0.359375 1.53125l-3.90625 0z" fill-rule="nonzero"></path><path fill="#000000" d="m449.78485 83.057495q-0.71875 0 -0.71875 -0.71875q0 -0.40625 0.203125 -0.65625q0.21875 -0.25 0.578125 -0.25q0.71875 0 0.71875 0.71875q0 0.4375 -0.21875 0.671875q-0.21875 0.234375 -0.5625 0.234375zm-4.75 11.28125l0.125 -0.59375q0.328125 0.078125 0.59375 0.078125q0.65625 0 1.03125 -0.578125q0.375 -0.578125 0.625 -1.8125l1.1875 -5.640625q0.046875 -0.21875 0.046875 -0.34375q0 -0.546875 -0.796875 -0.546875l-0.171875 0l0.125 -0.546875l2.328125 0l-1.5 7.078125q-0.328125 1.546875 -0.984375 2.28125q-0.65625 0.734375 -1.84375 0.734375q-0.375 0 -0.765625 -0.109375z" fill-rule="nonzero"></path><path fill="#000000" fill-opacity="0.0" d="m600.2058 49.574234l0 152.56693" fill-rule="nonzero"></path><path stroke="#000000" stroke-width="1.0" stroke-linejoin="round" stroke-linecap="butt" d="m600.2058 49.574234l0 152.56693" fill-rule="nonzero"></path><path fill="#000000" fill-opacity="0.0" d="m676.48926 125.8577l-152.5669 0" fill-rule="nonzero"></path><path stroke="#000000" stroke-width="1.0" stroke-linejoin="round" stroke-linecap="butt" d="m676.48926 125.8577l-152.5669 0" fill-rule="nonzero"></path><path fill="#000000" fill-opacity="0.0" d="m555.63336 68.94709l0 0c11.370544 -9.287334 41.413086 8.679878 67.10181 40.13089l0 0c25.68872 31.451012 37.295837 64.47596 25.925232 73.7633l0 0c-11.370605 9.287323 -41.413086 -8.679886 -67.10181 -40.13089l0 0c-25.68872 -31.45102 -37.295837 -64.47597 -25.925232 -73.7633z" fill-rule="nonzero"></path><path stroke="#000000" stroke-width="1.0" stroke-linejoin="round" stroke-linecap="butt" d="m555.63336 68.94709l0 0c11.370544 -9.287334 41.413086 8.679878 67.10181 40.13089l0 0c25.68872 31.451012 37.295837 64.47596 25.925232 73.7633l0 0c-11.370605 9.287323 -41.413086 -8.679886 -67.10181 -40.13089l0 0c-25.68872 -31.45102 -37.295837 -64.47597 -25.925232 -73.7633z" fill-rule="nonzero"></path><path fill="#000000" fill-opacity="0.0" d="m600.6748 125.28685l47.985596 57.55443" fill-rule="nonzero"></path><path stroke="#000000" stroke-width="2.0" stroke-linejoin="round" stroke-linecap="butt" d="m600.6748 125.28685l40.301147 48.337616" fill-rule="evenodd"></path><path fill="#000000" stroke="#000000" stroke-width="2.0" stroke-linecap="butt" d="m638.43866 175.73991l8.349426 4.8556824l-3.2748413 -9.086563z" fill-rule="evenodd"></path><path fill="#000000" fill-opacity="0.0" d="m600.46564 125.71597l21.01715 -18.183174" fill-rule="nonzero"></path><path stroke="#000000" stroke-width="2.0" stroke-linejoin="round" stroke-linecap="butt" d="m600.46564 125.71597l11.942078 -10.331825" fill-rule="evenodd"></path><path fill="#000000" stroke="#000000" stroke-width="2.0" stroke-linecap="butt" d="m614.56915 117.8824l4.7025146 -8.436615l-9.02533 3.4401093z" fill-rule="evenodd"></path><path fill="#000000" fill-opacity="0.0" d="m631.79254 181.2521l60.69287 0l0 30.330704l-60.69287 0z" fill-rule="nonzero"></path><path fill="#000000" d="m647.3863 199.63022q-0.09375 0.421875 -0.34375 0.90625q-0.234375 0.46875 -0.640625 0.953125q-0.40625 0.46875 -0.90625 0.859375q-0.5 0.390625 -1.140625 0.640625q-0.640625 0.234375 -1.3125 0.234375q-1.015625 0 -1.53125 -0.625q-0.5 -0.625 -0.28125 -1.65625q0.3125 -1.484375 1.71875 -2.6875q1.421875 -1.203125 3.046875 -1.203125q0.3125 0 0.875 0.0625q0.578125 0.046875 0.90625 0.046875q0.078125 0 0.21875 0.015625q0.140625 0 0.203125 0q0.3125 0 0.515625 -0.09375q0.21875 -0.09375 0.375 -0.34375l0.359375 0q-0.15625 0.296875 -0.25 0.453125q-0.09375 0.15625 -0.3125 0.421875q-0.203125 0.25 -0.46875 0.390625q-0.265625 0.125 -0.59375 0.125q-0.453125 0 -1.0625 -0.34375q-0.609375 -0.359375 -1.0 -0.359375q-0.484375 0 -1.015625 0.453125q-0.53125 0.4375 -0.9375 1.109375q-0.390625 0.671875 -0.6875 1.390625q-0.28125 0.703125 -0.421875 1.3125q-0.109375 0.515625 0.03125 0.828125q0.15625 0.3125 0.53125 0.3125q0.796875 0 1.578125 -1.140625q0.796875 -1.15625 1.046875 -2.3125q0.078125 -0.40625 -0.015625 -0.671875q-0.09375 -0.265625 -0.40625 -0.265625q-0.390625 0 -0.8125 0.484375l-0.21875 -0.34375q0.671875 -0.703125 1.578125 -0.703125q0.671875 0 1.09375 0.515625q0.4375 0.5 0.28125 1.234375z" fill-rule="nonzero"></path><path fill="#000000" d="m651.76447 201.59897l-1.15625 5.46875q-0.03125 0.15625 -0.03125 0.25q0 0.359375 0.640625 0.359375l0.484375 0l-0.078125 0.375l-3.34375 0l0.0625 -0.375l0.484375 0q0.421875 0 0.609375 -0.15625q0.203125 -0.171875 0.265625 -0.5l0.703125 -3.3125q0.15625 -0.71875 0.34375 -1.40625l-0.046875 0q-0.5625 0.5625 -0.84375 0.75q-0.265625 0.1875 -0.5 0.1875q-0.359375 0 -0.359375 -0.484375q0.609375 -0.15625 1.46875 -0.703125l0.71875 -0.453125l0.578125 0z" fill-rule="nonzero"></path><path fill="#000000" d="m653.7575 196.08334l2.421875 0l-0.859375 3.890625q-0.265625 1.1875 -0.265625 1.5625q0 0.796875 0.640625 0.796875q0.65625 0 1.421875 -0.953125q0.78125 -0.96875 1.015625 -2.0625l0.6875 -3.234375l1.25 0l-0.890625 4.171875q-0.203125 0.921875 -0.203125 1.4375q0 0.671875 0.4375 0.671875q0.359375 0 0.828125 -0.296875l0.234375 0.390625q-0.828125 0.71875 -1.65625 0.71875q-0.484375 0 -0.78125 -0.34375q-0.296875 -0.359375 -0.296875 -0.890625q0 -0.328125 0.0625 -0.765625l-0.109375 0q-0.703125 1.15625 -1.265625 1.578125q-0.546875 0.40625 -1.25 0.40625q-1.390625 0 -1.390625 -1.4375q0 -0.40625 0.234375 -1.421875l0.515625 -2.28125q0.109375 -0.515625 0.109375 -0.78125q0 -0.609375 -0.90625 -0.609375l-0.09375 0l0.109375 -0.546875z" fill-rule="nonzero"></path><path fill="#000000" d="m664.7114 201.59897l-1.15625 5.46875q-0.03125 0.15625 -0.03125 0.25q0 0.359375 0.640625 0.359375l0.484375 0l-0.078125 0.375l-3.34375 0l0.0625 -0.375l0.484375 0q0.421875 0 0.609375 -0.15625q0.203125 -0.171875 0.265625 -0.5l0.703125 -3.3125q0.15625 -0.71875 0.34375 -1.40625l-0.046875 0q-0.5625 0.5625 -0.84375 0.75q-0.265625 0.1875 -0.5 0.1875q-0.359375 0 -0.359375 -0.484375q0.609375 -0.15625 1.46875 -0.703125l0.71875 -0.453125l0.578125 0z" fill-rule="nonzero"></path><path fill="#000000" fill-opacity="0.0" d="m609.82855 77.98893l60.69287 0l0 30.330711l-60.69287 0z" fill-rule="nonzero"></path><path fill="#000000" d="m625.4223 96.36706q-0.09375 0.421875 -0.34375 0.90625q-0.234375 0.46875 -0.640625 0.953125q-0.40625 0.46875 -0.90625 0.859375q-0.5 0.390625 -1.140625 0.640625q-0.640625 0.234375 -1.3125 0.234375q-1.015625 0 -1.53125 -0.625q-0.5 -0.625 -0.28125 -1.65625q0.3125 -1.484375 1.71875 -2.6875q1.421875 -1.203125 3.046875 -1.203125q0.3125 0 0.875 0.0625q0.578125 0.046875 0.90625 0.046875q0.078125 0 0.21875 0.015625q0.140625 0 0.203125 0q0.3125 0 0.515625 -0.09375q0.21875 -0.09375 0.375 -0.34375l0.359375 0q-0.15625 0.296875 -0.25 0.453125q-0.09375 0.15625 -0.3125 0.421875q-0.203125 0.25 -0.46875 0.390625q-0.265625 0.125 -0.59375 0.125q-0.453125 0 -1.0625 -0.34375q-0.609375 -0.359375 -1.0 -0.359375q-0.484375 0 -1.015625 0.453125q-0.53125 0.4375 -0.9375 1.109375q-0.390625 0.671875 -0.6875 1.390625q-0.28125 0.703125 -0.421875 1.3125q-0.109375 0.515625 0.03125 0.828125q0.15625 0.3125 0.53125 0.3125q0.796875 0 1.578125 -1.140625q0.796875 -1.15625 1.046875 -2.3125q0.078125 -0.40625 -0.015625 -0.671875q-0.09375 -0.265625 -0.40625 -0.265625q-0.390625 0 -0.8125 0.484375l-0.21875 -0.34375q0.671875 -0.703125 1.578125 -0.703125q0.671875 0 1.09375 0.515625q0.4375 0.5 0.28125 1.234375z" fill-rule="nonzero"></path><path fill="#000000" d="m625.8161 104.78893l0.1875 -0.734375l2.125 -1.90625q0.828125 -0.75 1.171875 -1.296875q0.34375 -0.5625 0.34375 -1.21875q0 -0.421875 -0.234375 -0.65625q-0.21875 -0.25 -0.609375 -0.25q-1.03125 0 -1.265625 1.359375q-0.640625 0 -0.640625 -0.578125q0 -0.5 0.53125 -0.859375q0.546875 -0.375 1.421875 -0.375q0.8125 0 1.25 0.34375q0.453125 0.34375 0.453125 0.96875q0 0.53125 -0.390625 1.109375q-0.375 0.5625 -1.484375 1.546875l-2.015625 1.828125l2.078125 0q0.296875 0 0.5 -0.125q0.21875 -0.140625 0.40625 -0.546875l0.0625 -0.140625l0.375 0l-0.359375 1.53125l-3.90625 0z" fill-rule="nonzero"></path><path fill="#000000" d="m631.7935 92.82018l2.421875 0l-0.859375 3.890625q-0.265625 1.1875 -0.265625 1.5625q0 0.796875 0.640625 0.796875q0.65625 0 1.421875 -0.953125q0.78125 -0.96875 1.015625 -2.0625l0.6875 -3.234375l1.25 0l-0.890625 4.171875q-0.203125 0.921875 -0.203125 1.4375q0 0.671875 0.4375 0.671875q0.359375 0 0.828125 -0.296875l0.234375 0.390625q-0.828125 0.71875 -1.65625 0.71875q-0.484375 0 -0.78125 -0.34375q-0.296875 -0.359375 -0.296875 -0.890625q0 -0.328125 0.0625 -0.765625l-0.109375 0q-0.703125 1.15625 -1.265625 1.578125q-0.546875 0.40625 -1.25 0.40625q-1.390625 0 -1.390625 -1.4375q0 -0.40625 0.234375 -1.421875l0.515625 -2.28125q0.109375 -0.515625 0.109375 -0.78125q0 -0.609375 -0.90625 -0.609375l-0.09375 0l0.109375 -0.546875z" fill-rule="nonzero"></path><path fill="#000000" d="m638.76306 104.78893l0.1875 -0.734375l2.125 -1.90625q0.828125 -0.75 1.171875 -1.296875q0.34375 -0.5625 0.34375 -1.21875q0 -0.421875 -0.234375 -0.65625q-0.21875 -0.25 -0.609375 -0.25q-1.03125 0 -1.265625 1.359375q-0.640625 0 -0.640625 -0.578125q0 -0.5 0.53125 -0.859375q0.546875 -0.375 1.421875 -0.375q0.8125 0 1.25 0.34375q0.453125 0.34375 0.453125 0.96875q0 0.53125 -0.390625 1.109375q-0.375 0.5625 -1.484375 1.546875l-2.015625 1.828125l2.078125 0q0.296875 0 0.5 -0.125q0.21875 -0.140625 0.40625 -0.546875l0.0625 -0.140625l0.375 0l-0.359375 1.53125l-3.90625 0z" fill-rule="nonzero"></path><path fill="#000000" fill-opacity="0.0" d="m328.99988 202.96669l29.763763 0l0 39.181107l-29.763763 0z" fill-rule="nonzero"></path><path fill="#000000" d="m341.84363 225.35544l-0.71875 1.984375q-0.09375 0.234375 -0.140625 0.453125q-0.046875 0.203125 -0.046875 0.375q0 0.46875 0.3125 0.703125q0.3125 0.21875 0.953125 0.21875l0.4375 0l0 0.796875l-4.640625 0l0 -0.796875l0.359375 0q0.28125 0 0.46875 -0.0625q0.203125 -0.0625 0.359375 -0.21875q0.15625 -0.171875 0.296875 -0.453125q0.15625 -0.296875 0.328125 -0.75l4.203125 -11.28125l1.484375 0l4.296875 11.75q0.109375 0.296875 0.21875 0.5q0.125 0.1875 0.28125 0.3125q0.15625 0.109375 0.359375 0.15625q0.21875 0.046875 0.484375 0.046875l0.25 0l0 0.796875l-5.21875 0l0 -0.796875l0.4375 0q1.140625 0 1.140625 -0.90625q0 -0.15625 -0.046875 -0.328125q-0.03125 -0.171875 -0.109375 -0.375l-0.765625 -2.125l-4.984375 0zm3.46875 -4.28125q-0.296875 -0.84375 -0.546875 -1.578125q-0.25 -0.75 -0.40625 -1.421875q-0.0625 0.34375 -0.15625 0.65625q-0.078125 0.3125 -0.1875 0.65625q-0.09375 0.328125 -0.234375 0.703125q-0.125 0.359375 -0.28125 0.8125l-1.296875 3.484375l4.28125 0l-1.171875 -3.3125z" fill-rule="nonzero"></path><path fill="#000000" fill-opacity="0.0" d="m144.34895 5.4863744l40.15747 0l0 39.181103l-40.15747 0z" fill-rule="nonzero"></path><path fill="#000000" d="m159.05208 32.406372l-4.109375 -11.765625q-0.09375 -0.296875 -0.21875 -0.484375q-0.125 -0.203125 -0.28125 -0.3125q-0.15625 -0.109375 -0.359375 -0.15625q-0.203125 -0.046875 -0.484375 -0.046875l-0.25 0l0 -0.796875l5.21875 0l0 0.796875l-0.4375 0q-0.5625 0 -0.859375 0.21875q-0.28125 0.21875 -0.28125 0.6875q0 0.15625 0.046875 0.328125q0.046875 0.171875 0.109375 0.375l2.09375 6.171875q0.28125 0.84375 0.484375 1.640625q0.21875 0.796875 0.375 1.484375q0.140625 -0.6875 0.34375 -1.453125q0.203125 -0.78125 0.515625 -1.671875l2.109375 -6.03125q0.0625 -0.234375 0.109375 -0.453125q0.046875 -0.21875 0.046875 -0.375q0 -0.484375 -0.3125 -0.703125q-0.296875 -0.21875 -0.9375 -0.21875l-0.4375 0l0 -0.796875l4.640625 0l0 0.796875l-0.375 0q-0.265625 0 -0.46875 0.0625q-0.203125 0.046875 -0.375 0.21875q-0.15625 0.15625 -0.296875 0.453125q-0.140625 0.28125 -0.296875 0.734375l-3.921875 11.296875l-1.390625 0z" fill-rule="nonzero"></path><path fill="#000000" d="m170.2039 24.046997q0 0.28125 0.078125 0.453125q0.09375 0.15625 0.21875 0.25q0.125 0.09375 0.3125 0.125q0.1875 0.03125 0.375 0.03125l0.28125 0l0 0.5l-3.734375 0l0 -0.5l0.28125 0q0.203125 0 0.375 -0.03125q0.171875 -0.03125 0.3125 -0.109375q0.140625 -0.078125 0.21875 -0.234375q0.078125 -0.171875 0.078125 -0.4375l0 -6.65625l-1.15625 0q-0.265625 0 -0.4375 0.078125q-0.171875 0.078125 -0.296875 0.21875q-0.109375 0.125 -0.171875 0.3125q-0.046875 0.171875 -0.078125 0.375l-0.0625 0.515625l-0.625 0l0.0625 -2.09375l6.765625 0l0.046875 2.09375l-0.609375 0l-0.0625 -0.515625q-0.03125 -0.203125 -0.09375 -0.375q-0.046875 -0.1875 -0.15625 -0.3125q-0.109375 -0.140625 -0.296875 -0.21875q-0.1875 -0.078125 -0.453125 -0.078125l-1.171875 0l0 6.609375z" fill-rule="nonzero"></path><path fill="#000000" fill-opacity="0.0" d="m323.80432 5.4863744l40.1575 0l0 39.181103l-40.1575 0z" fill-rule="nonzero"></path><path fill="#000000" d="m344.6012 27.906372l-0.46875 4.5l-11.09375 0l0 -0.625l4.671875 -5.171875l-4.671875 -6.140625l0 -0.84375l11.015625 0l0.25 3.703125l-0.578125 0q-0.453125 -3.0625 -3.53125 -3.0625l-3.40625 0l3.3125 4.734375l-4.21875 4.703125l5.28125 0q0.609375 0 1.015625 -0.046875q0.421875 -0.046875 0.875 -0.21875q0.46875 -0.171875 0.71875 -0.546875q0.265625 -0.390625 0.296875 -0.984375l0.53125 0z" fill-rule="nonzero"></path><path fill="#000000" fill-opacity="0.0" d="m495.6193 5.4863744l40.1575 0l0 39.181103l-40.1575 0z" fill-rule="nonzero"></path><path fill="#000000" d="m511.4943 32.593872q-1.125 0 -2.015625 -0.234375q-0.890625 -0.234375 -1.515625 -0.75q-0.609375 -0.515625 -0.9375 -1.328125q-0.3125 -0.8125 -0.3125 -1.96875l0 -7.375q0 -0.421875 -0.125 -0.671875q-0.125 -0.265625 -0.34375 -0.40625q-0.21875 -0.140625 -0.5 -0.171875q-0.28125 -0.046875 -0.59375 -0.046875l-0.25 0l0 -0.796875l5.53125 0l0 0.796875l-0.25 0q-0.3125 0 -0.609375 0.046875q-0.28125 0.046875 -0.484375 0.1875q-0.203125 0.140625 -0.328125 0.421875q-0.125 0.265625 -0.125 0.703125l0 7.421875q0 0.828125 0.234375 1.40625q0.234375 0.578125 0.65625 0.9375q0.421875 0.359375 1.0 0.53125q0.578125 0.15625 1.28125 0.15625q0.8124695 0 1.4062195 -0.21875q0.609375 -0.21875 1.0 -0.609375q0.390625 -0.40625 0.578125 -0.9375q0.203125 -0.546875 0.203125 -1.203125l0 -7.546875q0 -0.421875 -0.125 -0.671875q-0.125 -0.265625 -0.34375 -0.40625q-0.21875 -0.140625 -0.5 -0.171875q-0.28125 -0.046875 -0.59375 -0.046875l-0.234375 0l0 -0.796875l4.765625 0l0 0.796875l-0.25 0q-0.3125 0 -0.609375 0.046875q-0.28125 0.046875 -0.5 0.1875q-0.203125 0.140625 -0.328125 0.421875q-0.125 0.265625 -0.125 0.703125l0 7.53125q0 0.9375 -0.3125 1.703125q-0.296875 0.75 -0.890625 1.28125q-0.578125 0.515625 -1.453125 0.796875q-0.875 0.28125 -1.9999695 0.28125z" fill-rule="nonzero"></path><path fill="#000000" fill-opacity="0.0" d="m427.02875 9.396221l-0.15750122 -0.16048336l173.5748 0l0 29.353039" fill-rule="nonzero"></path><path stroke="#000000" stroke-width="1.0" stroke-linejoin="round" stroke-linecap="butt" stroke-dasharray="4.0,3.0" d="m427.02875 9.396222l-0.1574707 -0.16048527l173.57477 0l0 23.353039" fill-rule="evenodd"></path><path fill="#000000" stroke="#000000" stroke-width="1.0" stroke-linecap="butt" d="m598.7943 32.58878l1.6517334 4.5380974l1.6517334 -4.5380974z" fill-rule="evenodd"></path><path fill="#000000" fill-opacity="0.0" d="m253.43294 9.396221l-0.15748596 -0.16048336l173.5748 0l0 29.353039" fill-rule="nonzero"></path><path stroke="#000000" stroke-width="1.0" stroke-linejoin="round" stroke-linecap="butt" stroke-dasharray="4.0,3.0" d="m253.43292 9.396222l-0.1574707 -0.16048527l173.57483 0l0 23.353039" fill-rule="evenodd"></path><path fill="#000000" stroke="#000000" stroke-width="1.0" stroke-linecap="butt" d="m425.19855 32.58878l1.6517334 4.5380974l1.6517334 -4.5380974z" fill-rule="evenodd"></path></g></svg>

