<?xml version="1.0" encoding="UTF-8"?>
<svg xmlns="http://www.w3.org/2000/svg" xmlns:xlink="http://www.w3.org/1999/xlink" width="499.693pt" height="180.395pt" viewBox="0 0 499.693 180.395" version="1.1">
<g id="surface1">
<path style=" stroke:none;fill-rule:nonzero;fill:rgb(1.705933%,2.233887%,2.281189%);fill-opacity:1;" d="M 384.292969 110.691406 C 384.292969 111.851562 383.558594 112.5 382.398438 112.5 L 380.140625 112.5 L 380.140625 105.121094 L 382.398438 105.121094 C 383.558594 105.121094 384.292969 105.800781 384.292969 106.902344 Z M 380.140625 96.164062 L 382.117188 96.164062 C 383.246094 96.164062 383.953125 96.8125 383.953125 97.914062 L 383.953125 101.644531 C 383.953125 102.746094 383.246094 103.398438 382.117188 103.398438 L 380.140625 103.398438 Z M 384.210938 104.160156 C 385.3125 103.738281 385.988281 102.859375 385.988281 101.53125 L 385.988281 97.855469 C 385.988281 95.597656 384.488281 94.441406 382.144531 94.441406 L 378.105469 94.441406 L 378.105469 114.222656 L 382.398438 114.222656 C 384.828125 114.222656 386.300781 113.011719 386.300781 110.746094 L 386.300781 106.960938 C 386.300781 105.519531 385.511719 104.585938 384.210938 104.160156 M 359.109375 114.222656 L 361.144531 114.222656 L 361.144531 94.441406 L 359.109375 94.441406 Z M 337.773438 75.332031 C 337.773438 77.308594 337.800781 78.863281 337.886719 80.789062 L 333.476562 66.175781 L 331.269531 66.175781 L 331.269531 85.957031 L 333.136719 85.957031 L 333.136719 76.800781 C 333.136719 74.765625 333.105469 73.238281 333.023438 71.289062 L 337.460938 85.957031 L 339.609375 85.957031 L 339.609375 66.175781 L 337.773438 66.175781 Z M 370.445312 84.238281 L 365.441406 84.238281 L 365.441406 76.859375 L 369.597656 76.859375 L 369.597656 75.132812 L 365.441406 75.132812 L 365.441406 67.898438 L 370.445312 67.898438 L 370.445312 66.175781 L 363.40625 66.175781 L 363.40625 85.957031 L 370.445312 85.957031 Z M 344.441406 85.957031 L 346.476562 85.957031 L 346.476562 66.175781 L 344.441406 66.175781 Z M 357.695312 66.175781 L 354.984375 82.003906 L 352.300781 66.175781 L 350.234375 66.175781 L 353.9375 86.097656 L 355.945312 86.097656 L 359.675781 66.175781 Z M 350.351562 94.441406 L 348.34375 94.441406 L 348.34375 114.222656 L 355.296875 114.222656 L 355.296875 112.5 L 350.351562 112.5 Z M 367.648438 99.976562 L 367.648438 97.773438 C 367.648438 96.785156 368.382812 96.050781 369.628906 96.050781 C 370.839844 96.050781 371.628906 96.8125 371.628906 97.914062 L 371.628906 101.5 L 373.605469 101.5 L 373.605469 97.914062 C 373.605469 95.65625 372.054688 94.269531 369.628906 94.269531 C 367.195312 94.269531 365.644531 95.570312 365.644531 97.773438 L 365.644531 99.976562 C 365.644531 105.121094 371.65625 105.121094 371.65625 108.855469 L 371.65625 110.859375 C 371.65625 111.90625 370.839844 112.613281 369.628906 112.613281 C 368.382812 112.613281 367.53125 111.878906 367.53125 110.746094 L 367.53125 107.15625 L 365.558594 107.15625 L 365.558594 110.746094 C 365.558594 113.011719 367.167969 114.390625 369.597656 114.390625 C 372.023438 114.390625 373.691406 113.09375 373.691406 110.804688 L 373.691406 108.796875 C 373.691406 103.707031 367.648438 103.652344 367.648438 99.976562 M 420.980469 78.835938 L 422.476562 69.847656 L 424.003906 78.835938 Z M 421.515625 66.035156 L 417.785156 85.957031 L 419.792969 85.957031 L 420.695312 80.5625 L 424.285156 80.5625 L 425.191406 85.957031 L 427.253906 85.957031 L 423.550781 66.035156 Z M 437.089844 82.371094 C 437.089844 83.5 436.355469 84.238281 435.167969 84.238281 L 433.019531 84.238281 L 433.019531 67.898438 L 435.167969 67.898438 C 436.355469 67.898438 437.089844 68.664062 437.089844 69.761719 Z M 435.167969 66.175781 L 430.984375 66.175781 L 430.984375 85.957031 L 435.167969 85.957031 C 437.601562 85.957031 439.125 84.632812 439.125 82.371094 L 439.125 69.761719 C 439.125 67.5 437.601562 66.175781 435.167969 66.175781 M 394.890625 82.539062 L 394.890625 80.53125 C 394.890625 75.445312 388.847656 75.386719 388.847656 71.710938 L 388.847656 69.507812 C 388.847656 68.523438 389.578125 67.785156 390.824219 67.785156 C 392.035156 67.785156 392.828125 68.550781 392.828125 69.648438 L 392.828125 73.238281 L 394.804688 73.238281 L 394.804688 69.648438 C 394.804688 67.390625 393.253906 66.003906 390.824219 66.003906 C 388.394531 66.003906 386.839844 67.304688 386.839844 69.507812 L 386.839844 71.710938 C 386.839844 76.859375 392.855469 76.859375 392.855469 80.589844 L 392.855469 82.597656 C 392.855469 83.640625 392.035156 84.347656 390.824219 84.347656 C 389.578125 84.347656 388.730469 83.613281 388.730469 82.484375 L 388.730469 78.894531 L 386.753906 78.894531 L 386.753906 82.484375 C 386.753906 84.746094 388.363281 86.125 390.796875 86.125 C 393.222656 86.125 394.890625 84.828125 394.890625 82.539062 M 450.800781 67.898438 L 450.800781 66.175781 L 443.761719 66.175781 L 443.761719 85.957031 L 450.800781 85.957031 L 450.800781 84.238281 L 445.796875 84.238281 L 445.796875 76.859375 L 449.949219 76.859375 L 449.949219 75.132812 L 445.796875 75.132812 L 445.796875 67.898438 Z M 412.273438 82.371094 C 412.273438 83.5 411.539062 84.238281 410.351562 84.238281 L 408.203125 84.238281 L 408.203125 67.898438 L 410.351562 67.898438 C 411.539062 67.898438 412.273438 68.664062 412.273438 69.761719 Z M 410.351562 66.175781 L 406.171875 66.175781 L 406.171875 85.957031 L 410.351562 85.957031 C 412.78125 85.957031 414.308594 84.632812 414.308594 82.371094 L 414.308594 69.761719 C 414.308594 67.5 412.78125 66.175781 410.351562 66.175781 M 396.613281 110.746094 C 396.613281 111.851562 395.796875 112.613281 394.582031 112.613281 C 393.339844 112.613281 392.546875 111.851562 392.546875 110.746094 L 392.546875 97.914062 C 392.546875 96.8125 393.339844 96.050781 394.582031 96.050781 C 395.796875 96.050781 396.613281 96.8125 396.613281 97.914062 Z M 394.582031 94.269531 C 392.148438 94.269531 390.511719 95.65625 390.511719 97.914062 L 390.511719 110.746094 C 390.511719 113.011719 392.148438 114.390625 394.582031 114.390625 C 397.011719 114.390625 398.621094 113.011719 398.621094 110.746094 L 398.621094 97.914062 C 398.621094 95.65625 397.011719 94.269531 394.582031 94.269531 M 405.320312 107.101562 L 406.816406 98.109375 L 408.347656 107.101562 Z M 405.855469 94.300781 L 402.128906 114.222656 L 404.136719 114.222656 L 405.039062 108.824219 L 408.628906 108.824219 L 409.53125 114.222656 L 411.597656 114.222656 L 407.894531 94.300781 Z M 399.300781 85.957031 L 401.335938 85.957031 L 401.335938 66.175781 L 399.300781 66.175781 Z M 376.550781 67.898438 L 378.726562 67.898438 C 379.96875 67.898438 380.5625 68.691406 380.5625 69.703125 L 380.5625 73.492188 C 380.5625 74.539062 379.96875 75.273438 378.726562 75.273438 L 376.550781 75.273438 Z M 380.308594 79.035156 L 380.84375 85.957031 L 382.878906 85.957031 L 382.230469 78.976562 C 382.0625 77.421875 381.46875 76.605469 380.5625 76.207031 C 381.863281 75.753906 382.570312 74.652344 382.570312 72.984375 L 382.570312 69.648438 C 382.570312 67.476562 381.238281 66.175781 378.8125 66.175781 L 374.515625 66.175781 L 374.515625 85.957031 L 376.550781 85.957031 L 376.550781 77 L 378.1875 77 C 379.375 77 380.136719 77.480469 380.308594 79.035156 M 150.78125 114.644531 L 155.675781 114.644531 L 155.675781 65.75 L 150.78125 65.75 Z M 87.945312 111.167969 C 87.945312 121.957031 81.90625 130.699219 74.457031 130.699219 C 67.007812 130.699219 60.964844 121.957031 60.964844 111.167969 L 60.964844 48.894531 L 48.894531 48.894531 L 48.894531 105.136719 C 48.894531 120.871094 60.339844 131.5 74.457031 131.5 C 88.574219 131.5 100.019531 120.871094 100.019531 105.136719 L 100.019531 48.894531 L 87.945312 48.894531 Z M 199.964844 107.3125 C 199.964844 109.058594 198.984375 110.246094 196.960938 110.246094 L 193.46875 110.246094 L 193.46875 92.292969 L 196.960938 92.292969 C 198.984375 92.292969 199.964844 93.480469 199.964844 95.226562 Z M 193.46875 70.082031 L 196.609375 70.082031 C 198.636719 70.082031 199.613281 71.339844 199.613281 73.085938 L 199.613281 84.960938 C 199.613281 86.707031 198.636719 87.894531 196.609375 87.894531 L 193.46875 87.894531 Z M 200.941406 90.058594 C 203.316406 89.152344 204.507812 87.402344 204.507812 84.960938 L 204.507812 73.085938 C 204.507812 68.335938 201.851562 65.75 196.609375 65.75 L 188.578125 65.75 L 188.578125 114.644531 L 196.960938 114.644531 C 202.199219 114.644531 204.855469 111.992188 204.855469 107.3125 L 204.855469 95.226562 C 204.855469 92.644531 203.527344 90.898438 200.941406 90.058594 M 322.394531 86.125 C 324.824219 86.125 326.464844 84.746094 326.464844 82.484375 L 326.464844 66.175781 L 324.460938 66.175781 L 324.460938 82.484375 C 324.460938 83.613281 323.640625 84.347656 322.394531 84.347656 C 321.179688 84.347656 320.359375 83.613281 320.359375 82.484375 L 320.359375 66.175781 L 318.355469 66.175781 L 318.355469 82.484375 C 318.355469 84.746094 319.964844 86.125 322.394531 86.125 M 135.203125 65.75 L 130.316406 65.75 L 130.316406 114.644531 L 143.867188 114.644531 L 143.867188 110.246094 L 135.203125 110.246094 Z M 172.164062 65.402344 C 166.925781 65.402344 164.0625 68.265625 164.0625 73.015625 L 164.0625 79.859375 C 164.0625 91.664062 175.378906 92.644531 175.378906 101.304688 L 175.378906 107.382812 C 175.378906 109.128906 174.191406 110.386719 172.164062 110.386719 C 170.140625 110.386719 168.953125 109.128906 168.953125 107.382812 L 168.953125 97.183594 L 164.0625 97.183594 L 164.0625 107.382812 C 164.0625 112.132812 166.925781 114.996094 172.164062 114.996094 C 177.398438 114.996094 180.261719 112.132812 180.261719 107.382812 L 180.261719 101.304688 C 180.261719 89.777344 168.953125 88.171875 168.953125 79.859375 L 168.953125 73.015625 C 168.953125 71.269531 170.140625 70.011719 172.164062 70.011719 C 174.191406 70.011719 175.378906 71.269531 175.378906 73.015625 L 175.378906 83.214844 L 180.261719 83.214844 L 180.261719 73.015625 C 180.261719 68.265625 177.398438 65.402344 172.164062 65.402344 M 285.144531 131.5 L 286.851562 131.5 L 286.851562 48.894531 L 285.144531 48.894531 Z M 324.460938 110.636719 C 324.460938 111.765625 323.722656 112.5 322.535156 112.5 L 320.390625 112.5 L 320.390625 96.164062 L 322.535156 96.164062 C 323.722656 96.164062 324.460938 96.925781 324.460938 98.027344 Z M 322.535156 94.441406 L 318.355469 94.441406 L 318.355469 114.222656 L 322.535156 114.222656 C 324.96875 114.222656 326.492188 112.894531 326.492188 110.636719 L 326.492188 98.027344 C 326.492188 95.769531 324.96875 94.441406 322.535156 94.441406 M 331.128906 114.222656 L 338.164062 114.222656 L 338.164062 112.5 L 333.164062 112.5 L 333.164062 105.121094 L 337.316406 105.121094 L 337.316406 103.398438 L 333.164062 103.398438 L 333.164062 96.164062 L 338.164062 96.164062 L 338.164062 94.441406 L 331.128906 94.441406 Z M 224.207031 107.382812 C 224.207031 109.128906 223.019531 110.386719 220.992188 110.386719 C 218.96875 110.386719 217.777344 109.128906 217.777344 107.382812 L 217.777344 73.015625 C 217.777344 71.269531 218.96875 70.011719 220.992188 70.011719 C 223.019531 70.011719 224.207031 71.269531 224.207031 73.015625 Z M 220.992188 65.402344 C 215.753906 65.402344 212.890625 68.265625 212.890625 73.015625 L 212.890625 107.382812 C 212.890625 112.132812 215.753906 114.996094 220.992188 114.996094 C 226.230469 114.996094 229.097656 112.132812 229.097656 107.382812 L 229.097656 73.015625 C 229.097656 68.265625 226.230469 65.402344 220.992188 65.402344 M 242.367188 96.972656 L 244.742188 77.136719 L 247.117188 96.972656 Z M 242.4375 65.402344 L 235.59375 114.644531 L 240.273438 114.644531 L 241.882812 101.375 L 247.609375 101.375 L 249.214844 114.644531 L 254.105469 114.644531 L 247.328125 65.402344 Z M 242.4375 65.402344 "/>
</g>
</svg>
