<?xml version="1.0" encoding="utf-8" standalone="no"?>
<!DOCTYPE svg PUBLIC "-//W3C//DTD SVG 1.1//EN"
  "http://www.w3.org/Graphics/SVG/1.1/DTD/svg11.dtd">
<!-- Created with matplotlib (https://matplotlib.org/) -->
<svg height="300.24pt" version="1.1" viewBox="0 0 450 300.24" width="450pt" xmlns="http://www.w3.org/2000/svg" xmlns:xlink="http://www.w3.org/1999/xlink">
 <defs>
  <style type="text/css">
*{stroke-linecap:butt;stroke-linejoin:round;}
  </style>
 </defs>
 <g id="figure_1">
  <g id="patch_1">
   <path d="M 0 300.24 
L 450 300.24 
L 450 0 
L 0 0 
z
" style="fill:#ffffff;"/>
  </g>
  <g id="axes_1">
   <g id="patch_2">
    <path d="M 56.25 262.71 
L 405 262.71 
L 405 36.0288 
L 56.25 36.0288 
z
" style="fill:#ffffff;"/>
   </g>
   <g id="matplotlib.axis_1">
    <g id="xtick_1">
     <g id="line2d_1">
      <path clip-path="url(#p9c8ebe5c2f)" d="M 72.102273 262.71 
L 72.102273 36.0288 
" style="fill:none;stroke:#cccccc;stroke-linecap:round;"/>
     </g>
     <g id="text_1">
      <!-- $\mathdefault{10^{0}}$ -->
      <defs>
       <path d="M 37.25 0 
L 28.46875 0 
L 28.46875 56 
Q 25.296875 52.984375 20.140625 49.953125 
Q 14.984375 46.921875 10.890625 45.40625 
L 10.890625 53.90625 
Q 18.265625 57.375 23.78125 62.296875 
Q 29.296875 67.234375 31.59375 71.875 
L 37.25 71.875 
z
" id="ArialMT-49"/>
       <path d="M 4.15625 35.296875 
Q 4.15625 48 6.765625 55.734375 
Q 9.375 63.484375 14.515625 67.671875 
Q 19.671875 71.875 27.484375 71.875 
Q 33.25 71.875 37.59375 69.546875 
Q 41.9375 67.234375 44.765625 62.859375 
Q 47.609375 58.5 49.21875 52.21875 
Q 50.828125 45.953125 50.828125 35.296875 
Q 50.828125 22.703125 48.234375 14.96875 
Q 45.65625 7.234375 40.5 3 
Q 35.359375 -1.21875 27.484375 -1.21875 
Q 17.140625 -1.21875 11.234375 6.203125 
Q 4.15625 15.140625 4.15625 35.296875 
z
M 13.1875 35.296875 
Q 13.1875 17.671875 17.3125 11.828125 
Q 21.4375 6 27.484375 6 
Q 33.546875 6 37.671875 11.859375 
Q 41.796875 17.71875 41.796875 35.296875 
Q 41.796875 52.984375 37.671875 58.78125 
Q 33.546875 64.59375 27.390625 64.59375 
Q 21.34375 64.59375 17.71875 59.46875 
Q 13.1875 52.9375 13.1875 35.296875 
z
" id="ArialMT-48"/>
      </defs>
      <g style="fill:#262626;" transform="translate(63.467273 283.55375)scale(0.11 -0.11)">
       <use transform="translate(0 0.99375)" xlink:href="#ArialMT-49"/>
       <use transform="translate(55.615234 0.99375)" xlink:href="#ArialMT-48"/>
       <use transform="translate(112.972813 70.6875)scale(0.7)" xlink:href="#ArialMT-48"/>
      </g>
     </g>
    </g>
    <g id="xtick_2">
     <g id="line2d_2">
      <path clip-path="url(#p9c8ebe5c2f)" d="M 135.511364 262.71 
L 135.511364 36.0288 
" style="fill:none;stroke:#cccccc;stroke-linecap:round;"/>
     </g>
     <g id="text_2">
      <!-- $\mathdefault{10^{1}}$ -->
      <g style="fill:#262626;" transform="translate(126.876364 283.55375)scale(0.11 -0.11)">
       <use transform="translate(0 0.99375)" xlink:href="#ArialMT-49"/>
       <use transform="translate(55.615234 0.99375)" xlink:href="#ArialMT-48"/>
       <use transform="translate(112.972813 70.6875)scale(0.7)" xlink:href="#ArialMT-49"/>
      </g>
     </g>
    </g>
    <g id="xtick_3">
     <g id="line2d_3">
      <path clip-path="url(#p9c8ebe5c2f)" d="M 198.920455 262.71 
L 198.920455 36.0288 
" style="fill:none;stroke:#cccccc;stroke-linecap:round;"/>
     </g>
     <g id="text_3">
      <!-- $\mathdefault{10^{2}}$ -->
      <defs>
       <path d="M 50.34375 8.453125 
L 50.34375 0 
L 3.03125 0 
Q 2.9375 3.171875 4.046875 6.109375 
Q 5.859375 10.9375 9.828125 15.625 
Q 13.8125 20.3125 21.34375 26.46875 
Q 33.015625 36.03125 37.109375 41.625 
Q 41.21875 47.21875 41.21875 52.203125 
Q 41.21875 57.421875 37.46875 61 
Q 33.734375 64.59375 27.734375 64.59375 
Q 21.390625 64.59375 17.578125 60.78125 
Q 13.765625 56.984375 13.71875 50.25 
L 4.6875 51.171875 
Q 5.609375 61.28125 11.65625 66.578125 
Q 17.71875 71.875 27.9375 71.875 
Q 38.234375 71.875 44.234375 66.15625 
Q 50.25 60.453125 50.25 52 
Q 50.25 47.703125 48.484375 43.546875 
Q 46.734375 39.40625 42.65625 34.8125 
Q 38.578125 30.21875 29.109375 22.21875 
Q 21.1875 15.578125 18.9375 13.203125 
Q 16.703125 10.84375 15.234375 8.453125 
z
" id="ArialMT-50"/>
      </defs>
      <g style="fill:#262626;" transform="translate(190.285455 283.55375)scale(0.11 -0.11)">
       <use transform="translate(0 0.99375)" xlink:href="#ArialMT-49"/>
       <use transform="translate(55.615234 0.99375)" xlink:href="#ArialMT-48"/>
       <use transform="translate(112.972813 70.6875)scale(0.7)" xlink:href="#ArialMT-50"/>
      </g>
     </g>
    </g>
    <g id="xtick_4">
     <g id="line2d_4">
      <path clip-path="url(#p9c8ebe5c2f)" d="M 262.329545 262.71 
L 262.329545 36.0288 
" style="fill:none;stroke:#cccccc;stroke-linecap:round;"/>
     </g>
     <g id="text_4">
      <!-- $\mathdefault{10^{3}}$ -->
      <defs>
       <path d="M 4.203125 18.890625 
L 12.984375 20.0625 
Q 14.5 12.59375 18.140625 9.296875 
Q 21.78125 6 27 6 
Q 33.203125 6 37.46875 10.296875 
Q 41.75 14.59375 41.75 20.953125 
Q 41.75 27 37.796875 30.921875 
Q 33.84375 34.859375 27.734375 34.859375 
Q 25.25 34.859375 21.53125 33.890625 
L 22.515625 41.609375 
Q 23.390625 41.5 23.921875 41.5 
Q 29.546875 41.5 34.03125 44.421875 
Q 38.53125 47.359375 38.53125 53.46875 
Q 38.53125 58.296875 35.25 61.46875 
Q 31.984375 64.65625 26.8125 64.65625 
Q 21.6875 64.65625 18.265625 61.421875 
Q 14.84375 58.203125 13.875 51.765625 
L 5.078125 53.328125 
Q 6.6875 62.15625 12.390625 67.015625 
Q 18.109375 71.875 26.609375 71.875 
Q 32.46875 71.875 37.390625 69.359375 
Q 42.328125 66.84375 44.9375 62.5 
Q 47.5625 58.15625 47.5625 53.265625 
Q 47.5625 48.640625 45.0625 44.828125 
Q 42.578125 41.015625 37.703125 38.765625 
Q 44.046875 37.3125 47.5625 32.6875 
Q 51.078125 28.078125 51.078125 21.140625 
Q 51.078125 11.765625 44.234375 5.25 
Q 37.40625 -1.265625 26.953125 -1.265625 
Q 17.53125 -1.265625 11.296875 4.34375 
Q 5.078125 9.96875 4.203125 18.890625 
z
" id="ArialMT-51"/>
      </defs>
      <g style="fill:#262626;" transform="translate(253.694545 283.55375)scale(0.11 -0.11)">
       <use transform="translate(0 0.99375)" xlink:href="#ArialMT-49"/>
       <use transform="translate(55.615234 0.99375)" xlink:href="#ArialMT-48"/>
       <use transform="translate(112.972813 70.6875)scale(0.7)" xlink:href="#ArialMT-51"/>
      </g>
     </g>
    </g>
    <g id="xtick_5">
     <g id="line2d_5">
      <path clip-path="url(#p9c8ebe5c2f)" d="M 325.738636 262.71 
L 325.738636 36.0288 
" style="fill:none;stroke:#cccccc;stroke-linecap:round;"/>
     </g>
     <g id="text_5">
      <!-- $\mathdefault{10^{4}}$ -->
      <defs>
       <path d="M 32.328125 0 
L 32.328125 17.140625 
L 1.265625 17.140625 
L 1.265625 25.203125 
L 33.9375 71.578125 
L 41.109375 71.578125 
L 41.109375 25.203125 
L 50.78125 25.203125 
L 50.78125 17.140625 
L 41.109375 17.140625 
L 41.109375 0 
z
M 32.328125 25.203125 
L 32.328125 57.46875 
L 9.90625 25.203125 
z
" id="ArialMT-52"/>
      </defs>
      <g style="fill:#262626;" transform="translate(317.103636 283.44375)scale(0.11 -0.11)">
       <use transform="translate(0 0.201563)" xlink:href="#ArialMT-49"/>
       <use transform="translate(55.615234 0.201563)" xlink:href="#ArialMT-48"/>
       <use transform="translate(112.972813 69.895313)scale(0.7)" xlink:href="#ArialMT-52"/>
      </g>
     </g>
    </g>
    <g id="xtick_6">
     <g id="line2d_6">
      <path clip-path="url(#p9c8ebe5c2f)" d="M 389.147727 262.71 
L 389.147727 36.0288 
" style="fill:none;stroke:#cccccc;stroke-linecap:round;"/>
     </g>
     <g id="text_6">
      <!-- $\mathdefault{10^{5}}$ -->
      <defs>
       <path d="M 4.15625 18.75 
L 13.375 19.53125 
Q 14.40625 12.796875 18.140625 9.390625 
Q 21.875 6 27.15625 6 
Q 33.5 6 37.890625 10.78125 
Q 42.28125 15.578125 42.28125 23.484375 
Q 42.28125 31 38.0625 35.34375 
Q 33.84375 39.703125 27 39.703125 
Q 22.75 39.703125 19.328125 37.765625 
Q 15.921875 35.84375 13.96875 32.765625 
L 5.71875 33.84375 
L 12.640625 70.609375 
L 48.25 70.609375 
L 48.25 62.203125 
L 19.671875 62.203125 
L 15.828125 42.96875 
Q 22.265625 47.46875 29.34375 47.46875 
Q 38.71875 47.46875 45.15625 40.96875 
Q 51.609375 34.46875 51.609375 24.265625 
Q 51.609375 14.546875 45.953125 7.46875 
Q 39.0625 -1.21875 27.15625 -1.21875 
Q 17.390625 -1.21875 11.203125 4.25 
Q 5.03125 9.71875 4.15625 18.75 
z
" id="ArialMT-53"/>
      </defs>
      <g style="fill:#262626;" transform="translate(380.512727 283.44375)scale(0.11 -0.11)">
       <use transform="translate(0 0.879688)" xlink:href="#ArialMT-49"/>
       <use transform="translate(55.615234 0.879688)" xlink:href="#ArialMT-48"/>
       <use transform="translate(112.972813 70.573438)scale(0.7)" xlink:href="#ArialMT-53"/>
      </g>
     </g>
    </g>
    <g id="xtick_7"/>
    <g id="xtick_8"/>
    <g id="xtick_9"/>
    <g id="xtick_10"/>
    <g id="xtick_11"/>
    <g id="xtick_12"/>
    <g id="xtick_13"/>
    <g id="xtick_14"/>
    <g id="xtick_15"/>
    <g id="xtick_16"/>
    <g id="xtick_17"/>
    <g id="xtick_18"/>
    <g id="xtick_19"/>
    <g id="xtick_20"/>
    <g id="xtick_21"/>
    <g id="xtick_22"/>
    <g id="xtick_23"/>
    <g id="xtick_24"/>
    <g id="xtick_25"/>
    <g id="xtick_26"/>
    <g id="xtick_27"/>
    <g id="xtick_28"/>
    <g id="xtick_29"/>
    <g id="xtick_30"/>
    <g id="xtick_31"/>
    <g id="xtick_32"/>
    <g id="xtick_33"/>
    <g id="xtick_34"/>
    <g id="xtick_35"/>
    <g id="xtick_36"/>
    <g id="xtick_37"/>
    <g id="xtick_38"/>
    <g id="xtick_39"/>
    <g id="xtick_40"/>
    <g id="xtick_41"/>
    <g id="xtick_42"/>
    <g id="xtick_43"/>
    <g id="xtick_44"/>
    <g id="xtick_45"/>
    <g id="xtick_46"/>
    <g id="xtick_47"/>
    <g id="xtick_48"/>
    <g id="xtick_49"/>
    <g id="xtick_50"/>
    <g id="text_7">
     <!-- Word Frequency Rank -->
     <defs>
      <path d="M 20.21875 0 
L 1.21875 71.578125 
L 10.9375 71.578125 
L 21.828125 24.65625 
Q 23.578125 17.28125 24.859375 10.015625 
Q 27.59375 21.484375 28.078125 23.25 
L 41.703125 71.578125 
L 53.125 71.578125 
L 63.375 35.359375 
Q 67.234375 21.875 68.953125 10.015625 
Q 70.3125 16.796875 72.515625 25.59375 
L 83.734375 71.578125 
L 93.265625 71.578125 
L 73.640625 0 
L 64.5 0 
L 49.421875 54.546875 
Q 47.515625 61.375 47.171875 62.9375 
Q 46.046875 58.015625 45.0625 54.546875 
L 29.890625 0 
z
" id="ArialMT-87"/>
      <path d="M 3.328125 25.921875 
Q 3.328125 40.328125 11.328125 47.265625 
Q 18.015625 53.03125 27.640625 53.03125 
Q 38.328125 53.03125 45.109375 46.015625 
Q 51.90625 39.015625 51.90625 26.65625 
Q 51.90625 16.65625 48.90625 10.90625 
Q 45.90625 5.171875 40.15625 2 
Q 34.421875 -1.171875 27.640625 -1.171875 
Q 16.75 -1.171875 10.03125 5.8125 
Q 3.328125 12.796875 3.328125 25.921875 
z
M 12.359375 25.921875 
Q 12.359375 15.96875 16.703125 11.015625 
Q 21.046875 6.0625 27.640625 6.0625 
Q 34.1875 6.0625 38.53125 11.03125 
Q 42.875 16.015625 42.875 26.21875 
Q 42.875 35.84375 38.5 40.796875 
Q 34.125 45.75 27.640625 45.75 
Q 21.046875 45.75 16.703125 40.8125 
Q 12.359375 35.890625 12.359375 25.921875 
z
" id="ArialMT-111"/>
      <path d="M 6.5 0 
L 6.5 51.859375 
L 14.40625 51.859375 
L 14.40625 44 
Q 17.4375 49.515625 20 51.265625 
Q 22.5625 53.03125 25.640625 53.03125 
Q 30.078125 53.03125 34.671875 50.203125 
L 31.640625 42.046875 
Q 28.421875 43.953125 25.203125 43.953125 
Q 22.3125 43.953125 20.015625 42.21875 
Q 17.71875 40.484375 16.75 37.40625 
Q 15.28125 32.71875 15.28125 27.15625 
L 15.28125 0 
z
" id="ArialMT-114"/>
      <path d="M 40.234375 0 
L 40.234375 6.546875 
Q 35.296875 -1.171875 25.734375 -1.171875 
Q 19.53125 -1.171875 14.328125 2.25 
Q 9.125 5.671875 6.265625 11.796875 
Q 3.421875 17.921875 3.421875 25.875 
Q 3.421875 33.640625 6 39.96875 
Q 8.59375 46.296875 13.765625 49.65625 
Q 18.953125 53.03125 25.34375 53.03125 
Q 30.03125 53.03125 33.6875 51.046875 
Q 37.359375 49.078125 39.65625 45.90625 
L 39.65625 71.578125 
L 48.390625 71.578125 
L 48.390625 0 
z
M 12.453125 25.875 
Q 12.453125 15.921875 16.640625 10.984375 
Q 20.84375 6.0625 26.5625 6.0625 
Q 32.328125 6.0625 36.34375 10.765625 
Q 40.375 15.484375 40.375 25.140625 
Q 40.375 35.796875 36.265625 40.765625 
Q 32.171875 45.75 26.171875 45.75 
Q 20.3125 45.75 16.375 40.96875 
Q 12.453125 36.1875 12.453125 25.875 
z
" id="ArialMT-100"/>
      <path id="ArialMT-32"/>
      <path d="M 8.203125 0 
L 8.203125 71.578125 
L 56.5 71.578125 
L 56.5 63.140625 
L 17.671875 63.140625 
L 17.671875 40.96875 
L 51.265625 40.96875 
L 51.265625 32.515625 
L 17.671875 32.515625 
L 17.671875 0 
z
" id="ArialMT-70"/>
      <path d="M 42.09375 16.703125 
L 51.171875 15.578125 
Q 49.03125 7.625 43.21875 3.21875 
Q 37.40625 -1.171875 28.375 -1.171875 
Q 17 -1.171875 10.328125 5.828125 
Q 3.65625 12.84375 3.65625 25.484375 
Q 3.65625 38.578125 10.390625 45.796875 
Q 17.140625 53.03125 27.875 53.03125 
Q 38.28125 53.03125 44.875 45.953125 
Q 51.46875 38.875 51.46875 26.03125 
Q 51.46875 25.25 51.421875 23.6875 
L 12.75 23.6875 
Q 13.234375 15.140625 17.578125 10.59375 
Q 21.921875 6.0625 28.421875 6.0625 
Q 33.25 6.0625 36.671875 8.59375 
Q 40.09375 11.140625 42.09375 16.703125 
z
M 13.234375 30.90625 
L 42.1875 30.90625 
Q 41.609375 37.453125 38.875 40.71875 
Q 34.671875 45.796875 27.984375 45.796875 
Q 21.921875 45.796875 17.796875 41.75 
Q 13.671875 37.703125 13.234375 30.90625 
z
" id="ArialMT-101"/>
      <path d="M 39.65625 -19.875 
L 39.65625 5.515625 
Q 37.59375 2.640625 33.90625 0.734375 
Q 30.21875 -1.171875 26.078125 -1.171875 
Q 16.84375 -1.171875 10.171875 6.203125 
Q 3.515625 13.578125 3.515625 26.421875 
Q 3.515625 34.234375 6.21875 40.421875 
Q 8.9375 46.625 14.078125 49.828125 
Q 19.234375 53.03125 25.390625 53.03125 
Q 35.015625 53.03125 40.53125 44.921875 
L 40.53125 51.859375 
L 48.4375 51.859375 
L 48.4375 -19.875 
z
M 12.546875 26.078125 
Q 12.546875 16.0625 16.75 11.0625 
Q 20.953125 6.0625 26.8125 6.0625 
Q 32.421875 6.0625 36.46875 10.8125 
Q 40.53125 15.578125 40.53125 25.296875 
Q 40.53125 35.640625 36.25 40.859375 
Q 31.984375 46.09375 26.21875 46.09375 
Q 20.515625 46.09375 16.53125 41.234375 
Q 12.546875 36.375 12.546875 26.078125 
z
" id="ArialMT-113"/>
      <path d="M 40.578125 0 
L 40.578125 7.625 
Q 34.515625 -1.171875 24.125 -1.171875 
Q 19.53125 -1.171875 15.546875 0.578125 
Q 11.578125 2.34375 9.640625 5 
Q 7.71875 7.671875 6.9375 11.53125 
Q 6.390625 14.109375 6.390625 19.734375 
L 6.390625 51.859375 
L 15.1875 51.859375 
L 15.1875 23.09375 
Q 15.1875 16.21875 15.71875 13.8125 
Q 16.546875 10.359375 19.234375 8.375 
Q 21.921875 6.390625 25.875 6.390625 
Q 29.828125 6.390625 33.296875 8.421875 
Q 36.765625 10.453125 38.203125 13.9375 
Q 39.65625 17.4375 39.65625 24.078125 
L 39.65625 51.859375 
L 48.4375 51.859375 
L 48.4375 0 
z
" id="ArialMT-117"/>
      <path d="M 6.59375 0 
L 6.59375 51.859375 
L 14.5 51.859375 
L 14.5 44.484375 
Q 20.21875 53.03125 31 53.03125 
Q 35.6875 53.03125 39.625 51.34375 
Q 43.5625 49.65625 45.515625 46.921875 
Q 47.46875 44.1875 48.25 40.4375 
Q 48.734375 37.984375 48.734375 31.890625 
L 48.734375 0 
L 39.9375 0 
L 39.9375 31.546875 
Q 39.9375 36.921875 38.90625 39.578125 
Q 37.890625 42.234375 35.28125 43.8125 
Q 32.671875 45.40625 29.15625 45.40625 
Q 23.53125 45.40625 19.453125 41.84375 
Q 15.375 38.28125 15.375 28.328125 
L 15.375 0 
z
" id="ArialMT-110"/>
      <path d="M 40.4375 19 
L 49.078125 17.875 
Q 47.65625 8.9375 41.8125 3.875 
Q 35.984375 -1.171875 27.484375 -1.171875 
Q 16.84375 -1.171875 10.375 5.78125 
Q 3.90625 12.75 3.90625 25.734375 
Q 3.90625 34.125 6.6875 40.421875 
Q 9.46875 46.734375 15.15625 49.875 
Q 20.84375 53.03125 27.546875 53.03125 
Q 35.984375 53.03125 41.359375 48.75 
Q 46.734375 44.484375 48.25 36.625 
L 39.703125 35.296875 
Q 38.484375 40.53125 35.375 43.15625 
Q 32.28125 45.796875 27.875 45.796875 
Q 21.234375 45.796875 17.078125 41.03125 
Q 12.9375 36.28125 12.9375 25.984375 
Q 12.9375 15.53125 16.9375 10.796875 
Q 20.953125 6.0625 27.390625 6.0625 
Q 32.5625 6.0625 36.03125 9.234375 
Q 39.5 12.40625 40.4375 19 
z
" id="ArialMT-99"/>
      <path d="M 6.203125 -19.96875 
L 5.21875 -11.71875 
Q 8.109375 -12.5 10.25 -12.5 
Q 13.1875 -12.5 14.9375 -11.515625 
Q 16.703125 -10.546875 17.828125 -8.796875 
Q 18.65625 -7.46875 20.515625 -2.25 
Q 20.75 -1.515625 21.296875 -0.09375 
L 1.609375 51.859375 
L 11.078125 51.859375 
L 21.875 21.828125 
Q 23.96875 16.109375 25.640625 9.8125 
Q 27.15625 15.875 29.25 21.625 
L 40.328125 51.859375 
L 49.125 51.859375 
L 29.390625 -0.875 
Q 26.21875 -9.421875 24.46875 -12.640625 
Q 22.125 -17 19.09375 -19.015625 
Q 16.0625 -21.046875 11.859375 -21.046875 
Q 9.328125 -21.046875 6.203125 -19.96875 
z
" id="ArialMT-121"/>
      <path d="M 7.859375 0 
L 7.859375 71.578125 
L 39.59375 71.578125 
Q 49.171875 71.578125 54.140625 69.640625 
Q 59.125 67.71875 62.109375 62.828125 
Q 65.09375 57.953125 65.09375 52.046875 
Q 65.09375 44.4375 60.15625 39.203125 
Q 55.21875 33.984375 44.921875 32.5625 
Q 48.6875 30.765625 50.640625 29 
Q 54.78125 25.203125 58.5 19.484375 
L 70.953125 0 
L 59.03125 0 
L 49.5625 14.890625 
Q 45.40625 21.34375 42.71875 24.75 
Q 40.046875 28.171875 37.921875 29.53125 
Q 35.796875 30.90625 33.59375 31.453125 
Q 31.984375 31.78125 28.328125 31.78125 
L 17.328125 31.78125 
L 17.328125 0 
z
M 17.328125 39.984375 
L 37.703125 39.984375 
Q 44.1875 39.984375 47.84375 41.328125 
Q 51.515625 42.671875 53.421875 45.625 
Q 55.328125 48.578125 55.328125 52.046875 
Q 55.328125 57.125 51.640625 60.390625 
Q 47.953125 63.671875 39.984375 63.671875 
L 17.328125 63.671875 
z
" id="ArialMT-82"/>
      <path d="M 40.4375 6.390625 
Q 35.546875 2.25 31.03125 0.53125 
Q 26.515625 -1.171875 21.34375 -1.171875 
Q 12.796875 -1.171875 8.203125 3 
Q 3.609375 7.171875 3.609375 13.671875 
Q 3.609375 17.484375 5.34375 20.625 
Q 7.078125 23.78125 9.890625 25.6875 
Q 12.703125 27.59375 16.21875 28.5625 
Q 18.796875 29.25 24.03125 29.890625 
Q 34.671875 31.15625 39.703125 32.90625 
Q 39.75 34.71875 39.75 35.203125 
Q 39.75 40.578125 37.25 42.78125 
Q 33.890625 45.75 27.25 45.75 
Q 21.046875 45.75 18.09375 43.578125 
Q 15.140625 41.40625 13.71875 35.890625 
L 5.125 37.0625 
Q 6.296875 42.578125 8.984375 45.96875 
Q 11.671875 49.359375 16.75 51.1875 
Q 21.828125 53.03125 28.515625 53.03125 
Q 35.15625 53.03125 39.296875 51.46875 
Q 43.453125 49.90625 45.40625 47.53125 
Q 47.359375 45.171875 48.140625 41.546875 
Q 48.578125 39.3125 48.578125 33.453125 
L 48.578125 21.734375 
Q 48.578125 9.46875 49.140625 6.21875 
Q 49.703125 2.984375 51.375 0 
L 42.1875 0 
Q 40.828125 2.734375 40.4375 6.390625 
z
M 39.703125 26.03125 
Q 34.90625 24.078125 25.34375 22.703125 
Q 19.921875 21.921875 17.671875 20.9375 
Q 15.4375 19.96875 14.203125 18.09375 
Q 12.984375 16.21875 12.984375 13.921875 
Q 12.984375 10.40625 15.640625 8.0625 
Q 18.3125 5.71875 23.4375 5.71875 
Q 28.515625 5.71875 32.46875 7.9375 
Q 36.421875 10.15625 38.28125 14.015625 
Q 39.703125 17 39.703125 22.796875 
z
" id="ArialMT-97"/>
      <path d="M 6.640625 0 
L 6.640625 71.578125 
L 15.4375 71.578125 
L 15.4375 30.765625 
L 36.234375 51.859375 
L 47.609375 51.859375 
L 27.78125 32.625 
L 49.609375 0 
L 38.765625 0 
L 21.625 26.515625 
L 15.4375 20.5625 
L 15.4375 0 
z
" id="ArialMT-107"/>
     </defs>
     <g style="fill:#262626;" transform="translate(170.710312 298.329375)scale(0.12 -0.12)">
      <use xlink:href="#ArialMT-87"/>
      <use x="92.634766" xlink:href="#ArialMT-111"/>
      <use x="148.25" xlink:href="#ArialMT-114"/>
      <use x="181.550781" xlink:href="#ArialMT-100"/>
      <use x="237.166016" xlink:href="#ArialMT-32"/>
      <use x="264.949219" xlink:href="#ArialMT-70"/>
      <use x="326.033203" xlink:href="#ArialMT-114"/>
      <use x="359.333984" xlink:href="#ArialMT-101"/>
      <use x="414.949219" xlink:href="#ArialMT-113"/>
      <use x="470.564453" xlink:href="#ArialMT-117"/>
      <use x="526.179688" xlink:href="#ArialMT-101"/>
      <use x="581.794922" xlink:href="#ArialMT-110"/>
      <use x="637.410156" xlink:href="#ArialMT-99"/>
      <use x="687.410156" xlink:href="#ArialMT-121"/>
      <use x="737.410156" xlink:href="#ArialMT-32"/>
      <use x="765.193359" xlink:href="#ArialMT-82"/>
      <use x="837.410156" xlink:href="#ArialMT-97"/>
      <use x="893.025391" xlink:href="#ArialMT-110"/>
      <use x="948.640625" xlink:href="#ArialMT-107"/>
     </g>
    </g>
   </g>
   <g id="matplotlib.axis_2">
    <g id="ytick_1">
     <g id="line2d_7">
      <path clip-path="url(#p9c8ebe5c2f)" d="M 56.25 252.406309 
L 405 252.406309 
" style="fill:none;stroke:#cccccc;stroke-linecap:round;"/>
     </g>
     <g id="text_8">
      <!-- $\mathdefault{10^{0}}$ -->
      <g style="fill:#262626;" transform="translate(29.48 258.078184)scale(0.11 -0.11)">
       <use transform="translate(0 0.99375)" xlink:href="#ArialMT-49"/>
       <use transform="translate(55.615234 0.99375)" xlink:href="#ArialMT-48"/>
       <use transform="translate(112.972813 70.6875)scale(0.7)" xlink:href="#ArialMT-48"/>
      </g>
     </g>
    </g>
    <g id="ytick_2">
     <g id="line2d_8">
      <path clip-path="url(#p9c8ebe5c2f)" d="M 56.25 218.333051 
L 405 218.333051 
" style="fill:none;stroke:#cccccc;stroke-linecap:round;"/>
     </g>
     <g id="text_9">
      <!-- $\mathdefault{10^{1}}$ -->
      <g style="fill:#262626;" transform="translate(29.48 224.004926)scale(0.11 -0.11)">
       <use transform="translate(0 0.99375)" xlink:href="#ArialMT-49"/>
       <use transform="translate(55.615234 0.99375)" xlink:href="#ArialMT-48"/>
       <use transform="translate(112.972813 70.6875)scale(0.7)" xlink:href="#ArialMT-49"/>
      </g>
     </g>
    </g>
    <g id="ytick_3">
     <g id="line2d_9">
      <path clip-path="url(#p9c8ebe5c2f)" d="M 56.25 184.259792 
L 405 184.259792 
" style="fill:none;stroke:#cccccc;stroke-linecap:round;"/>
     </g>
     <g id="text_10">
      <!-- $\mathdefault{10^{2}}$ -->
      <g style="fill:#262626;" transform="translate(29.48 189.931667)scale(0.11 -0.11)">
       <use transform="translate(0 0.99375)" xlink:href="#ArialMT-49"/>
       <use transform="translate(55.615234 0.99375)" xlink:href="#ArialMT-48"/>
       <use transform="translate(112.972813 70.6875)scale(0.7)" xlink:href="#ArialMT-50"/>
      </g>
     </g>
    </g>
    <g id="ytick_4">
     <g id="line2d_10">
      <path clip-path="url(#p9c8ebe5c2f)" d="M 56.25 150.186534 
L 405 150.186534 
" style="fill:none;stroke:#cccccc;stroke-linecap:round;"/>
     </g>
     <g id="text_11">
      <!-- $\mathdefault{10^{3}}$ -->
      <g style="fill:#262626;" transform="translate(29.48 155.858409)scale(0.11 -0.11)">
       <use transform="translate(0 0.99375)" xlink:href="#ArialMT-49"/>
       <use transform="translate(55.615234 0.99375)" xlink:href="#ArialMT-48"/>
       <use transform="translate(112.972813 70.6875)scale(0.7)" xlink:href="#ArialMT-51"/>
      </g>
     </g>
    </g>
    <g id="ytick_5">
     <g id="line2d_11">
      <path clip-path="url(#p9c8ebe5c2f)" d="M 56.25 116.113275 
L 405 116.113275 
" style="fill:none;stroke:#cccccc;stroke-linecap:round;"/>
     </g>
     <g id="text_12">
      <!-- $\mathdefault{10^{4}}$ -->
      <g style="fill:#262626;" transform="translate(29.48 121.73015)scale(0.11 -0.11)">
       <use transform="translate(0 0.201563)" xlink:href="#ArialMT-49"/>
       <use transform="translate(55.615234 0.201563)" xlink:href="#ArialMT-48"/>
       <use transform="translate(112.972813 69.895313)scale(0.7)" xlink:href="#ArialMT-52"/>
      </g>
     </g>
    </g>
    <g id="ytick_6">
     <g id="line2d_12">
      <path clip-path="url(#p9c8ebe5c2f)" d="M 56.25 82.040017 
L 405 82.040017 
" style="fill:none;stroke:#cccccc;stroke-linecap:round;"/>
     </g>
     <g id="text_13">
      <!-- $\mathdefault{10^{5}}$ -->
      <g style="fill:#262626;" transform="translate(29.48 87.656892)scale(0.11 -0.11)">
       <use transform="translate(0 0.879688)" xlink:href="#ArialMT-49"/>
       <use transform="translate(55.615234 0.879688)" xlink:href="#ArialMT-48"/>
       <use transform="translate(112.972813 70.573438)scale(0.7)" xlink:href="#ArialMT-53"/>
      </g>
     </g>
    </g>
    <g id="ytick_7">
     <g id="line2d_13">
      <path clip-path="url(#p9c8ebe5c2f)" d="M 56.25 47.966759 
L 405 47.966759 
" style="fill:none;stroke:#cccccc;stroke-linecap:round;"/>
     </g>
     <g id="text_14">
      <!-- $\mathdefault{10^{6}}$ -->
      <defs>
       <path d="M 49.75 54.046875 
L 41.015625 53.375 
Q 39.84375 58.546875 37.703125 60.890625 
Q 34.125 64.65625 28.90625 64.65625 
Q 24.703125 64.65625 21.53125 62.3125 
Q 17.390625 59.28125 14.984375 53.46875 
Q 12.59375 47.65625 12.5 36.921875 
Q 15.671875 41.75 20.265625 44.09375 
Q 24.859375 46.4375 29.890625 46.4375 
Q 38.671875 46.4375 44.84375 39.96875 
Q 51.03125 33.5 51.03125 23.25 
Q 51.03125 16.5 48.125 10.71875 
Q 45.21875 4.9375 40.140625 1.859375 
Q 35.0625 -1.21875 28.609375 -1.21875 
Q 17.625 -1.21875 10.6875 6.859375 
Q 3.765625 14.9375 3.765625 33.5 
Q 3.765625 54.25 11.421875 63.671875 
Q 18.109375 71.875 29.4375 71.875 
Q 37.890625 71.875 43.28125 67.140625 
Q 48.6875 62.40625 49.75 54.046875 
z
M 13.875 23.1875 
Q 13.875 18.65625 15.796875 14.5 
Q 17.71875 10.359375 21.1875 8.171875 
Q 24.65625 6 28.46875 6 
Q 34.03125 6 38.03125 10.484375 
Q 42.046875 14.984375 42.046875 22.703125 
Q 42.046875 30.125 38.078125 34.390625 
Q 34.125 38.671875 28.125 38.671875 
Q 22.171875 38.671875 18.015625 34.390625 
Q 13.875 30.125 13.875 23.1875 
z
" id="ArialMT-54"/>
      </defs>
      <g style="fill:#262626;" transform="translate(29.48 53.638634)scale(0.11 -0.11)">
       <use transform="translate(0 0.99375)" xlink:href="#ArialMT-49"/>
       <use transform="translate(55.615234 0.99375)" xlink:href="#ArialMT-48"/>
       <use transform="translate(112.972813 70.6875)scale(0.7)" xlink:href="#ArialMT-54"/>
      </g>
     </g>
    </g>
    <g id="ytick_8"/>
    <g id="ytick_9"/>
    <g id="ytick_10"/>
    <g id="ytick_11"/>
    <g id="ytick_12"/>
    <g id="ytick_13"/>
    <g id="ytick_14"/>
    <g id="ytick_15"/>
    <g id="ytick_16"/>
    <g id="ytick_17"/>
    <g id="ytick_18"/>
    <g id="ytick_19"/>
    <g id="ytick_20"/>
    <g id="ytick_21"/>
    <g id="ytick_22"/>
    <g id="ytick_23"/>
    <g id="ytick_24"/>
    <g id="ytick_25"/>
    <g id="ytick_26"/>
    <g id="ytick_27"/>
    <g id="ytick_28"/>
    <g id="ytick_29"/>
    <g id="ytick_30"/>
    <g id="ytick_31"/>
    <g id="ytick_32"/>
    <g id="ytick_33"/>
    <g id="ytick_34"/>
    <g id="ytick_35"/>
    <g id="ytick_36"/>
    <g id="ytick_37"/>
    <g id="ytick_38"/>
    <g id="ytick_39"/>
    <g id="ytick_40"/>
    <g id="ytick_41"/>
    <g id="ytick_42"/>
    <g id="ytick_43"/>
    <g id="ytick_44"/>
    <g id="ytick_45"/>
    <g id="ytick_46"/>
    <g id="ytick_47"/>
    <g id="ytick_48"/>
    <g id="ytick_49"/>
    <g id="ytick_50"/>
    <g id="ytick_51"/>
    <g id="ytick_52"/>
    <g id="ytick_53"/>
    <g id="ytick_54"/>
    <g id="ytick_55"/>
    <g id="ytick_56"/>
    <g id="ytick_57"/>
    <g id="ytick_58"/>
    <g id="ytick_59"/>
    <g id="ytick_60"/>
    <g id="ytick_61"/>
    <g id="text_15">
     <!-- Word Frequencies -->
     <defs>
      <path d="M 6.640625 61.46875 
L 6.640625 71.578125 
L 15.4375 71.578125 
L 15.4375 61.46875 
z
M 6.640625 0 
L 6.640625 51.859375 
L 15.4375 51.859375 
L 15.4375 0 
z
" id="ArialMT-105"/>
      <path d="M 3.078125 15.484375 
L 11.765625 16.84375 
Q 12.5 11.625 15.84375 8.84375 
Q 19.1875 6.0625 25.203125 6.0625 
Q 31.25 6.0625 34.171875 8.515625 
Q 37.109375 10.984375 37.109375 14.3125 
Q 37.109375 17.28125 34.515625 19 
Q 32.71875 20.171875 25.53125 21.96875 
Q 15.875 24.421875 12.140625 26.203125 
Q 8.40625 27.984375 6.46875 31.125 
Q 4.546875 34.28125 4.546875 38.09375 
Q 4.546875 41.546875 6.125 44.5 
Q 7.71875 47.46875 10.453125 49.421875 
Q 12.5 50.921875 16.03125 51.96875 
Q 19.578125 53.03125 23.640625 53.03125 
Q 29.734375 53.03125 34.34375 51.265625 
Q 38.96875 49.515625 41.15625 46.5 
Q 43.359375 43.5 44.1875 38.484375 
L 35.59375 37.3125 
Q 35.015625 41.3125 32.203125 43.546875 
Q 29.390625 45.796875 24.265625 45.796875 
Q 18.21875 45.796875 15.625 43.796875 
Q 13.03125 41.796875 13.03125 39.109375 
Q 13.03125 37.40625 14.109375 36.03125 
Q 15.1875 34.625 17.484375 33.6875 
Q 18.796875 33.203125 25.25 31.453125 
Q 34.578125 28.953125 38.25 27.359375 
Q 41.9375 25.78125 44.03125 22.75 
Q 46.140625 19.734375 46.140625 15.234375 
Q 46.140625 10.84375 43.578125 6.953125 
Q 41.015625 3.078125 36.171875 0.953125 
Q 31.34375 -1.171875 25.25 -1.171875 
Q 15.140625 -1.171875 9.84375 3.03125 
Q 4.546875 7.234375 3.078125 15.484375 
z
" id="ArialMT-115"/>
     </defs>
     <g style="fill:#262626;" transform="translate(23.095 198.28065)rotate(-90)scale(0.12 -0.12)">
      <use xlink:href="#ArialMT-87"/>
      <use x="92.634766" xlink:href="#ArialMT-111"/>
      <use x="148.25" xlink:href="#ArialMT-114"/>
      <use x="181.550781" xlink:href="#ArialMT-100"/>
      <use x="237.166016" xlink:href="#ArialMT-32"/>
      <use x="264.949219" xlink:href="#ArialMT-70"/>
      <use x="326.033203" xlink:href="#ArialMT-114"/>
      <use x="359.333984" xlink:href="#ArialMT-101"/>
      <use x="414.949219" xlink:href="#ArialMT-113"/>
      <use x="470.564453" xlink:href="#ArialMT-117"/>
      <use x="526.179688" xlink:href="#ArialMT-101"/>
      <use x="581.794922" xlink:href="#ArialMT-110"/>
      <use x="637.410156" xlink:href="#ArialMT-99"/>
      <use x="687.410156" xlink:href="#ArialMT-105"/>
      <use x="709.626953" xlink:href="#ArialMT-101"/>
      <use x="765.242188" xlink:href="#ArialMT-115"/>
     </g>
    </g>
   </g>
   <g id="PathCollection_1">
    <defs>
     <path d="M 0 1.5 
C 0.397805 1.5 0.77937 1.341951 1.06066 1.06066 
C 1.341951 0.77937 1.5 0.397805 1.5 0 
C 1.5 -0.397805 1.341951 -0.77937 1.06066 -1.06066 
C 0.77937 -1.341951 0.397805 -1.5 0 -1.5 
C -0.397805 -1.5 -0.77937 -1.341951 -1.06066 -1.06066 
C -1.341951 -0.77937 -1.5 -0.397805 -1.5 0 
C -1.5 0.397805 -1.341951 0.77937 -1.06066 1.06066 
C -0.77937 1.341951 -0.397805 1.5 0 1.5 
z
" id="mabedf09254" style="stroke:#ff5335;"/>
    </defs>
    <g clip-path="url(#p9c8ebe5c2f)">
     <use style="fill:#ff5335;stroke:#ff5335;" x="72.102273" xlink:href="#mabedf09254" y="46.332491"/>
    </g>
   </g>
   <g id="PathCollection_2">
    <g clip-path="url(#p9c8ebe5c2f)">
     <use style="fill:#ff5335;stroke:#ff5335;" x="72.102273" xlink:href="#mabedf09254" y="46.332491"/>
    </g>
   </g>
   <g id="PathCollection_3">
    <g clip-path="url(#p9c8ebe5c2f)">
     <use style="fill:#ff5335;stroke:#ff5335;" x="72.102273" xlink:href="#mabedf09254" y="46.332491"/>
    </g>
   </g>
   <g id="PathCollection_4">
    <g clip-path="url(#p9c8ebe5c2f)">
     <use style="fill:#ff5335;stroke:#ff5335;" x="91.190311" xlink:href="#mabedf09254" y="52.245232"/>
    </g>
   </g>
   <g id="PathCollection_5">
    <g clip-path="url(#p9c8ebe5c2f)">
     <use style="fill:#ff5335;stroke:#ff5335;" x="91.190311" xlink:href="#mabedf09254" y="52.245232"/>
    </g>
   </g>
   <g id="PathCollection_6">
    <g clip-path="url(#p9c8ebe5c2f)">
     <use style="fill:#ff5335;stroke:#ff5335;" x="102.356098" xlink:href="#mabedf09254" y="56.211868"/>
    </g>
   </g>
   <g id="PathCollection_7">
    <g clip-path="url(#p9c8ebe5c2f)">
     <use style="fill:#ff5335;stroke:#ff5335;" x="110.278349" xlink:href="#mabedf09254" y="56.658668"/>
    </g>
   </g>
   <g id="PathCollection_8">
    <g clip-path="url(#p9c8ebe5c2f)">
     <use style="fill:#ff5335;stroke:#ff5335;" x="121.444136" xlink:href="#mabedf09254" y="59.660199"/>
    </g>
   </g>
   <g id="PathCollection_9">
    <g clip-path="url(#p9c8ebe5c2f)">
     <use style="fill:#ff5335;stroke:#ff5335;" x="132.609923" xlink:href="#mabedf09254" y="66.134387"/>
    </g>
   </g>
   <g id="PathCollection_10">
    <g clip-path="url(#p9c8ebe5c2f)">
     <use style="fill:#ff5335;stroke:#ff5335;" x="142.736408" xlink:href="#mabedf09254" y="72.462125"/>
    </g>
   </g>
   <g id="PathCollection_11">
    <g clip-path="url(#p9c8ebe5c2f)">
     <use style="fill:#ff5335;stroke:#ff5335;" x="153.186876" xlink:href="#mabedf09254" y="77.733678"/>
    </g>
   </g>
   <g id="PathCollection_12">
    <g clip-path="url(#p9c8ebe5c2f)">
     <use style="fill:#ff5335;stroke:#ff5335;" x="164.8316" xlink:href="#mabedf09254" y="84.060876"/>
    </g>
   </g>
   <g id="PathCollection_13">
    <g clip-path="url(#p9c8ebe5c2f)">
     <use style="fill:#ff5335;stroke:#ff5335;" x="175.679023" xlink:href="#mabedf09254" y="94.254135"/>
    </g>
   </g>
   <g id="PathCollection_14">
    <g clip-path="url(#p9c8ebe5c2f)">
     <use style="fill:#ff5335;stroke:#ff5335;" x="187.057461" xlink:href="#mabedf09254" y="101.777032"/>
    </g>
   </g>
   <g id="PathCollection_15">
    <g clip-path="url(#p9c8ebe5c2f)">
     <use style="fill:#ff5335;stroke:#ff5335;" x="198.081662" xlink:href="#mabedf09254" y="108.648283"/>
    </g>
   </g>
   <g id="PathCollection_16">
    <g clip-path="url(#p9c8ebe5c2f)">
     <use style="fill:#ff5335;stroke:#ff5335;" x="209.152653" xlink:href="#mabedf09254" y="113.540388"/>
    </g>
   </g>
   <g id="PathCollection_17">
    <g clip-path="url(#p9c8ebe5c2f)">
     <use style="fill:#ff5335;stroke:#ff5335;" x="220.507706" xlink:href="#mabedf09254" y="118.965344"/>
    </g>
   </g>
   <g id="PathCollection_18">
    <g clip-path="url(#p9c8ebe5c2f)">
     <use style="fill:#ff5335;stroke:#ff5335;" x="231.715376" xlink:href="#mabedf09254" y="124.606384"/>
    </g>
   </g>
   <g id="PathCollection_19">
    <g clip-path="url(#p9c8ebe5c2f)">
     <use style="fill:#ff5335;stroke:#ff5335;" x="242.90905" xlink:href="#mabedf09254" y="130.146019"/>
    </g>
   </g>
   <g id="PathCollection_20">
    <g clip-path="url(#p9c8ebe5c2f)">
     <use style="fill:#ff5335;stroke:#ff5335;" x="254.149063" xlink:href="#mabedf09254" y="135.466658"/>
    </g>
   </g>
   <g id="PathCollection_21">
    <g clip-path="url(#p9c8ebe5c2f)">
     <use style="fill:#ff5335;stroke:#ff5335;" x="265.401196" xlink:href="#mabedf09254" y="141.44752"/>
    </g>
   </g>
   <g id="PathCollection_22">
    <g clip-path="url(#p9c8ebe5c2f)">
     <use style="fill:#ff5335;stroke:#ff5335;" x="276.648966" xlink:href="#mabedf09254" y="148.870619"/>
    </g>
   </g>
   <g id="PathCollection_23">
    <g clip-path="url(#p9c8ebe5c2f)">
     <use style="fill:#ff5335;stroke:#ff5335;" x="287.901934" xlink:href="#mabedf09254" y="155.980804"/>
    </g>
   </g>
   <g id="PathCollection_24">
    <g clip-path="url(#p9c8ebe5c2f)">
     <use style="fill:#ff5335;stroke:#ff5335;" x="299.15101" xlink:href="#mabedf09254" y="164.196377"/>
    </g>
   </g>
   <g id="PathCollection_25">
    <g clip-path="url(#p9c8ebe5c2f)">
     <use style="fill:#ff5335;stroke:#ff5335;" x="310.398634" xlink:href="#mabedf09254" y="172.659752"/>
    </g>
   </g>
   <g id="PathCollection_26">
    <g clip-path="url(#p9c8ebe5c2f)">
     <use style="fill:#ff5335;stroke:#ff5335;" x="321.649211" xlink:href="#mabedf09254" y="181.685661"/>
    </g>
   </g>
   <g id="PathCollection_27">
    <g clip-path="url(#p9c8ebe5c2f)">
     <use style="fill:#ff5335;stroke:#ff5335;" x="332.897934" xlink:href="#mabedf09254" y="191.574304"/>
    </g>
   </g>
   <g id="PathCollection_28">
    <g clip-path="url(#p9c8ebe5c2f)">
     <use style="fill:#ff5335;stroke:#ff5335;" x="344.14782" xlink:href="#mabedf09254" y="202.075975"/>
    </g>
   </g>
   <g id="PathCollection_29">
    <g clip-path="url(#p9c8ebe5c2f)">
     <use style="fill:#ff5335;stroke:#ff5335;" x="355.397684" xlink:href="#mabedf09254" y="213.353992"/>
    </g>
   </g>
   <g id="PathCollection_30">
    <g clip-path="url(#p9c8ebe5c2f)">
     <use style="fill:#ff5335;stroke:#ff5335;" x="366.648072" xlink:href="#mabedf09254" y="225.89216"/>
    </g>
   </g>
   <g id="PathCollection_31">
    <g clip-path="url(#p9c8ebe5c2f)">
     <use style="fill:#ff5335;stroke:#ff5335;" x="377.897683" xlink:href="#mabedf09254" y="236.149233"/>
    </g>
   </g>
   <g id="PathCollection_32">
    <g clip-path="url(#p9c8ebe5c2f)">
     <use style="fill:#ff5335;stroke:#ff5335;" x="389.147452" xlink:href="#mabedf09254" y="252.406309"/>
    </g>
   </g>
   <g id="line2d_14">
    <path clip-path="url(#p9c8ebe5c2f)" d="M 72.102273 46.332491 
L 91.190311 52.245232 
L 102.356098 56.211868 
L 110.278349 56.658668 
L 116.423325 56.793095 
L 121.444136 59.660199 
L 125.689171 61.316965 
L 129.366388 63.726654 
L 132.609923 66.134387 
L 135.511364 66.212583 
L 138.136036 69.49179 
L 140.532174 69.521035 
L 142.736408 72.462125 
L 144.77721 72.782711 
L 146.67715 73.910973 
L 148.454426 74.431417 
L 151.697961 77.375454 
L 153.186876 77.733678 
L 154.599402 77.952873 
L 155.942996 78.810843 
L 157.224075 79.772076 
L 158.448197 80.50465 
L 159.620213 81.667259 
L 160.744378 82.310161 
L 162.863748 83.918899 
L 164.8316 84.060876 
L 165.765189 84.915969 
L 166.668162 86.617198 
L 167.542465 88.695516 
L 168.389861 88.798193 
L 169.211959 90.12991 
L 170.010224 91.757459 
L 170.785999 92.077062 
L 171.540518 92.533965 
L 173.68744 93.046776 
L 174.367431 93.787301 
L 175.031035 93.930371 
L 175.679023 94.254135 
L 176.930975 95.251428 
L 177.536235 95.308996 
L 178.128478 96.385053 
L 179.27607 96.673814 
L 179.832416 97.059912 
L 180.377745 97.979704 
L 180.912485 98.041534 
L 181.951786 98.921068 
L 182.953286 99.07046 
L 183.440701 100.205574 
L 183.919639 100.24097 
L 184.853227 100.588772 
L 185.308415 100.768148 
L 186.630503 101.651202 
L 187.057461 101.777032 
L 187.4779 102.157615 
L 187.892016 102.756194 
L 188.702022 102.894247 
L 189.098262 103.121291 
L 189.874038 103.248535 
L 190.253881 103.610241 
L 190.628557 103.799615 
L 190.998203 103.848631 
L 191.362953 105.12224 
L 193.78927 105.842151 
L 194.119073 106.609003 
L 194.444973 106.66438 
L 194.767061 106.954775 
L 195.085425 107.058737 
L 195.711321 107.677401 
L 196.019014 107.684934 
L 196.624274 107.915278 
L 197.216516 108.357192 
L 197.507929 108.431851 
L 197.79629 108.626853 
L 198.364108 108.763099 
L 199.734451 108.9991 
L 200.000523 109.383769 
L 200.525076 109.407265 
L 201.039824 109.87741 
L 201.545127 110.097496 
L 202.28611 110.656843 
L 202.769249 110.855696 
L 203.478427 110.937869 
L 203.941265 111.164901 
L 204.1698 111.544684 
L 204.621256 111.742699 
L 205.06543 111.928893 
L 205.718541 112.074597 
L 205.932848 112.37268 
L 206.565938 112.575179 
L 206.980054 112.765138 
L 207.1848 112.784032 
L 207.388035 113.040294 
L 208.1863 113.174354 
L 208.382303 113.265627 
L 208.57692 113.494445 
L 210.26922 113.667784 
L 210.63157 113.855876 
L 210.810973 113.918257 
L 210.989214 114.139336 
L 211.51712 114.23287 
L 211.863517 114.550322 
L 212.375078 114.889712 
L 212.543508 114.963462 
L 212.710914 115.270579 
L 213.042704 115.432214 
L 213.370543 115.602779 
L 213.855099 115.71039 
L 214.48819 116.089618 
L 215.107052 116.197864 
L 215.259619 116.302411 
L 215.56224 116.734318 
L 215.712312 116.742036 
L 216.010025 117.022601 
L 216.304555 117.141092 
L 216.595967 117.358406 
L 216.740525 117.40839 
L 217.027384 117.675671 
L 217.452146 117.87268 
L 217.731725 118.055465 
L 217.870456 118.063904 
L 218.145841 118.204699 
L 218.688483 118.42449 
L 219.871692 118.682761 
L 220.25506 118.899102 
L 220.758056 119.024675 
L 221.006149 119.145873 
L 221.252028 119.753962 
L 221.97676 119.881309 
L 222.682906 120.230918 
L 222.914321 120.340779 
L 223.143808 120.469328 
L 225.020886 121.267088 
L 225.861813 121.835483 
L 226.374644 121.971164 
L 226.67782 122.125862 
L 226.878099 122.168132 
L 227.076931 122.358727 
L 227.954329 122.675795 
L 228.711441 122.952746 
L 229.265921 123.27094 
L 231.123134 124.240539 
L 231.29365 124.268757 
L 231.463116 124.408068 
L 231.631546 124.457398 
L 231.798952 124.622155 
L 233.10278 125.108688 
L 233.340521 125.302913 
L 233.887398 125.564041 
L 234.423625 125.693527 
L 234.949609 125.984753 
L 235.245722 126.273003 
L 235.465736 126.522061 
L 236.257739 126.754106 
L 236.469844 126.897553 
L 236.680329 127.088934 
L 237.0276 127.276527 
L 238.505615 127.916307 
L 238.766025 128.114761 
L 242.964739 130.176609 
L 243.296529 130.322781 
L 243.624368 130.41974 
L 244.215455 130.746277 
L 248.445297 132.532533 
L 248.807647 132.722251 
L 248.98705 132.93748 
L 249.51835 133.095152 
L 249.736735 133.334855 
L 249.910205 133.636422 
L 253.244855 135.013958 
L 254.037648 135.330473 
L 254.186102 135.477608 
L 254.480631 135.631753 
L 256.998566 136.878137 
L 257.231519 137.047672 
L 257.560928 137.157693 
L 257.951086 137.3429 
L 258.24012 137.524164 
L 258.965266 137.893492 
L 259.151336 138.016511 
L 259.39749 138.166811 
L 259.550225 138.265661 
L 259.973434 138.492197 
L 261.032726 139.081174 
L 261.376959 139.186348 
L 261.604079 139.334858 
L 263.594346 140.410734 
L 263.725544 140.541247 
L 263.986077 140.641834 
L 266.98071 142.562456 
L 267.189246 142.731373 
L 267.578891 142.839059 
L 268.119757 143.333587 
L 268.275529 143.389569 
L 268.430425 143.502172 
L 268.803013 143.682231 
L 268.954978 143.787486 
L 269.341938 143.99053 
L 269.533398 144.078409 
L 269.828604 144.30539 
L 270.037545 144.485487 
L 270.182865 144.627094 
L 270.389145 144.842078 
L 270.553064 144.935179 
L 270.938504 145.186351 
L 271.179189 145.292277 
L 273.051158 146.406915 
L 273.200013 146.510437 
L 275.784169 148.234625 
L 276.10331 148.522734 
L 276.730706 148.884164 
L 276.942102 148.992972 
L 277.423832 149.254644 
L 277.566723 149.352227 
L 277.944181 149.549347 
L 278.053305 149.634637 
L 278.285696 149.835581 
L 278.516143 149.937085 
L 278.68392 150.08331 
L 278.926149 150.186534 
L 279.315282 150.425214 
L 279.52256 150.530859 
L 279.801393 150.667806 
L 279.961542 150.759814 
L 280.106328 150.914443 
L 280.250357 151.023652 
L 280.564593 151.212764 
L 280.734495 151.308235 
L 281.029325 151.484879 
L 281.196392 151.582127 
L 281.362452 151.696397 
L 281.568629 151.795049 
L 281.800445 151.910981 
L 282.003381 152.01108 
L 282.244945 152.145606 
L 282.404819 152.24731 
L 282.708674 152.470096 
L 282.865886 152.539325 
L 282.996214 152.643781 
L 283.177643 152.748979 
L 283.447565 152.943807 
L 283.68952 153.051168 
L 283.992141 153.304747 
L 284.142214 153.414769 
L 284.427586 153.655993 
L 284.599855 153.749828 
L 284.795422 153.863222 
L 284.91695 153.939304 
L 285.050014 154.015779 
L 285.254403 154.111931 
L 285.528536 154.345279 
L 285.752953 154.443604 
L 285.905455 154.582365 
L 286.068749 154.682283 
L 286.277285 154.823312 
L 286.472796 154.924876 
L 286.723767 155.150802 
L 286.825782 155.254647 
L 287.028684 155.401265 
L 287.241249 155.506888 
L 287.474296 155.720425 
L 287.694427 155.82836 
L 287.891051 155.980804 
L 288.075472 156.090662 
L 288.247923 156.201342 
L 288.355159 156.290486 
L 288.504592 156.447791 
L 288.737788 156.698415 
L 288.864159 156.790614 
L 289.052634 156.953357 
L 289.250191 157.047162 
L 289.456625 157.260425 
L 289.610442 157.356205 
L 289.783735 157.501046 
L 289.925632 157.574002 
L 290.056743 157.6964 
L 290.167197 157.770327 
L 290.297165 157.894367 
L 290.44637 157.994352 
L 290.624356 158.145609 
L 290.801198 158.247313 
L 290.96718 158.375433 
L 291.112808 158.478735 
L 291.25767 158.556686 
L 291.411355 158.661265 
L 291.564186 158.766588 
L 291.763498 158.872666 
L 291.923797 159.006342 
L 292.073818 159.114159 
L 292.232325 159.250045 
L 292.371431 159.359659 
L 292.528239 159.497828 
L 292.665861 159.581353 
L 292.848295 159.80642 
L 292.984331 159.89171 
L 293.110695 159.948845 
L 293.281266 160.034962 
L 293.441891 160.179615 
L 293.557319 160.26709 
L 293.733959 160.473232 
L 293.900725 160.562465 
L 294.057788 160.712394 
L 294.21396 160.803086 
L 294.352039 160.894337 
L 294.574953 160.986154 
L 294.711239 161.078544 
L 294.905975 161.171515 
L 295.049031 161.296392 
L 295.199697 161.390747 
L 295.332933 161.485706 
L 295.432439 161.581279 
L 295.572793 161.709678 
L 295.74519 161.806713 
L 295.900243 161.969866 
L 296.054428 162.068628 
L 296.191655 162.168054 
L 296.368234 162.268152 
L 296.503911 162.368933 
L 296.702228 162.470404 
L 296.836272 162.572576 
L 297.024408 162.675458 
L 297.156897 162.77906 
L 297.311955 162.883393 
L 297.443071 162.988467 
L 297.596531 163.094292 
L 297.726302 163.20088 
L 297.855465 163.30824 
L 297.991568 163.416386 
L 298.201957 163.525327 
L 298.336363 163.635077 
L 298.544143 163.745647 
L 298.676894 163.857049 
L 298.772372 163.931785 
L 298.896732 164.006901 
L 299.005996 164.082401 
L 299.136543 164.196377 
L 299.259273 164.272851 
L 299.388628 164.38831 
L 299.510241 164.465785 
L 299.645529 164.621964 
L 299.787223 164.700677 
L 299.921161 164.819535 
L 300.082429 164.899308 
L 300.221899 165.060156 
L 300.360666 165.14124 
L 300.498737 165.304753 
L 300.663513 165.387193 
L 300.786452 165.470094 
L 300.854515 165.553462 
L 300.976606 165.637303 
L 301.091419 165.721621 
L 301.219175 165.849006 
L 301.373039 165.934543 
L 301.492858 166.020577 
L 301.612157 166.107115 
L 301.737526 166.194161 
L 301.88198 166.281722 
L 302.012648 166.414044 
L 302.207495 166.50292 
L 302.330189 166.592333 
L 302.465165 166.682289 
L 302.593101 166.818258 
L 302.739496 166.909603 
L 302.866167 167.047686 
L 303.036254 167.140463 
L 303.16157 167.280728 
L 303.286319 167.374982 
L 303.410505 167.46984 
L 303.608045 167.56531 
L 303.730792 167.6614 
L 304.004988 167.758119 
L 304.132018 167.904392 
L 304.378353 168.002716 
L 304.503676 168.15144 
L 304.675809 168.251425 
L 304.793898 168.352091 
L 304.981792 168.453447 
L 305.104405 168.555501 
L 305.255459 168.658264 
L 305.38263 168.813759 
L 305.623792 168.918338 
L 305.749277 169.076605 
L 305.970332 169.183065 
L 306.094251 169.344204 
L 306.284673 169.452614 
L 306.407189 169.561823 
L 306.639581 169.671845 
L 306.766016 169.838426 
L 306.859097 169.894373 
L 306.984531 170.063493 
L 307.10398 170.120298 
L 307.222912 170.234568 
L 307.405712 170.292035 
L 307.528687 170.465788 
L 307.635177 170.524163 
L 307.757133 170.641606 
L 307.825827 170.700679 
L 307.946943 170.819538 
L 308.046596 170.879327 
L 308.166748 170.999636 
L 308.291567 171.060159 
L 308.410657 171.181952 
L 308.513797 171.243227 
L 308.631931 171.366543 
L 308.72914 171.428588 
L 308.846357 171.553465 
L 308.993444 171.616301 
L 309.11458 171.742779 
L 309.260246 171.806426 
L 309.385204 171.999025 
L 309.554242 172.063786 
L 309.668006 172.128831 
L 309.761631 172.194164 
L 309.879442 172.325701 
L 310.064951 172.391911 
L 310.181474 172.525225 
L 310.292681 172.592336 
L 310.408246 172.659752 
L 310.518543 172.727477 
L 310.637932 172.863863 
L 310.742568 172.932531 
L 310.856265 173.001518 
L 311.025934 173.070829 
L 311.143148 173.210432 
L 311.292458 173.280731 
L 311.403911 173.351365 
L 311.519531 173.422338 
L 311.639262 173.565313 
L 311.795053 173.637322 
L 311.913595 173.7824 
L 312.067846 173.855476 
L 312.180717 173.928915 
L 312.31107 174.002719 
L 312.427416 174.151443 
L 312.552165 174.226368 
L 312.671925 174.377368 
L 312.817596 174.45345 
L 312.93621 174.606796 
L 313.080492 174.68407 
L 313.197982 174.839838 
L 313.353859 174.918341 
L 313.465891 174.997263 
L 313.547473 175.076608 
L 313.66726 175.236586 
L 313.829 175.317228 
L 313.943345 175.398313 
L 314.095072 175.479844 
L 314.212506 175.644266 
L 314.379404 175.727167 
L 314.495635 175.894376 
L 314.730741 175.978694 
L 314.849591 176.148786 
L 315.033003 176.234571 
L 315.150558 176.407647 
L 315.384173 176.49495 
L 315.496247 176.582771 
L 315.607867 176.671116 
L 315.72696 176.849406 
L 315.947898 176.939362 
L 316.06162 177.029869 
L 316.167078 177.120933 
L 316.283782 177.304759 
L 316.554183 177.397536 
L 316.665433 177.490898 
L 316.764794 177.584853 
L 316.882796 177.774571 
L 317.151169 177.87035 
L 317.26753 178.063789 
L 317.513642 178.161464 
L 317.628485 178.259789 
L 317.761253 178.358772 
L 317.878734 178.558745 
L 318.075854 178.659755 
L 318.192003 178.863866 
L 318.422842 178.966987 
L 318.541116 179.175411 
L 318.822212 179.280734 
L 318.938787 179.493656 
L 319.166972 179.601277 
L 319.278618 179.709687 
L 319.431396 179.818896 
L 319.545426 179.928918 
L 319.693306 180.039763 
L 319.806259 180.151446 
L 319.881304 180.151446 
L 319.99349 180.263977 
L 320.020618 180.263977 
L 320.132239 180.377371 
L 320.206403 180.377371 
L 320.320627 180.49164 
L 320.327332 180.49164 
L 320.441057 180.606799 
L 320.47775 180.606799 
L 320.590857 180.722861 
L 320.630667 180.722861 
L 320.743149 180.839841 
L 320.759652 180.839841 
L 320.871609 180.957752 
L 320.911015 180.957752 
L 321.02236 181.076611 
L 321.061551 181.076611 
L 321.175541 181.196432 
L 321.191787 181.196432 
L 321.30524 181.317231 
L 321.334338 181.317231 
L 321.447206 181.439025 
L 321.453642 181.439025 
L 321.566023 181.561829 
L 321.585243 181.561829 
L 321.700278 181.810538 
L 321.862427 181.810538 
L 321.976313 181.936478 
L 322.020475 181.936478 
L 322.133711 182.063499 
L 322.152538 182.063499 
L 322.265233 182.191619 
L 322.346338 182.191619 
L 322.458244 182.320859 
L 322.507835 182.320859 
L 322.619088 182.451237 
L 322.656073 182.451237 
L 322.769797 182.582774 
L 322.818831 182.582774 
L 322.931886 182.715491 
L 322.959316 182.715491 
L 323.071798 182.849409 
L 323.144514 182.849409 
L 323.259257 183.120936 
L 323.406513 183.120936 
L 323.520171 183.258591 
L 323.58576 183.258591 
L 323.698682 183.397539 
L 323.710542 183.397539 
L 323.822955 183.537804 
L 323.914322 183.537804 
L 324.025908 183.679411 
L 324.08738 183.679411 
L 324.201181 183.822386 
L 324.285498 183.822386 
L 324.398484 183.966756 
L 324.467785 183.966756 
L 324.580027 184.112549 
L 324.614471 184.112549 
L 324.726119 184.259792 
L 324.8003 184.259792 
L 324.914035 184.408515 
L 324.959398 184.408515 
L 325.07248 184.558748 
L 325.134478 184.558748 
L 325.246845 184.710522 
L 325.288864 184.710522 
L 325.400604 184.863869 
L 325.431253 184.863869 
L 325.542418 185.018822 
L 325.608902 185.018822 
L 325.722108 185.175414 
L 325.790909 185.175414 
L 325.903372 185.333681 
L 325.993558 185.333681 
L 326.105198 185.493659 
L 326.192018 185.493659 
L 326.305556 185.655385 
L 326.375607 185.655385 
L 326.488392 185.818899 
L 326.582027 185.818899 
L 326.693971 185.98424 
L 326.771001 185.98424 
L 326.882181 186.151448 
L 326.97449 186.151448 
L 327.087475 186.320568 
L 327.137252 186.320568 
L 327.249573 186.491643 
L 327.345856 186.491643 
L 327.457331 186.664719 
L 327.588964 186.664719 
L 327.702025 186.839844 
L 327.804408 186.839844 
L 327.91659 187.017065 
L 328.018179 187.017065 
L 328.129496 187.196435 
L 328.227788 187.196435 
L 328.340768 187.378006 
L 328.393334 187.378006 
L 328.505638 187.561832 
L 328.600118 187.561832 
L 328.711584 187.747971 
L 328.765914 187.747971 
L 328.87917 187.936481 
L 328.969929 187.936481 
L 329.08235 188.127423 
L 329.21374 188.127423 
L 329.325172 188.320862 
L 329.404836 188.320862 
L 329.517899 188.516862 
L 329.649621 188.516862 
L 329.761687 188.715494 
L 329.835353 188.715494 
L 329.946667 188.916828 
L 330.0693 188.916828 
L 330.182017 189.120939 
L 330.301276 189.120939 
L 330.41305 189.327905 
L 330.561379 189.327905 
L 330.674407 189.537807 
L 330.800724 189.537807 
L 330.912775 189.750729 
L 331.072061 189.750729 
L 331.185275 189.966759 
L 331.291274 189.966759 
L 331.403592 190.18599 
L 331.580127 190.18599 
L 331.691276 190.408518 
L 331.832895 190.408518 
L 331.945229 190.634444 
L 332.100856 190.634444 
L 332.212104 190.863872 
L 332.372728 190.863872 
L 332.48504 191.096914 
L 332.620501 191.096914 
L 332.73181 191.333684 
L 332.885191 191.333684 
L 332.997553 191.574304 
L 333.166293 191.574304 
L 333.277516 191.818902 
L 333.432061 191.818902 
L 333.544293 192.067611 
L 333.707663 192.067611 
L 333.820833 192.320571 
L 333.998902 192.320571 
L 334.110883 192.577931 
L 334.268917 192.577931 
L 334.38182 192.839847 
L 334.526304 192.839847 
L 334.638159 193.106481 
L 334.813018 193.106481 
L 334.925689 193.378009 
L 335.102658 193.378009 
L 335.214153 193.654612 
L 335.408674 193.654612 
L 335.520869 193.936484 
L 335.703657 193.936484 
L 335.816569 194.223829 
L 335.995513 194.223829 
L 336.107238 194.516865 
L 336.348076 194.516865 
L 336.460249 194.815821 
L 336.622091 194.815821 
L 336.735002 195.120942 
L 336.963109 195.120942 
L 337.074633 195.432487 
L 337.283663 195.432487 
L 337.395703 195.750732 
L 337.602319 195.750732 
L 337.714855 196.075972 
L 337.991552 196.075972 
L 338.104269 196.408521 
L 338.316123 196.408521 
L 338.427522 196.748716 
L 338.679978 196.748716 
L 338.791632 197.096917 
L 339.079832 197.096917 
L 339.19157 197.453508 
L 339.467274 197.453508 
L 339.57912 197.818905 
L 339.865832 197.818905 
L 339.977716 198.193554 
L 340.222923 198.193554 
L 340.334989 198.577934 
L 340.601139 198.577934 
L 340.713278 198.972566 
L 341.032764 198.972566 
L 341.144737 199.378012 
L 341.42503 199.378012 
L 341.536975 199.79488 
L 341.870102 199.79488 
L 341.981782 200.223832 
L 342.318655 200.223832 
L 342.430036 200.665591 
L 342.767438 200.665591 
L 342.879978 201.120945 
L 343.238213 201.120945 
L 343.350302 201.590757 
L 343.722582 201.590757 
L 343.834149 202.075975 
L 344.236587 202.075975 
L 344.348897 202.577644 
L 344.782578 202.577644 
L 344.894061 203.09692 
L 345.373354 203.09692 
L 345.485164 203.635082 
L 345.912039 203.635082 
L 346.024324 204.193557 
L 346.472832 204.193557 
L 346.58415 204.773938 
L 347.032603 204.773938 
L 347.144217 205.378015 
L 347.655871 205.378015 
L 347.767467 206.007805 
L 348.289639 206.007805 
L 348.40112 206.665594 
L 349.033523 206.665594 
L 349.14557 207.353989 
L 349.732503 207.353989 
L 349.844043 208.075978 
L 350.500596 208.075978 
L 350.612422 208.835007 
L 351.259839 208.835007 
L 351.371887 209.635085 
L 352.096168 209.635085 
L 352.208031 210.480905 
L 352.970405 210.480905 
L 353.08184 211.378018 
L 353.859429 211.378018 
L 353.971283 212.333048 
L 354.792654 212.333048 
L 354.904608 213.353992 
L 355.831351 213.353992 
L 355.942848 214.450629 
L 356.929171 214.450629 
L 357.040737 215.635088 
L 358.11778 215.635088 
L 358.229721 216.922667 
L 359.38978 216.922667 
L 359.501527 218.333051 
L 360.756586 218.333051 
L 360.868316 219.892157 
L 362.278073 219.892157 
L 362.38963 221.635091 
L 364.045895 221.635091 
L 364.157354 223.611065 
L 365.993894 223.611065 
L 366.105386 225.89216 
L 368.26831 225.89216 
L 368.379763 228.590124 
L 370.970834 228.590124 
L 371.081973 231.892163 
L 374.283315 231.892163 
L 374.394588 236.149233 
L 378.655348 236.149233 
L 378.76678 242.149236 
L 385.376879 242.149236 
L 385.488129 252.406309 
L 389.147727 252.406309 
L 389.147727 252.406309 
" style="fill:none;stroke:#ff5335;stroke-linecap:round;stroke-width:1.5;"/>
   </g>
   <g id="patch_3">
    <path d="M 56.25 262.71 
L 56.25 36.0288 
" style="fill:none;stroke:#cccccc;stroke-linecap:square;stroke-linejoin:miter;stroke-width:1.25;"/>
   </g>
   <g id="patch_4">
    <path d="M 56.25 262.71 
L 405 262.71 
" style="fill:none;stroke:#cccccc;stroke-linecap:square;stroke-linejoin:miter;stroke-width:1.25;"/>
   </g>
   <g id="text_16">
    <!--  , -->
    <defs>
     <path id="Arial-BoldMT-32"/>
     <path d="M 6.84375 13.71875 
L 20.5625 13.71875 
L 20.5625 3.90625 
Q 20.5625 -2.046875 19.53125 -5.484375 
Q 18.5 -8.9375 15.640625 -11.671875 
Q 12.796875 -14.40625 8.40625 -15.96875 
L 5.71875 -10.296875 
Q 9.859375 -8.9375 11.609375 -6.546875 
Q 13.375 -4.15625 13.484375 0 
L 6.84375 0 
z
" id="Arial-BoldMT-44"/>
    </defs>
    <g style="fill:#262626;" transform="translate(76.703226 44.82075)rotate(-40)scale(0.1 -0.1)">
     <use xlink:href="#Arial-BoldMT-32"/>
     <use x="27.783203" xlink:href="#Arial-BoldMT-44"/>
    </g>
   </g>
   <g id="text_17">
    <!--  , -->
    <g style="fill:#262626;" transform="translate(76.703226 44.82075)rotate(-40)scale(0.1 -0.1)">
     <use xlink:href="#Arial-BoldMT-32"/>
     <use x="27.783203" xlink:href="#Arial-BoldMT-44"/>
    </g>
   </g>
   <g id="text_18">
    <!--  , -->
    <g style="fill:#262626;" transform="translate(76.703226 44.82075)rotate(-40)scale(0.1 -0.1)">
     <use xlink:href="#Arial-BoldMT-32"/>
     <use x="27.783203" xlink:href="#Arial-BoldMT-44"/>
    </g>
   </g>
   <g id="text_19">
    <!--  de -->
    <defs>
     <path d="M 54.734375 0 
L 42 0 
L 42 7.625 
Q 38.8125 3.171875 34.484375 1 
Q 30.171875 -1.171875 25.78125 -1.171875 
Q 16.84375 -1.171875 10.46875 6.03125 
Q 4.109375 13.234375 4.109375 26.125 
Q 4.109375 39.3125 10.296875 46.171875 
Q 16.5 53.03125 25.984375 53.03125 
Q 34.671875 53.03125 41.015625 45.796875 
L 41.015625 71.578125 
L 54.734375 71.578125 
z
M 18.109375 27.046875 
Q 18.109375 18.75 20.40625 15.046875 
Q 23.734375 9.671875 29.6875 9.671875 
Q 34.421875 9.671875 37.734375 13.6875 
Q 41.0625 17.71875 41.0625 25.734375 
Q 41.0625 34.671875 37.84375 38.59375 
Q 34.625 42.53125 29.59375 42.53125 
Q 24.703125 42.53125 21.40625 38.640625 
Q 18.109375 34.765625 18.109375 27.046875 
z
" id="Arial-BoldMT-100"/>
     <path d="M 37.203125 16.5 
L 50.875 14.203125 
Q 48.25 6.6875 42.546875 2.75 
Q 36.859375 -1.171875 28.328125 -1.171875 
Q 14.796875 -1.171875 8.296875 7.671875 
Q 3.171875 14.75 3.171875 25.53125 
Q 3.171875 38.421875 9.90625 45.71875 
Q 16.65625 53.03125 26.953125 53.03125 
Q 38.53125 53.03125 45.21875 45.390625 
Q 51.90625 37.75 51.609375 21.96875 
L 17.234375 21.96875 
Q 17.390625 15.875 20.5625 12.46875 
Q 23.734375 9.078125 28.46875 9.078125 
Q 31.6875 9.078125 33.875 10.828125 
Q 36.078125 12.59375 37.203125 16.5 
z
M 37.984375 30.375 
Q 37.84375 36.328125 34.90625 39.421875 
Q 31.984375 42.53125 27.78125 42.53125 
Q 23.296875 42.53125 20.359375 39.265625 
Q 17.4375 35.984375 17.484375 30.375 
z
" id="Arial-BoldMT-101"/>
    </defs>
    <g style="fill:#262626;" transform="translate(95.791264 50.733491)rotate(-40)scale(0.1 -0.1)">
     <use xlink:href="#Arial-BoldMT-32"/>
     <use x="27.783203" xlink:href="#Arial-BoldMT-100"/>
     <use x="88.867188" xlink:href="#Arial-BoldMT-101"/>
    </g>
   </g>
   <g id="text_20">
    <!--  de -->
    <g style="fill:#262626;" transform="translate(95.791264 50.733491)rotate(-40)scale(0.1 -0.1)">
     <use xlink:href="#Arial-BoldMT-32"/>
     <use x="27.783203" xlink:href="#Arial-BoldMT-100"/>
     <use x="88.867188" xlink:href="#Arial-BoldMT-101"/>
    </g>
   </g>
   <g id="text_21">
    <!--  a -->
    <defs>
     <path d="M 17.4375 36.03125 
L 4.984375 38.28125 
Q 7.078125 45.796875 12.203125 49.40625 
Q 17.328125 53.03125 27.4375 53.03125 
Q 36.625 53.03125 41.109375 50.859375 
Q 45.609375 48.6875 47.4375 45.34375 
Q 49.265625 42 49.265625 33.0625 
L 49.125 17.046875 
Q 49.125 10.203125 49.78125 6.953125 
Q 50.4375 3.71875 52.25 0 
L 38.671875 0 
Q 38.140625 1.375 37.359375 4.046875 
Q 37.015625 5.28125 36.859375 5.671875 
Q 33.34375 2.25 29.34375 0.53125 
Q 25.34375 -1.171875 20.796875 -1.171875 
Q 12.796875 -1.171875 8.171875 3.171875 
Q 3.5625 7.515625 3.5625 14.15625 
Q 3.5625 18.5625 5.65625 22 
Q 7.765625 25.4375 11.546875 27.265625 
Q 15.328125 29.109375 22.46875 30.46875 
Q 32.078125 32.28125 35.796875 33.84375 
L 35.796875 35.203125 
Q 35.796875 39.15625 33.84375 40.84375 
Q 31.890625 42.53125 26.46875 42.53125 
Q 22.796875 42.53125 20.75 41.09375 
Q 18.703125 39.65625 17.4375 36.03125 
z
M 35.796875 24.90625 
Q 33.15625 24.03125 27.4375 22.796875 
Q 21.734375 21.578125 19.96875 20.40625 
Q 17.28125 18.5 17.28125 15.578125 
Q 17.28125 12.703125 19.421875 10.59375 
Q 21.578125 8.5 24.90625 8.5 
Q 28.609375 8.5 31.984375 10.9375 
Q 34.46875 12.796875 35.25 15.484375 
Q 35.796875 17.234375 35.796875 22.171875 
z
" id="Arial-BoldMT-97"/>
    </defs>
    <g style="fill:#262626;" transform="translate(106.957051 54.700127)rotate(-40)scale(0.1 -0.1)">
     <use xlink:href="#Arial-BoldMT-32"/>
     <use x="27.783203" xlink:href="#Arial-BoldMT-97"/>
    </g>
   </g>
   <g id="text_22">
    <!--  que -->
    <defs>
     <path d="M 41.0625 -19.734375 
L 41.0625 6.34375 
Q 38.375 2.875 34.375 0.84375 
Q 30.375 -1.171875 25.734375 -1.171875 
Q 16.890625 -1.171875 11.1875 5.46875 
Q 4.4375 13.234375 4.4375 26.515625 
Q 4.4375 39.015625 10.765625 46.015625 
Q 17.09375 53.03125 26.46875 53.03125 
Q 31.640625 53.03125 35.421875 50.828125 
Q 39.203125 48.640625 42.140625 44.1875 
L 42.140625 51.859375 
L 54.78125 51.859375 
L 54.78125 -19.734375 
z
M 41.5 26.5625 
Q 41.5 34.515625 38.25 38.390625 
Q 35.015625 42.28125 30.125 42.28125 
Q 25.140625 42.28125 21.796875 38.328125 
Q 18.453125 34.375 18.453125 25.78125 
Q 18.453125 17.234375 21.671875 13.453125 
Q 24.90625 9.671875 29.640625 9.671875 
Q 34.375 9.671875 37.9375 13.921875 
Q 41.5 18.171875 41.5 26.5625 
z
" id="Arial-BoldMT-113"/>
     <path d="M 41.3125 0 
L 41.3125 7.765625 
Q 38.484375 3.609375 33.859375 1.21875 
Q 29.25 -1.171875 24.125 -1.171875 
Q 18.890625 -1.171875 14.734375 1.125 
Q 10.59375 3.421875 8.734375 7.5625 
Q 6.890625 11.71875 6.890625 19.046875 
L 6.890625 51.859375 
L 20.609375 51.859375 
L 20.609375 28.03125 
Q 20.609375 17.09375 21.359375 14.625 
Q 22.125 12.15625 24.125 10.71875 
Q 26.125 9.28125 29.203125 9.28125 
Q 32.71875 9.28125 35.5 11.203125 
Q 38.28125 13.140625 39.296875 15.984375 
Q 40.328125 18.84375 40.328125 29.984375 
L 40.328125 51.859375 
L 54.046875 51.859375 
L 54.046875 0 
z
" id="Arial-BoldMT-117"/>
    </defs>
    <g style="fill:#262626;" transform="translate(114.879303 55.146927)rotate(-40)scale(0.1 -0.1)">
     <use xlink:href="#Arial-BoldMT-32"/>
     <use x="27.783203" xlink:href="#Arial-BoldMT-113"/>
     <use x="88.867188" xlink:href="#Arial-BoldMT-117"/>
     <use x="149.951172" xlink:href="#Arial-BoldMT-101"/>
    </g>
   </g>
   <g id="text_23">
    <!--  o -->
    <defs>
     <path d="M 4 26.65625 
Q 4 33.5 7.375 39.890625 
Q 10.75 46.296875 16.921875 49.65625 
Q 23.09375 53.03125 30.71875 53.03125 
Q 42.484375 53.03125 50 45.390625 
Q 57.515625 37.75 57.515625 26.078125 
Q 57.515625 14.3125 49.921875 6.5625 
Q 42.328125 -1.171875 30.8125 -1.171875 
Q 23.6875 -1.171875 17.21875 2.046875 
Q 10.75 5.28125 7.375 11.5 
Q 4 17.71875 4 26.65625 
z
M 18.0625 25.921875 
Q 18.0625 18.21875 21.71875 14.109375 
Q 25.390625 10.015625 30.765625 10.015625 
Q 36.140625 10.015625 39.765625 14.109375 
Q 43.40625 18.21875 43.40625 26.03125 
Q 43.40625 33.640625 39.765625 37.734375 
Q 36.140625 41.84375 30.765625 41.84375 
Q 25.390625 41.84375 21.71875 37.734375 
Q 18.0625 33.640625 18.0625 25.921875 
z
" id="Arial-BoldMT-111"/>
    </defs>
    <g style="fill:#262626;" transform="translate(126.045089 58.148458)rotate(-40)scale(0.1 -0.1)">
     <use xlink:href="#Arial-BoldMT-32"/>
     <use x="27.783203" xlink:href="#Arial-BoldMT-111"/>
    </g>
   </g>
   <g id="text_24">
    <!--  &lt;eop&gt; -->
    <defs>
     <path d="M 53.71875 8.15625 
L 4.640625 29.5 
L 4.640625 41.3125 
L 53.71875 62.546875 
L 53.71875 48.640625 
L 19.484375 35.546875 
L 53.71875 21.96875 
z
" id="Arial-BoldMT-60"/>
     <path d="M 6.78125 51.859375 
L 19.578125 51.859375 
L 19.578125 44.234375 
Q 22.078125 48.140625 26.3125 50.578125 
Q 30.5625 53.03125 35.75 53.03125 
Q 44.78125 53.03125 51.078125 45.953125 
Q 57.375 38.875 57.375 26.21875 
Q 57.375 13.234375 51.015625 6.03125 
Q 44.671875 -1.171875 35.640625 -1.171875 
Q 31.34375 -1.171875 27.84375 0.53125 
Q 24.359375 2.25 20.515625 6.390625 
L 20.515625 -19.734375 
L 6.78125 -19.734375 
z
M 20.359375 26.8125 
Q 20.359375 18.0625 23.828125 13.890625 
Q 27.296875 9.71875 32.28125 9.71875 
Q 37.0625 9.71875 40.234375 13.546875 
Q 43.40625 17.390625 43.40625 26.125 
Q 43.40625 34.28125 40.125 38.234375 
Q 36.859375 42.1875 32.03125 42.1875 
Q 27 42.1875 23.671875 38.296875 
Q 20.359375 34.421875 20.359375 26.8125 
z
" id="Arial-BoldMT-112"/>
     <path d="M 4.640625 8.109375 
L 4.640625 21.921875 
L 38.921875 35.40625 
L 4.640625 48.734375 
L 4.640625 62.453125 
L 53.765625 41.21875 
L 53.765625 29.5 
z
" id="Arial-BoldMT-62"/>
    </defs>
    <g style="fill:#262626;" transform="translate(137.210876 64.622646)rotate(-40)scale(0.1 -0.1)">
     <use xlink:href="#Arial-BoldMT-32"/>
     <use x="27.783203" xlink:href="#Arial-BoldMT-60"/>
     <use x="86.181641" xlink:href="#Arial-BoldMT-101"/>
     <use x="141.796875" xlink:href="#Arial-BoldMT-111"/>
     <use x="202.880859" xlink:href="#Arial-BoldMT-112"/>
     <use x="263.964844" xlink:href="#Arial-BoldMT-62"/>
    </g>
   </g>
   <g id="text_25">
    <!--  para -->
    <defs>
     <path d="M 20.3125 0 
L 6.59375 0 
L 6.59375 51.859375 
L 19.34375 51.859375 
L 19.34375 44.484375 
Q 22.609375 49.703125 25.21875 51.359375 
Q 27.828125 53.03125 31.15625 53.03125 
Q 35.84375 53.03125 40.1875 50.4375 
L 35.9375 38.484375 
Q 32.46875 40.71875 29.5 40.71875 
Q 26.609375 40.71875 24.609375 39.125 
Q 22.609375 37.546875 21.453125 33.390625 
Q 20.3125 29.25 20.3125 16.015625 
z
" id="Arial-BoldMT-114"/>
    </defs>
    <g style="fill:#262626;" transform="translate(147.337361 70.950384)rotate(-40)scale(0.1 -0.1)">
     <use xlink:href="#Arial-BoldMT-32"/>
     <use x="27.783203" xlink:href="#Arial-BoldMT-112"/>
     <use x="88.867188" xlink:href="#Arial-BoldMT-97"/>
     <use x="144.482422" xlink:href="#Arial-BoldMT-114"/>
     <use x="183.398438" xlink:href="#Arial-BoldMT-97"/>
    </g>
   </g>
   <g id="text_26">
    <!--  com -->
    <defs>
     <path d="M 52.390625 36.53125 
L 38.875 34.078125 
Q 38.1875 38.140625 35.765625 40.1875 
Q 33.34375 42.234375 29.5 42.234375 
Q 24.359375 42.234375 21.3125 38.6875 
Q 18.265625 35.15625 18.265625 26.859375 
Q 18.265625 17.625 21.359375 13.8125 
Q 24.46875 10.015625 29.6875 10.015625 
Q 33.59375 10.015625 36.078125 12.234375 
Q 38.578125 14.453125 39.59375 19.875 
L 53.078125 17.578125 
Q 50.984375 8.296875 45.015625 3.5625 
Q 39.0625 -1.171875 29.046875 -1.171875 
Q 17.671875 -1.171875 10.90625 6 
Q 4.15625 13.1875 4.15625 25.875 
Q 4.15625 38.71875 10.9375 45.875 
Q 17.71875 53.03125 29.296875 53.03125 
Q 38.765625 53.03125 44.359375 48.953125 
Q 49.953125 44.875 52.390625 36.53125 
z
" id="Arial-BoldMT-99"/>
     <path d="M 6.15625 51.859375 
L 18.796875 51.859375 
L 18.796875 44.78125 
Q 25.59375 53.03125 34.96875 53.03125 
Q 39.9375 53.03125 43.59375 50.96875 
Q 47.265625 48.921875 49.609375 44.78125 
Q 53.03125 48.921875 56.984375 50.96875 
Q 60.9375 53.03125 65.4375 53.03125 
Q 71.140625 53.03125 75.09375 50.703125 
Q 79.046875 48.390625 81 43.890625 
Q 82.421875 40.578125 82.421875 33.15625 
L 82.421875 0 
L 68.703125 0 
L 68.703125 29.640625 
Q 68.703125 37.359375 67.28125 39.59375 
Q 65.375 42.53125 61.421875 42.53125 
Q 58.546875 42.53125 56 40.765625 
Q 53.46875 39.015625 52.34375 35.625 
Q 51.21875 32.234375 51.21875 24.90625 
L 51.21875 0 
L 37.5 0 
L 37.5 28.421875 
Q 37.5 35.984375 36.765625 38.171875 
Q 36.03125 40.375 34.484375 41.453125 
Q 32.953125 42.53125 30.328125 42.53125 
Q 27.15625 42.53125 24.609375 40.8125 
Q 22.078125 39.109375 20.96875 35.890625 
Q 19.875 32.671875 19.875 25.203125 
L 19.875 0 
L 6.15625 0 
z
" id="Arial-BoldMT-109"/>
    </defs>
    <g style="fill:#262626;" transform="translate(157.787829 76.221938)rotate(-40)scale(0.1 -0.1)">
     <use xlink:href="#Arial-BoldMT-32"/>
     <use x="27.783203" xlink:href="#Arial-BoldMT-99"/>
     <use x="83.398438" xlink:href="#Arial-BoldMT-111"/>
     <use x="144.482422" xlink:href="#Arial-BoldMT-109"/>
    </g>
   </g>
   <g id="text_27">
    <!--   -->
    <defs>
     <path d="M 17.4375 36.03125 
L 4.984375 38.28125 
Q 7.078125 45.796875 12.203125 49.40625 
Q 17.328125 53.03125 27.4375 53.03125 
Q 36.625 53.03125 41.109375 50.859375 
Q 45.609375 48.6875 47.4375 45.34375 
Q 49.265625 42 49.265625 33.0625 
L 49.125 17.046875 
Q 49.125 10.203125 49.78125 6.953125 
Q 50.4375 3.71875 52.25 0 
L 38.671875 0 
Q 38.140625 1.375 37.359375 4.046875 
Q 37.015625 5.28125 36.859375 5.671875 
Q 33.34375 2.25 29.34375 0.53125 
Q 25.34375 -1.171875 20.796875 -1.171875 
Q 12.796875 -1.171875 8.171875 3.171875 
Q 3.5625 7.515625 3.5625 14.15625 
Q 3.5625 18.5625 5.65625 22 
Q 7.765625 25.4375 11.546875 27.265625 
Q 15.328125 29.109375 22.46875 30.46875 
Q 32.078125 32.28125 35.796875 33.84375 
L 35.796875 35.203125 
Q 35.796875 39.15625 33.84375 40.84375 
Q 31.890625 42.53125 26.46875 42.53125 
Q 22.796875 42.53125 20.75 41.09375 
Q 18.703125 39.65625 17.4375 36.03125 
z
M 35.796875 24.90625 
Q 33.15625 24.03125 27.4375 22.796875 
Q 21.734375 21.578125 19.96875 20.40625 
Q 17.28125 18.5 17.28125 15.578125 
Q 17.28125 12.703125 19.421875 10.59375 
Q 21.578125 8.5 24.90625 8.5 
Q 28.609375 8.5 31.984375 10.9375 
Q 34.46875 12.796875 35.25 15.484375 
Q 35.796875 17.234375 35.796875 22.171875 
z
M 34.796875 58.203125 
L 26.15625 58.203125 
L 12.671875 72.796875 
L 28.0625 72.796875 
z
" id="Arial-BoldMT-224"/>
    </defs>
    <g style="fill:#262626;" transform="translate(169.432554 82.549135)rotate(-40)scale(0.1 -0.1)">
     <use xlink:href="#Arial-BoldMT-32"/>
     <use x="27.783203" xlink:href="#Arial-BoldMT-224"/>
    </g>
   </g>
   <g id="text_28">
    <!--  esta -->
    <defs>
     <path d="M 2.34375 14.796875 
L 16.109375 16.890625 
Q 17 12.890625 19.671875 10.8125 
Q 22.359375 8.734375 27.203125 8.734375 
Q 32.515625 8.734375 35.203125 10.6875 
Q 37.015625 12.0625 37.015625 14.359375 
Q 37.015625 15.921875 36.03125 16.9375 
Q 35.015625 17.921875 31.453125 18.75 
Q 14.84375 22.40625 10.40625 25.4375 
Q 4.25 29.640625 4.25 37.109375 
Q 4.25 43.84375 9.5625 48.4375 
Q 14.890625 53.03125 26.078125 53.03125 
Q 36.71875 53.03125 41.890625 49.5625 
Q 47.078125 46.09375 49.03125 39.3125 
L 36.078125 36.921875 
Q 35.25 39.9375 32.921875 41.546875 
Q 30.609375 43.171875 26.3125 43.171875 
Q 20.90625 43.171875 18.5625 41.65625 
Q 17 40.578125 17 38.875 
Q 17 37.40625 18.359375 36.375 
Q 20.21875 35.015625 31.171875 32.515625 
Q 42.140625 30.03125 46.484375 26.421875 
Q 50.78125 22.75 50.78125 16.21875 
Q 50.78125 9.078125 44.828125 3.953125 
Q 38.875 -1.171875 27.203125 -1.171875 
Q 16.609375 -1.171875 10.421875 3.125 
Q 4.25 7.421875 2.34375 14.796875 
z
" id="Arial-BoldMT-115"/>
     <path d="M 30.953125 51.859375 
L 30.953125 40.921875 
L 21.578125 40.921875 
L 21.578125 20.015625 
Q 21.578125 13.671875 21.84375 12.625 
Q 22.125 11.578125 23.078125 10.890625 
Q 24.03125 10.203125 25.390625 10.203125 
Q 27.296875 10.203125 30.90625 11.53125 
L 32.078125 0.875 
Q 27.296875 -1.171875 21.234375 -1.171875 
Q 17.53125 -1.171875 14.546875 0.0625 
Q 11.578125 1.3125 10.1875 3.296875 
Q 8.796875 5.28125 8.25 8.640625 
Q 7.8125 11.03125 7.8125 18.3125 
L 7.8125 40.921875 
L 1.515625 40.921875 
L 1.515625 51.859375 
L 7.8125 51.859375 
L 7.8125 62.15625 
L 21.578125 70.171875 
L 21.578125 51.859375 
z
" id="Arial-BoldMT-116"/>
    </defs>
    <g style="fill:#262626;" transform="translate(180.279976 92.742394)rotate(-40)scale(0.1 -0.1)">
     <use xlink:href="#Arial-BoldMT-32"/>
     <use x="27.783203" xlink:href="#Arial-BoldMT-101"/>
     <use x="83.398438" xlink:href="#Arial-BoldMT-115"/>
     <use x="139.013672" xlink:href="#Arial-BoldMT-116"/>
     <use x="172.314453" xlink:href="#Arial-BoldMT-97"/>
    </g>
   </g>
   <g id="text_29">
    <!--  nos -->
    <defs>
     <path d="M 54.34375 0 
L 40.625 0 
L 40.625 26.46875 
Q 40.625 34.859375 39.75 37.328125 
Q 38.875 39.796875 36.890625 41.15625 
Q 34.90625 42.53125 32.125 42.53125 
Q 28.5625 42.53125 25.734375 40.578125 
Q 22.90625 38.625 21.84375 35.390625 
Q 20.796875 32.171875 20.796875 23.484375 
L 20.796875 0 
L 7.078125 0 
L 7.078125 51.859375 
L 19.828125 51.859375 
L 19.828125 44.234375 
Q 26.609375 53.03125 36.921875 53.03125 
Q 41.453125 53.03125 45.203125 51.390625 
Q 48.96875 49.75 50.890625 47.203125 
Q 52.828125 44.671875 53.578125 41.453125 
Q 54.34375 38.234375 54.34375 32.234375 
z
" id="Arial-BoldMT-110"/>
    </defs>
    <g style="fill:#262626;" transform="translate(191.658414 100.265291)rotate(-40)scale(0.1 -0.1)">
     <use xlink:href="#Arial-BoldMT-32"/>
     <use x="27.783203" xlink:href="#Arial-BoldMT-110"/>
     <use x="88.867188" xlink:href="#Arial-BoldMT-111"/>
     <use x="149.951172" xlink:href="#Arial-BoldMT-115"/>
    </g>
   </g>
   <g id="text_30">
    <!--  dois -->
    <defs>
     <path d="M 7.171875 58.890625 
L 7.171875 71.578125 
L 20.90625 71.578125 
L 20.90625 58.890625 
z
M 7.171875 0 
L 7.171875 51.859375 
L 20.90625 51.859375 
L 20.90625 0 
z
" id="Arial-BoldMT-105"/>
    </defs>
    <g style="fill:#262626;" transform="translate(202.682615 107.136542)rotate(-40)scale(0.1 -0.1)">
     <use xlink:href="#Arial-BoldMT-32"/>
     <use x="27.783203" xlink:href="#Arial-BoldMT-100"/>
     <use x="88.867188" xlink:href="#Arial-BoldMT-111"/>
     <use x="149.951172" xlink:href="#Arial-BoldMT-105"/>
     <use x="177.734375" xlink:href="#Arial-BoldMT-115"/>
    </g>
   </g>
   <g id="text_31">
    <!--  quer -->
    <g style="fill:#262626;" transform="translate(213.753606 112.028647)rotate(-40)scale(0.1 -0.1)">
     <use xlink:href="#Arial-BoldMT-32"/>
     <use x="27.783203" xlink:href="#Arial-BoldMT-113"/>
     <use x="88.867188" xlink:href="#Arial-BoldMT-117"/>
     <use x="149.951172" xlink:href="#Arial-BoldMT-101"/>
     <use x="205.566406" xlink:href="#Arial-BoldMT-114"/>
    </g>
   </g>
   <g id="text_32">
    <!--  As -->
    <defs>
     <path d="M 71.828125 0 
L 56.109375 0 
L 49.859375 16.265625 
L 21.234375 16.265625 
L 15.328125 0 
L 0 0 
L 27.875 71.578125 
L 43.171875 71.578125 
z
M 45.21875 28.328125 
L 35.359375 54.890625 
L 25.6875 28.328125 
z
" id="Arial-BoldMT-65"/>
    </defs>
    <g style="fill:#262626;" transform="translate(225.10866 117.453603)rotate(-40)scale(0.1 -0.1)">
     <use xlink:href="#Arial-BoldMT-32"/>
     <use x="24.033203" xlink:href="#Arial-BoldMT-65"/>
     <use x="96.25" xlink:href="#Arial-BoldMT-115"/>
    </g>
   </g>
   <g id="text_33">
    <!--  quarta-feira -->
    <defs>
     <path d="M 5.609375 19.09375 
L 5.609375 32.8125 
L 32.5625 32.8125 
L 32.5625 19.09375 
z
" id="Arial-BoldMT-45"/>
     <path d="M 1.171875 51.859375 
L 8.796875 51.859375 
L 8.796875 55.765625 
Q 8.796875 62.3125 10.1875 65.53125 
Q 11.578125 68.75 15.3125 70.765625 
Q 19.046875 72.796875 24.75 72.796875 
Q 30.609375 72.796875 36.234375 71.046875 
L 34.375 61.46875 
Q 31.109375 62.25 28.078125 62.25 
Q 25.09375 62.25 23.796875 60.859375 
Q 22.515625 59.46875 22.515625 55.515625 
L 22.515625 51.859375 
L 32.765625 51.859375 
L 32.765625 41.0625 
L 22.515625 41.0625 
L 22.515625 0 
L 8.796875 0 
L 8.796875 41.0625 
L 1.171875 41.0625 
z
" id="Arial-BoldMT-102"/>
    </defs>
    <g style="fill:#262626;" transform="translate(236.394669 123.094643)rotate(-40)scale(0.1 -0.1)">
     <use xlink:href="#Arial-BoldMT-32"/>
     <use x="27.783203" xlink:href="#Arial-BoldMT-113"/>
     <use x="88.867188" xlink:href="#Arial-BoldMT-117"/>
     <use x="149.951172" xlink:href="#Arial-BoldMT-97"/>
     <use x="205.566406" xlink:href="#Arial-BoldMT-114"/>
     <use x="244.482422" xlink:href="#Arial-BoldMT-116"/>
     <use x="277.783203" xlink:href="#Arial-BoldMT-97"/>
     <use x="333.398438" xlink:href="#Arial-BoldMT-45"/>
     <use x="366.699219" xlink:href="#Arial-BoldMT-102"/>
     <use x="400" xlink:href="#Arial-BoldMT-101"/>
     <use x="455.615234" xlink:href="#Arial-BoldMT-105"/>
     <use x="483.398438" xlink:href="#Arial-BoldMT-114"/>
     <use x="522.314453" xlink:href="#Arial-BoldMT-97"/>
    </g>
   </g>
   <g id="text_34">
    <!--  perante -->
    <g style="fill:#262626;" transform="translate(247.510003 128.634278)rotate(-40)scale(0.1 -0.1)">
     <use xlink:href="#Arial-BoldMT-32"/>
     <use x="27.783203" xlink:href="#Arial-BoldMT-112"/>
     <use x="88.867188" xlink:href="#Arial-BoldMT-101"/>
     <use x="144.482422" xlink:href="#Arial-BoldMT-114"/>
     <use x="183.398438" xlink:href="#Arial-BoldMT-97"/>
     <use x="239.013672" xlink:href="#Arial-BoldMT-110"/>
     <use x="300.097656" xlink:href="#Arial-BoldMT-116"/>
     <use x="333.398438" xlink:href="#Arial-BoldMT-101"/>
    </g>
   </g>
   <g id="text_35">
    <!--  tipo -->
    <g style="fill:#262626;" transform="translate(258.750017 133.954917)rotate(-40)scale(0.1 -0.1)">
     <use xlink:href="#Arial-BoldMT-32"/>
     <use x="27.783203" xlink:href="#Arial-BoldMT-116"/>
     <use x="61.083984" xlink:href="#Arial-BoldMT-105"/>
     <use x="88.867188" xlink:href="#Arial-BoldMT-112"/>
     <use x="149.951172" xlink:href="#Arial-BoldMT-111"/>
    </g>
   </g>
   <g id="text_36">
    <!--  deveria -->
    <defs>
     <path d="M 21.4375 0 
L 0.53125 51.859375 
L 14.9375 51.859375 
L 24.703125 25.390625 
L 27.546875 16.546875 
Q 28.65625 19.921875 28.953125 21 
Q 29.640625 23.1875 30.421875 25.390625 
L 40.28125 51.859375 
L 54.390625 51.859375 
L 33.796875 0 
z
" id="Arial-BoldMT-118"/>
    </defs>
    <g style="fill:#262626;" transform="translate(270.002149 139.935779)rotate(-40)scale(0.1 -0.1)">
     <use xlink:href="#Arial-BoldMT-32"/>
     <use x="27.783203" xlink:href="#Arial-BoldMT-100"/>
     <use x="88.867188" xlink:href="#Arial-BoldMT-101"/>
     <use x="144.482422" xlink:href="#Arial-BoldMT-118"/>
     <use x="200.097656" xlink:href="#Arial-BoldMT-101"/>
     <use x="255.712891" xlink:href="#Arial-BoldMT-114"/>
     <use x="294.628906" xlink:href="#Arial-BoldMT-105"/>
     <use x="322.412109" xlink:href="#Arial-BoldMT-97"/>
    </g>
   </g>
   <g id="text_37">
    <!--  Aveiro -->
    <g style="fill:#262626;" transform="translate(281.249919 147.358878)rotate(-40)scale(0.1 -0.1)">
     <use xlink:href="#Arial-BoldMT-32"/>
     <use x="24.033203" xlink:href="#Arial-BoldMT-65"/>
     <use x="92.5" xlink:href="#Arial-BoldMT-118"/>
     <use x="148.115234" xlink:href="#Arial-BoldMT-101"/>
     <use x="203.730469" xlink:href="#Arial-BoldMT-105"/>
     <use x="231.513672" xlink:href="#Arial-BoldMT-114"/>
     <use x="270.429688" xlink:href="#Arial-BoldMT-111"/>
    </g>
   </g>
   <g id="text_38">
    <!--  verdadeiramente -->
    <g style="fill:#262626;" transform="translate(292.502887 154.469063)rotate(-40)scale(0.1 -0.1)">
     <use xlink:href="#Arial-BoldMT-32"/>
     <use x="27.783203" xlink:href="#Arial-BoldMT-118"/>
     <use x="83.398438" xlink:href="#Arial-BoldMT-101"/>
     <use x="139.013672" xlink:href="#Arial-BoldMT-114"/>
     <use x="177.929688" xlink:href="#Arial-BoldMT-100"/>
     <use x="239.013672" xlink:href="#Arial-BoldMT-97"/>
     <use x="294.628906" xlink:href="#Arial-BoldMT-100"/>
     <use x="355.712891" xlink:href="#Arial-BoldMT-101"/>
     <use x="411.328125" xlink:href="#Arial-BoldMT-105"/>
     <use x="439.111328" xlink:href="#Arial-BoldMT-114"/>
     <use x="478.027344" xlink:href="#Arial-BoldMT-97"/>
     <use x="533.642578" xlink:href="#Arial-BoldMT-109"/>
     <use x="622.558594" xlink:href="#Arial-BoldMT-101"/>
     <use x="678.173828" xlink:href="#Arial-BoldMT-110"/>
     <use x="739.257812" xlink:href="#Arial-BoldMT-116"/>
     <use x="772.558594" xlink:href="#Arial-BoldMT-101"/>
    </g>
   </g>
   <g id="text_39">
    <!--  destaque -->
    <g style="fill:#262626;" transform="translate(303.751964 162.684636)rotate(-40)scale(0.1 -0.1)">
     <use xlink:href="#Arial-BoldMT-32"/>
     <use x="27.783203" xlink:href="#Arial-BoldMT-100"/>
     <use x="88.867188" xlink:href="#Arial-BoldMT-101"/>
     <use x="144.482422" xlink:href="#Arial-BoldMT-115"/>
     <use x="200.097656" xlink:href="#Arial-BoldMT-116"/>
     <use x="233.398438" xlink:href="#Arial-BoldMT-97"/>
     <use x="289.013672" xlink:href="#Arial-BoldMT-113"/>
     <use x="350.097656" xlink:href="#Arial-BoldMT-117"/>
     <use x="411.181641" xlink:href="#Arial-BoldMT-101"/>
    </g>
   </g>
   <g id="text_40">
    <!--  vagas -->
    <defs>
     <path d="M 5.90625 -3.421875 
L 21.578125 -5.328125 
Q 21.96875 -8.0625 23.390625 -9.078125 
Q 25.34375 -10.546875 29.546875 -10.546875 
Q 34.90625 -10.546875 37.59375 -8.9375 
Q 39.40625 -7.859375 40.328125 -5.46875 
Q 40.96875 -3.765625 40.96875 0.828125 
L 40.96875 8.40625 
Q 34.8125 0 25.4375 0 
Q 14.984375 0 8.890625 8.84375 
Q 4.109375 15.828125 4.109375 26.21875 
Q 4.109375 39.265625 10.375 46.140625 
Q 16.65625 53.03125 25.984375 53.03125 
Q 35.59375 53.03125 41.84375 44.578125 
L 41.84375 51.859375 
L 54.6875 51.859375 
L 54.6875 5.328125 
Q 54.6875 -3.859375 53.171875 -8.390625 
Q 51.65625 -12.9375 48.921875 -15.515625 
Q 46.1875 -18.109375 41.625 -19.578125 
Q 37.0625 -21.046875 30.078125 -21.046875 
Q 16.890625 -21.046875 11.375 -16.53125 
Q 5.859375 -12.015625 5.859375 -5.078125 
Q 5.859375 -4.390625 5.90625 -3.421875 
z
M 18.171875 27 
Q 18.171875 18.75 21.359375 14.90625 
Q 24.5625 11.078125 29.25 11.078125 
Q 34.28125 11.078125 37.75 15.015625 
Q 41.21875 18.953125 41.21875 26.65625 
Q 41.21875 34.71875 37.890625 38.625 
Q 34.578125 42.53125 29.5 42.53125 
Q 24.5625 42.53125 21.359375 38.6875 
Q 18.171875 34.859375 18.171875 27 
z
" id="Arial-BoldMT-103"/>
    </defs>
    <g style="fill:#262626;" transform="translate(314.915222 171.047468)rotate(-40)scale(0.1 -0.1)">
     <use xlink:href="#Arial-BoldMT-32"/>
     <use x="27.783203" xlink:href="#Arial-BoldMT-118"/>
     <use x="83.398438" xlink:href="#Arial-BoldMT-97"/>
     <use x="139.013672" xlink:href="#Arial-BoldMT-103"/>
     <use x="200.097656" xlink:href="#Arial-BoldMT-97"/>
     <use x="255.712891" xlink:href="#Arial-BoldMT-115"/>
    </g>
   </g>
   <g id="text_41">
    <!--  olhe -->
    <defs>
     <path d="M 7.171875 0 
L 7.171875 71.578125 
L 20.90625 71.578125 
L 20.90625 0 
z
" id="Arial-BoldMT-108"/>
     <path d="M 20.84375 71.578125 
L 20.84375 45.265625 
Q 27.484375 53.03125 36.71875 53.03125 
Q 41.453125 53.03125 45.265625 51.265625 
Q 49.078125 49.515625 51 46.78125 
Q 52.9375 44.046875 53.640625 40.71875 
Q 54.34375 37.40625 54.34375 30.421875 
L 54.34375 0 
L 40.625 0 
L 40.625 27.390625 
Q 40.625 35.546875 39.84375 37.734375 
Q 39.0625 39.9375 37.078125 41.234375 
Q 35.109375 42.53125 32.125 42.53125 
Q 28.71875 42.53125 26.03125 40.859375 
Q 23.34375 39.203125 22.09375 35.859375 
Q 20.84375 32.515625 20.84375 25.984375 
L 20.84375 0 
L 7.125 0 
L 7.125 71.578125 
z
" id="Arial-BoldMT-104"/>
    </defs>
    <g style="fill:#262626;" transform="translate(326.250164 180.17392)rotate(-40)scale(0.1 -0.1)">
     <use xlink:href="#Arial-BoldMT-32"/>
     <use x="27.783203" xlink:href="#Arial-BoldMT-111"/>
     <use x="88.867188" xlink:href="#Arial-BoldMT-108"/>
     <use x="116.650391" xlink:href="#Arial-BoldMT-104"/>
     <use x="177.734375" xlink:href="#Arial-BoldMT-101"/>
    </g>
   </g>
   <g id="text_42">
    <!--  suprir -->
    <g style="fill:#262626;" transform="translate(337.498887 190.062563)rotate(-40)scale(0.1 -0.1)">
     <use xlink:href="#Arial-BoldMT-32"/>
     <use x="27.783203" xlink:href="#Arial-BoldMT-115"/>
     <use x="83.398438" xlink:href="#Arial-BoldMT-117"/>
     <use x="144.482422" xlink:href="#Arial-BoldMT-112"/>
     <use x="205.566406" xlink:href="#Arial-BoldMT-114"/>
     <use x="244.482422" xlink:href="#Arial-BoldMT-105"/>
     <use x="272.265625" xlink:href="#Arial-BoldMT-114"/>
    </g>
   </g>
   <g id="text_43">
    <!--  versos -->
    <g style="fill:#262626;" transform="translate(348.748773 200.564234)rotate(-40)scale(0.1 -0.1)">
     <use xlink:href="#Arial-BoldMT-32"/>
     <use x="27.783203" xlink:href="#Arial-BoldMT-118"/>
     <use x="83.398438" xlink:href="#Arial-BoldMT-101"/>
     <use x="139.013672" xlink:href="#Arial-BoldMT-114"/>
     <use x="177.929688" xlink:href="#Arial-BoldMT-115"/>
     <use x="233.544922" xlink:href="#Arial-BoldMT-111"/>
     <use x="294.628906" xlink:href="#Arial-BoldMT-115"/>
    </g>
   </g>
   <g id="text_44">
    <!--  Craveiro -->
    <defs>
     <path d="M 53.078125 26.3125 
L 67.09375 21.875 
Q 63.875 10.15625 56.375 4.46875 
Q 48.875 -1.21875 37.359375 -1.21875 
Q 23.09375 -1.21875 13.90625 8.515625 
Q 4.734375 18.265625 4.734375 35.15625 
Q 4.734375 53.03125 13.953125 62.90625 
Q 23.1875 72.796875 38.234375 72.796875 
Q 51.375 72.796875 59.578125 65.046875 
Q 64.453125 60.453125 66.890625 51.859375 
L 52.59375 48.4375 
Q 51.3125 54 47.28125 57.21875 
Q 43.265625 60.453125 37.5 60.453125 
Q 29.546875 60.453125 24.578125 54.734375 
Q 19.625 49.03125 19.625 36.234375 
Q 19.625 22.65625 24.5 16.890625 
Q 29.390625 11.140625 37.203125 11.140625 
Q 42.96875 11.140625 47.109375 14.796875 
Q 51.265625 18.453125 53.078125 26.3125 
z
" id="Arial-BoldMT-67"/>
    </defs>
    <g style="fill:#262626;" transform="translate(359.998638 211.842252)rotate(-40)scale(0.1 -0.1)">
     <use xlink:href="#Arial-BoldMT-32"/>
     <use x="27.783203" xlink:href="#Arial-BoldMT-67"/>
     <use x="100" xlink:href="#Arial-BoldMT-114"/>
     <use x="138.916016" xlink:href="#Arial-BoldMT-97"/>
     <use x="194.53125" xlink:href="#Arial-BoldMT-118"/>
     <use x="250.146484" xlink:href="#Arial-BoldMT-101"/>
     <use x="305.761719" xlink:href="#Arial-BoldMT-105"/>
     <use x="333.544922" xlink:href="#Arial-BoldMT-114"/>
     <use x="372.460938" xlink:href="#Arial-BoldMT-111"/>
    </g>
   </g>
   <g id="text_45">
    <!--  sufocar -->
    <g style="fill:#262626;" transform="translate(371.249025 224.38042)rotate(-40)scale(0.1 -0.1)">
     <use xlink:href="#Arial-BoldMT-32"/>
     <use x="27.783203" xlink:href="#Arial-BoldMT-115"/>
     <use x="83.398438" xlink:href="#Arial-BoldMT-117"/>
     <use x="144.482422" xlink:href="#Arial-BoldMT-102"/>
     <use x="177.783203" xlink:href="#Arial-BoldMT-111"/>
     <use x="238.867188" xlink:href="#Arial-BoldMT-99"/>
     <use x="294.482422" xlink:href="#Arial-BoldMT-97"/>
     <use x="350.097656" xlink:href="#Arial-BoldMT-114"/>
    </g>
   </g>
   <g id="text_46">
    <!--  perniciosas -->
    <g style="fill:#262626;" transform="translate(382.498636 234.637492)rotate(-40)scale(0.1 -0.1)">
     <use xlink:href="#Arial-BoldMT-32"/>
     <use x="27.783203" xlink:href="#Arial-BoldMT-112"/>
     <use x="88.867188" xlink:href="#Arial-BoldMT-101"/>
     <use x="144.482422" xlink:href="#Arial-BoldMT-114"/>
     <use x="183.398438" xlink:href="#Arial-BoldMT-110"/>
     <use x="244.482422" xlink:href="#Arial-BoldMT-105"/>
     <use x="272.265625" xlink:href="#Arial-BoldMT-99"/>
     <use x="327.880859" xlink:href="#Arial-BoldMT-105"/>
     <use x="355.664062" xlink:href="#Arial-BoldMT-111"/>
     <use x="416.748047" xlink:href="#Arial-BoldMT-115"/>
     <use x="472.363281" xlink:href="#Arial-BoldMT-97"/>
     <use x="527.978516" xlink:href="#Arial-BoldMT-115"/>
    </g>
   </g>
   <g id="text_47">
    <!--  Metia -->
    <defs>
     <path d="M 7.078125 0 
L 7.078125 71.578125 
L 28.71875 71.578125 
L 41.703125 22.75 
L 54.546875 71.578125 
L 76.21875 71.578125 
L 76.21875 0 
L 62.796875 0 
L 62.796875 56.34375 
L 48.578125 0 
L 34.671875 0 
L 20.515625 56.34375 
L 20.515625 0 
z
" id="Arial-BoldMT-77"/>
    </defs>
    <g style="fill:#262626;" transform="translate(393.748405 250.894568)rotate(-40)scale(0.1 -0.1)">
     <use xlink:href="#Arial-BoldMT-32"/>
     <use x="27.783203" xlink:href="#Arial-BoldMT-77"/>
     <use x="111.083984" xlink:href="#Arial-BoldMT-101"/>
     <use x="166.699219" xlink:href="#Arial-BoldMT-116"/>
     <use x="200" xlink:href="#Arial-BoldMT-105"/>
     <use x="227.783203" xlink:href="#Arial-BoldMT-97"/>
    </g>
   </g>
  </g>
 </g>
 <defs>
  <clipPath id="p9c8ebe5c2f">
   <rect height="226.6812" width="348.75" x="56.25" y="36.0288"/>
  </clipPath>
 </defs>
</svg>
